<svg width="288" height="213" viewBox="0 0 288 213" fill="none" xmlns="http://www.w3.org/2000/svg">
<path d="M106.748 131.238L47.1297 143.836C45.4068 144.198 43.611 143.86 42.1363 142.897C40.6616 141.933 39.6284 140.422 39.2634 138.696L29.0329 90.0391C28.6718 88.3119 29.0088 86.5116 29.9701 85.0332C30.9313 83.5548 32.4383 82.519 34.1604 82.1531L93.7788 69.5551C95.5017 69.1931 97.2975 69.531 98.7722 70.4947C100.247 71.4583 101.28 72.969 101.645 74.6954L111.876 123.352C112.237 125.08 111.9 126.88 110.938 128.358C109.977 129.837 108.47 130.872 106.748 131.238ZM34.3215 82.9194C32.802 83.2422 31.4724 84.1562 30.6242 85.4606C29.776 86.7651 29.4787 88.3536 29.7973 89.8776L40.0277 138.535C40.3498 140.058 41.2614 141.391 42.5626 142.241C43.8639 143.091 45.4484 143.39 46.9686 143.07L106.587 130.472C108.106 130.149 109.436 129.235 110.284 127.931C111.132 126.626 111.43 125.038 111.111 123.514L100.881 74.8569C100.559 73.3337 99.6471 72.0007 98.3458 71.1504C97.0446 70.3001 95.4601 70.002 93.9399 70.3214L34.3215 82.9194Z" fill="#AD7ECD"/>
<path d="M90.0746 85.5988L59.9859 91.9568C59.7226 92.0181 59.446 91.9768 59.2118 91.8414C58.9777 91.706 58.8036 91.4865 58.7247 91.2273C58.6886 91.0922 58.6804 90.951 58.7005 90.8126C58.7206 90.6741 58.7686 90.5412 58.8417 90.422C58.9147 90.3028 59.0112 90.1997 59.1253 90.1191C59.2394 90.0385 59.3687 89.9821 59.5053 89.9532L90.1336 83.4811C91.3295 84.1568 90.9516 85.4135 90.0742 85.5989L90.0746 85.5988Z" fill="white"/>
<path d="M91.187 90.8897L61.0984 97.2477C60.8351 97.309 60.5584 97.2677 60.3243 97.1323C60.0901 96.9969 59.916 96.7774 59.8371 96.5182C59.8011 96.3831 59.7928 96.242 59.8129 96.1035C59.8331 95.965 59.8811 95.8321 59.9542 95.7129C60.0272 95.5937 60.1237 95.4906 60.2378 95.41C60.3519 95.3294 60.4811 95.273 60.6177 95.2441L91.2461 88.772C92.442 89.4477 92.0644 90.7043 91.187 90.8897Z" fill="white"/>
<path d="M55.2273 101.635L46.0446 103.575C45.7447 103.638 45.4321 103.579 45.1754 103.412C44.9187 103.244 44.7389 102.981 44.6754 102.68L42.3912 91.8169C42.3283 91.5163 42.387 91.2029 42.5543 90.9456C42.7216 90.6882 42.984 90.5079 43.2837 90.4443L52.4665 88.5039C52.7664 88.4409 53.0789 88.4998 53.3356 88.6675C53.5922 88.8352 53.7721 89.0981 53.8357 89.3986L56.1198 100.262C56.1827 100.563 56.1241 100.876 55.9567 101.133C55.7894 101.391 55.5271 101.571 55.2273 101.635Z" fill="#CCCCCC"/>
<path d="M93.3773 101.741L47.4565 111.445C47.1932 111.506 46.9165 111.465 46.6824 111.33C46.4483 111.194 46.2742 110.975 46.1953 110.716C46.1592 110.58 46.151 110.439 46.1711 110.301C46.1912 110.162 46.2392 110.029 46.3123 109.91C46.3853 109.791 46.4818 109.688 46.5959 109.607C46.71 109.527 46.8393 109.47 46.9758 109.441L93.4367 99.6237C94.6326 100.299 94.2546 101.556 93.3773 101.741Z" fill="white"/>
<path d="M94.4901 107.034L48.5693 116.738C48.306 116.799 48.0293 116.758 47.7952 116.622C47.561 116.487 47.3869 116.267 47.308 116.008C47.2719 115.873 47.2637 115.732 47.2838 115.593C47.3039 115.455 47.352 115.322 47.425 115.203C47.4981 115.083 47.5946 114.98 47.7087 114.9C47.8228 114.819 47.952 114.763 48.0886 114.734L94.5495 104.916C95.7454 105.592 95.3674 106.849 94.4901 107.034Z" fill="white"/>
<path d="M95.6021 112.323L49.6813 122.027C49.418 122.088 49.1414 122.047 48.9072 121.911C48.6731 121.776 48.499 121.556 48.4201 121.297C48.384 121.162 48.3758 121.021 48.3959 120.882C48.416 120.744 48.4641 120.611 48.5371 120.492C48.6101 120.372 48.7067 120.269 48.8208 120.189C48.9348 120.108 49.0641 120.052 49.2007 120.023L95.6616 110.205C96.8575 110.881 96.4795 112.138 95.6021 112.323Z" fill="white"/>
<path d="M96.7148 117.615L50.7941 127.319C50.5307 127.38 50.2541 127.339 50.0199 127.203C49.7858 127.068 49.6117 126.848 49.5328 126.589C49.4967 126.454 49.4885 126.313 49.5086 126.174C49.5287 126.036 49.5768 125.903 49.6498 125.784C49.7228 125.665 49.8194 125.562 49.9334 125.481C50.0475 125.4 50.1768 125.344 50.3134 125.315L96.7743 115.497C97.9702 116.173 97.5922 117.43 96.7148 117.615Z" fill="white"/>
<path d="M97.827 122.905L51.9062 132.608C51.6429 132.669 51.3662 132.628 51.1321 132.493C50.8979 132.357 50.7238 132.138 50.6449 131.879C50.6089 131.743 50.6006 131.602 50.6207 131.464C50.6409 131.325 50.6889 131.193 50.762 131.073C50.835 130.954 50.9315 130.851 51.0456 130.77C51.1597 130.69 51.289 130.633 51.4255 130.605L97.8864 120.787C99.0823 121.463 98.7043 122.719 97.827 122.905Z" fill="white"/>
<path d="M105.152 98.681C105.048 98.8707 104.958 99.0684 104.885 99.2722L86.0857 103.949L82.8153 100.557L77.0642 104.836L82.2717 111.405C82.6924 111.935 83.2735 112.315 83.9276 112.486C84.5818 112.658 85.2738 112.612 85.8997 112.355L106.299 103.999C106.969 104.494 107.774 104.772 108.606 104.797C109.438 104.822 110.259 104.593 110.957 104.139C111.656 103.685 112.201 103.029 112.519 102.258C112.836 101.486 112.912 100.636 112.736 99.8203C112.56 99.0046 112.141 98.2618 111.534 97.6909C110.926 97.1199 110.16 96.7479 109.337 96.6242C108.513 96.5005 107.672 96.631 106.924 96.9984C106.177 97.3658 105.559 97.9527 105.152 98.681Z" fill="#FFB8B8"/>
<path d="M40.983 140.299C41.5691 140.118 42.1084 139.81 42.5629 139.397C43.0173 138.984 43.3759 138.476 43.6134 137.909C43.8509 137.342 43.9616 136.73 43.9375 136.115C43.9134 135.501 43.7553 134.899 43.4742 134.352L56.4114 98.304L47.4269 96.7078L37.5352 132.644C36.6506 133.178 35.9923 134.019 35.6849 135.008C35.3776 135.996 35.4425 137.063 35.8675 138.007C36.2925 138.95 37.048 139.705 37.9908 140.127C38.9336 140.55 39.9983 140.611 40.983 140.299Z" fill="#FFB8B8"/>
<path d="M54.7684 104.703L45.8976 101.29C45.6452 101.193 45.4167 101.042 45.2275 100.849C45.0384 100.655 44.8931 100.423 44.8016 100.168C44.71 99.9128 44.6744 99.641 44.6971 99.3709C44.7197 99.1009 44.8002 98.8389 44.933 98.6028L49.5866 90.3312C50.0899 89.0399 51.0833 88.0013 52.3491 87.443C53.6149 86.8848 55.0498 86.8523 56.3394 87.3529C57.6291 87.8534 58.6681 88.846 59.2289 90.1133C59.7897 91.3805 59.8265 92.8189 59.3313 94.1133L57.2786 103.353C57.2198 103.617 57.1047 103.866 56.9414 104.082C56.778 104.298 56.5701 104.476 56.3319 104.604C56.0937 104.732 55.8307 104.807 55.5609 104.824C55.2911 104.842 55.0208 104.8 54.7684 104.703Z" fill="#D89EFF"/>
<path d="M74.7908 207.978H79.5788L81.857 189.463L74.79 189.464L74.7908 207.978Z" fill="#FFB8B8"/>
<path d="M73.5693 206.411L82.9991 206.411H82.9995C83.7887 206.411 84.5701 206.567 85.2992 206.87C86.0283 207.172 86.6908 207.616 87.2488 208.175C87.8068 208.735 88.2495 209.399 88.5515 210.13C88.8535 210.861 89.0089 211.644 89.0089 212.435V212.631L73.5696 212.632L73.5693 206.411Z" fill="#2F2E41"/>
<path d="M47.8417 207.978H52.6297L54.9078 189.463L47.8409 189.464L47.8417 207.978Z" fill="#FFB8B8"/>
<path d="M46.6202 206.411L56.05 206.411H56.0504C56.8395 206.411 57.621 206.567 58.3501 206.87C59.0792 207.172 59.7417 207.616 60.2997 208.175C60.8577 208.735 61.3004 209.399 61.6024 210.13C61.9044 210.861 62.0598 211.644 62.0598 212.435V212.631L46.6205 212.632L46.6202 206.411Z" fill="#2F2E41"/>
<path d="M52.8614 200.526H46.8019C46.564 200.526 46.3287 200.478 46.1101 200.384C45.8914 200.29 45.6941 200.153 45.53 199.98C45.3659 199.808 45.2384 199.604 45.1552 199.38C45.0721 199.157 45.035 198.919 45.0463 198.681L47.9246 136.687L48.1059 136.682L77.3669 135.917L83.0927 197.947C83.1148 198.179 83.0904 198.414 83.0212 198.637C82.952 198.86 82.8392 199.067 82.6894 199.246C82.5396 199.425 82.3559 199.572 82.1488 199.679C81.9418 199.786 81.7155 199.851 81.4833 199.869L74.6771 200.415C74.2496 200.449 73.8243 200.325 73.4814 200.067C73.1385 199.809 72.9016 199.434 72.8153 199.013L64.1094 154.856C64.0857 154.721 64.0147 154.6 63.9095 154.514C63.8042 154.428 63.6716 154.383 63.5357 154.386H63.5333C63.397 154.383 63.2641 154.429 63.159 154.516C63.0538 154.603 62.9834 154.725 62.9606 154.86L54.5858 199.105C54.5065 199.505 54.2914 199.865 53.977 200.124C53.6626 200.384 53.2684 200.526 52.8614 200.526Z" fill="#2F2E41"/>
<path d="M63.9612 81.396C69.2591 81.396 73.5539 77.0904 73.5539 71.7793C73.5539 66.4681 69.2591 62.1625 63.9612 62.1625C58.6633 62.1625 54.3685 66.4681 54.3685 71.7793C54.3685 77.0904 58.6633 81.396 63.9612 81.396Z" fill="#FFB8B8"/>
<path d="M60.7446 143.952C56.1725 143.952 51.4764 142.747 47.5833 139.185C47.3761 138.996 47.2162 138.762 47.1165 138.5C47.0167 138.238 46.9801 137.956 47.0094 137.677C47.4261 133.924 49.4474 114.545 48.309 101.599C48.0869 99.1811 48.4284 96.7444 49.3065 94.4814C50.1847 92.2183 51.5754 90.1908 53.3691 88.5589C55.1313 86.9307 57.2469 85.7353 59.5488 85.0671C61.8508 84.3989 64.2761 84.2761 66.6335 84.7084C66.753 84.7299 66.8725 84.7524 66.9921 84.7754C74.672 86.2655 80.0081 93.3909 79.4043 101.35C78.5232 112.963 77.7334 128.672 78.9736 137.555C79.025 137.918 78.9617 138.289 78.7925 138.614C78.6234 138.94 78.3569 139.204 78.0304 139.371C75.2087 140.8 68.1389 143.952 60.7446 143.952Z" fill="#D89EFF"/>
<path d="M73.262 105.395C73.0369 105.245 72.8468 105.048 72.7046 104.817C72.5624 104.587 72.4715 104.328 72.4381 104.059L71.2694 94.6662C70.8984 93.3304 71.0709 91.9016 71.7491 90.6931C72.4273 89.4846 73.5558 88.595 74.8873 88.2194C76.2187 87.8437 77.6444 88.0127 78.8518 88.6892C80.0592 89.3657 80.9497 90.4946 81.3281 91.8283L85.1777 100.505C85.2875 100.753 85.3428 101.021 85.3398 101.292C85.3369 101.563 85.2756 101.831 85.1604 102.076C85.0451 102.321 84.8785 102.538 84.6719 102.713C84.4652 102.888 84.2235 103.016 83.963 103.089L74.8092 105.642C74.5487 105.715 74.2757 105.731 74.0087 105.688C73.7416 105.645 73.487 105.545 73.262 105.395Z" fill="#D89EFF"/>
<path d="M60.6124 81.2602C59.7045 81.2771 58.8022 81.1134 57.9577 80.7787C57.5861 80.6351 57.2004 80.5171 56.8295 80.3735C53.5539 79.1048 51.3962 75.6077 51.3189 72.0882C51.2417 68.5688 53.0597 65.1529 55.7593 62.9017C58.459 60.6505 61.9557 59.4947 65.4571 59.2275C69.2286 58.9396 73.4755 59.8984 75.583 63.0472C76.144 63.8854 76.5363 64.9023 76.2039 65.9143C76.1043 66.2196 75.9265 66.4935 75.6882 66.7083C74.7471 67.5478 73.8087 66.9166 72.8493 66.8608C71.5305 66.7842 70.3461 67.8543 69.9203 69.1079C69.4946 70.3615 69.682 71.7417 70.0257 73.0203C70.2876 73.7898 70.4527 74.5889 70.5172 75.3993C70.5449 75.8057 70.4687 76.2124 70.2957 76.5809C70.1227 76.9495 69.8587 77.2677 69.5287 77.5053C68.7046 78.0046 67.6224 77.7156 66.7979 77.217C65.9733 76.7185 65.2608 76.0253 64.3702 75.6584C63.4795 75.2915 62.2829 75.3729 61.7645 76.1864C61.5998 76.4824 61.4883 76.8052 61.4351 77.1399C60.9704 79.2626 61.0772 79.1376 60.6124 81.2602Z" fill="#2F2E41"/>
<path d="M193.483 68.1287H132.554C130.794 68.1267 129.106 67.4248 127.862 66.1769C126.617 64.9291 125.917 63.2372 125.915 61.4724V11.7463C125.917 9.9816 126.617 8.28971 127.862 7.04185C129.106 5.79399 130.794 5.09207 132.554 5.09009H193.483C195.243 5.09207 196.931 5.79399 198.176 7.04185C199.42 8.28971 200.12 9.9816 200.122 11.7463V61.4724C200.12 63.2372 199.42 64.9291 198.176 66.1769C196.931 67.4248 195.243 68.1267 193.483 68.1287ZM132.554 5.87318C131.001 5.87494 129.512 6.49428 128.414 7.59533C127.315 8.69638 126.698 10.1892 126.696 11.7463V61.4724C126.698 63.0296 127.315 64.5224 128.414 65.6234C129.512 66.7245 131.001 67.3438 132.554 67.3456H193.483C195.036 67.3438 196.525 66.7245 197.623 65.6234C198.722 64.5224 199.34 63.0296 199.341 61.4724V11.7463C199.34 10.1892 198.722 8.69638 197.623 7.59533C196.525 6.49428 195.036 5.87494 193.483 5.87318H132.554Z" fill="#AD7ECD"/>
<path d="M186.557 20.0228H155.808C155.537 20.0283 155.275 19.9307 155.074 19.7498C154.873 19.5689 154.748 19.3181 154.724 19.0482C154.716 18.9085 154.737 18.7687 154.785 18.6374C154.833 18.5061 154.908 18.386 155.004 18.2844C155.1 18.1828 155.215 18.102 155.344 18.0467C155.472 17.9914 155.61 17.9629 155.75 17.9629H187.051C188.082 18.8713 187.454 20.0228 186.557 20.0228Z" fill="white"/>
<path d="M186.557 25.43H155.808C155.537 25.4355 155.275 25.338 155.074 25.157C154.873 24.9761 154.748 24.7254 154.724 24.4554C154.716 24.3157 154.737 24.1759 154.785 24.0446C154.833 23.9133 154.908 23.7932 155.004 23.6916C155.1 23.5901 155.215 23.5092 155.344 23.4539C155.472 23.3986 155.61 23.3701 155.75 23.3701H187.051C188.082 24.2785 187.454 25.43 186.557 25.43Z" fill="white"/>
<path d="M149.16 28.5088H139.776C139.469 28.5084 139.176 28.3863 138.959 28.1691C138.742 27.9519 138.62 27.6574 138.62 27.3502V16.2479C138.62 15.9408 138.742 15.6462 138.959 15.429C139.176 15.2118 139.469 15.0897 139.776 15.0894H149.16C149.467 15.0898 149.76 15.212 149.977 15.4292C150.194 15.6463 150.316 15.9408 150.316 16.2479V27.3502C150.316 27.6574 150.194 27.9519 149.977 28.1691C149.761 28.3863 149.467 28.5084 149.16 28.5088Z" fill="#AD7ECD"/>
<path d="M186.468 36.5013H139.538C139.268 36.5068 139.006 36.4092 138.805 36.2283C138.603 36.0474 138.478 35.7966 138.454 35.5267C138.447 35.387 138.468 35.2472 138.516 35.1159C138.564 34.9846 138.638 34.8645 138.734 34.7629C138.83 34.6614 138.946 34.5805 139.074 34.5252C139.202 34.4699 139.341 34.4414 139.48 34.4414H186.962C187.993 35.3498 187.365 36.5013 186.468 36.5013Z" fill="white"/>
<path d="M186.468 41.9101H139.538C139.268 41.9156 139.006 41.8181 138.805 41.6371C138.603 41.4562 138.478 41.2055 138.454 40.9356C138.447 40.7958 138.468 40.6561 138.516 40.5247C138.564 40.3934 138.638 40.2733 138.734 40.1717C138.83 40.0702 138.946 39.9893 139.074 39.934C139.202 39.8787 139.341 39.8502 139.48 39.8502H186.962C187.993 40.7586 187.365 41.9101 186.468 41.9101Z" fill="white"/>
<path d="M186.468 47.3153H139.538C139.268 47.3208 139.006 47.2233 138.805 47.0424C138.603 46.8615 138.478 46.6107 138.454 46.3408C138.447 46.2011 138.468 46.0613 138.516 45.93C138.564 45.7986 138.638 45.6785 138.734 45.577C138.83 45.4754 138.946 45.3945 139.074 45.3392C139.202 45.284 139.341 45.2554 139.48 45.2554H186.962C187.993 46.1638 187.365 47.3153 186.468 47.3153Z" fill="white"/>
<path d="M186.468 52.7238H139.538C139.268 52.7293 139.006 52.6317 138.805 52.4508C138.603 52.2699 138.478 52.0191 138.454 51.7492C138.447 51.6095 138.468 51.4697 138.516 51.3384C138.564 51.2071 138.638 51.087 138.734 50.9854C138.83 50.8838 138.946 50.803 139.074 50.7477C139.202 50.6924 139.341 50.6639 139.48 50.6639H186.962C187.993 51.5723 187.365 52.7238 186.468 52.7238Z" fill="white"/>
<path d="M186.468 58.1294H139.538C139.268 58.1349 139.006 58.0374 138.805 57.8565C138.603 57.6755 138.478 57.4248 138.454 57.1549C138.447 57.0152 138.468 56.8754 138.516 56.744C138.564 56.6127 138.638 56.4926 138.734 56.391C138.83 56.2895 138.946 56.2086 139.074 56.1533C139.202 56.098 139.341 56.0695 139.48 56.0695H186.962C187.993 56.9779 187.365 58.1294 186.468 58.1294Z" fill="white"/>
<path d="M180.204 0C180.721 0.000593797 181.218 0.207044 181.584 0.574059C181.95 0.941074 182.156 1.43868 182.156 1.95772V8.22243C182.156 8.74146 181.95 9.23907 181.584 9.60609C181.218 9.9731 180.721 10.1796 180.204 10.1801H145.834C145.316 10.1796 144.82 9.9731 144.453 9.60609C144.087 9.23907 143.881 8.74146 143.881 8.22243V1.95772C143.881 1.43868 144.087 0.941074 144.453 0.574059C144.82 0.207044 145.316 0.000593797 145.834 0" fill="#D89EFF"/>
<path d="M281.36 129.601H220.432C218.672 129.599 216.984 128.897 215.739 127.649C214.494 126.401 213.794 124.71 213.792 122.945V73.2188C213.794 71.454 214.494 69.7621 215.739 68.5143C216.984 67.2664 218.672 66.5645 220.432 66.5625H281.36C283.121 66.5645 284.808 67.2664 286.053 68.5143C287.298 69.7621 287.998 71.454 288 73.2188V122.945C287.998 124.71 287.298 126.401 286.053 127.649C284.808 128.897 283.121 129.599 281.36 129.601ZM220.432 67.3456C218.879 67.3473 217.39 67.9667 216.291 69.0677C215.193 70.1688 214.575 71.6616 214.573 73.2188V122.945C214.575 124.502 215.193 125.995 216.291 127.096C217.39 128.197 218.879 128.816 220.432 128.818H281.36C282.914 128.816 284.403 128.197 285.501 127.096C286.599 125.995 287.217 124.502 287.219 122.945V73.2188C287.217 71.6616 286.599 70.1688 285.501 69.0677C284.403 67.9667 282.914 67.3473 281.36 67.3456H220.432Z" fill="#AD7ECD"/>
<path d="M274.435 81.4952H243.685C243.415 81.5007 243.153 81.4031 242.952 81.2222C242.75 81.0413 242.625 80.7905 242.601 80.5206C242.594 80.3809 242.615 80.2411 242.663 80.1098C242.711 79.9785 242.785 79.8584 242.881 79.7568C242.977 79.6553 243.093 79.5744 243.221 79.5191C243.349 79.4638 243.488 79.4353 243.627 79.4353H274.929C275.96 80.3437 275.332 81.4952 274.435 81.4952Z" fill="#AD7ECD"/>
<path d="M274.435 86.9024H243.685C243.415 86.9079 243.153 86.8104 242.952 86.6295C242.75 86.4485 242.625 86.1978 242.601 85.9279C242.594 85.7881 242.615 85.6484 242.663 85.517C242.711 85.3857 242.785 85.2656 242.881 85.1641C242.977 85.0625 243.093 84.9816 243.221 84.9263C243.349 84.871 243.488 84.8425 243.627 84.8425H274.929C275.96 85.7509 275.332 86.9024 274.435 86.9024Z" fill="#AD7ECD"/>
<path d="M237.038 89.9812H227.653C227.347 89.9809 227.053 89.8587 226.836 89.6415C226.62 89.4243 226.498 89.1298 226.498 88.8226V77.7204C226.498 77.4132 226.62 77.1187 226.836 76.9015C227.053 76.6842 227.347 76.5621 227.653 76.5618H237.038C237.344 76.5622 237.638 76.6844 237.855 76.9016C238.071 77.1188 238.193 77.4132 238.194 77.7204V88.8226C238.193 89.1298 238.071 89.4243 237.855 89.6415C237.638 89.8587 237.344 89.9809 237.038 89.9812Z" fill="white"/>
<path d="M274.142 120.13H264.757C264.451 120.13 264.157 120.008 263.94 119.79C263.724 119.573 263.602 119.279 263.601 118.971V112.568C263.602 112.261 263.724 111.966 263.94 111.749C264.157 111.532 264.451 111.409 264.757 111.409H274.142C274.448 111.41 274.742 111.532 274.958 111.749C275.175 111.966 275.297 112.261 275.297 112.568V118.971C275.297 119.279 275.175 119.573 274.959 119.79C274.742 120.008 274.448 120.13 274.142 120.13Z" fill="#AD7ECD"/>
<path d="M274.346 97.9737H227.416C227.146 97.9792 226.883 97.8816 226.682 97.7007C226.481 97.5198 226.356 97.2691 226.332 96.9991C226.324 96.8594 226.345 96.7196 226.393 96.5883C226.442 96.457 226.516 96.3369 226.612 96.2353C226.708 96.1338 226.824 96.0529 226.952 95.9976C227.08 95.9423 227.218 95.9138 227.358 95.9138H274.839C275.871 96.8222 275.242 97.9737 274.346 97.9737Z" fill="white"/>
<path d="M274.346 103.383H227.416C227.146 103.388 226.883 103.29 226.682 103.11C226.481 102.929 226.356 102.678 226.332 102.408C226.324 102.268 226.345 102.128 226.393 101.997C226.442 101.866 226.516 101.746 226.612 101.644C226.708 101.543 226.824 101.462 226.952 101.406C227.08 101.351 227.218 101.323 227.358 101.323H274.839C275.871 102.231 275.242 103.383 274.346 103.383Z" fill="white"/>
<path d="M274.346 108.788H227.416C227.146 108.793 226.883 108.696 226.682 108.515C226.481 108.334 226.356 108.083 226.332 107.813C226.324 107.674 226.345 107.534 226.393 107.402C226.442 107.271 226.516 107.151 226.612 107.049C226.708 106.948 226.824 106.867 226.952 106.812C227.08 106.756 227.218 106.728 227.358 106.728H274.839C275.871 107.636 275.242 108.788 274.346 108.788Z" fill="white"/>
<path d="M249.74 114.196H227.416C227.146 114.202 226.883 114.104 226.682 113.923C226.481 113.742 226.356 113.492 226.332 113.222C226.324 113.082 226.345 112.942 226.393 112.811C226.442 112.679 226.516 112.559 226.612 112.458C226.708 112.356 226.824 112.275 226.952 112.22C227.08 112.165 227.218 112.136 227.358 112.136H250.234C251.265 113.045 250.637 114.196 249.74 114.196Z" fill="white"/>
<path d="M249.74 119.602H227.416C227.146 119.607 226.883 119.51 226.682 119.329C226.481 119.148 226.356 118.897 226.332 118.627C226.324 118.488 226.345 118.348 226.393 118.216C226.442 118.085 226.516 117.965 226.612 117.863C226.708 117.762 226.824 117.681 226.952 117.626C227.08 117.57 227.218 117.542 227.358 117.542H250.234C251.265 118.45 250.637 119.602 249.74 119.602Z" fill="white"/>
<path d="M268.081 71.6526H233.711C233.193 71.652 232.697 71.4455 232.331 71.0785C231.965 70.7115 231.759 70.2139 231.758 69.6948V63.4301C231.759 62.9111 231.965 62.4135 232.331 62.0465C232.697 61.6795 233.193 61.473 233.711 61.4724H268.081C268.599 61.473 269.095 61.6795 269.461 62.0465C269.827 62.4135 270.033 62.9111 270.034 63.4301V69.6948C270.033 70.2139 269.827 70.7115 269.461 71.0785C269.095 71.4455 268.599 71.652 268.081 71.6526Z" fill="#D89EFF"/>
<path d="M37.7927 11.6645C39.1877 11.6645 40.3185 10.5309 40.3185 9.13248C40.3185 7.73405 39.1877 6.6004 37.7927 6.6004C36.3978 6.6004 35.267 7.73405 35.267 9.13248C35.267 10.5309 36.3978 11.6645 37.7927 11.6645Z" fill="#D6A75C"/>
<path d="M37.7927 21.756C39.1877 21.756 40.3185 20.6223 40.3185 19.2239C40.3185 17.8255 39.1877 16.6918 37.7927 16.6918C36.3978 16.6918 35.267 17.8255 35.267 19.2239C35.267 20.6223 36.3978 21.756 37.7927 21.756Z" fill="#D6A75C"/>
<path d="M37.7927 31.8474C39.1877 31.8474 40.3185 30.7137 40.3185 29.3153C40.3185 27.9169 39.1877 26.7832 37.7927 26.7832C36.3978 26.7832 35.267 27.9169 35.267 29.3153C35.267 30.7137 36.3978 31.8474 37.7927 31.8474Z" fill="#D6A75C"/>
<path d="M37.7927 41.9387C39.1877 41.9387 40.3185 40.8051 40.3185 39.4066C40.3185 38.0082 39.1877 36.8746 37.7927 36.8746C36.3978 36.8746 35.267 38.0082 35.267 39.4066C35.267 40.8051 36.3978 41.9387 37.7927 41.9387Z" fill="#D6A75C"/>
<path d="M48.338 11.6645C49.733 11.6645 50.8638 10.5309 50.8638 9.13248C50.8638 7.73405 49.733 6.6004 48.338 6.6004C46.9431 6.6004 45.8123 7.73405 45.8123 9.13248C45.8123 10.5309 46.9431 11.6645 48.338 11.6645Z" fill="#D6A75C"/>
<path d="M48.338 21.756C49.733 21.756 50.8638 20.6223 50.8638 19.2239C50.8638 17.8255 49.733 16.6918 48.338 16.6918C46.9431 16.6918 45.8123 17.8255 45.8123 19.2239C45.8123 20.6223 46.9431 21.756 48.338 21.756Z" fill="#D6A75C"/>
<path d="M48.338 31.8474C49.733 31.8474 50.8638 30.7137 50.8638 29.3153C50.8638 27.9169 49.733 26.7832 48.338 26.7832C46.9431 26.7832 45.8123 27.9169 45.8123 29.3153C45.8123 30.7137 46.9431 31.8474 48.338 31.8474Z" fill="#D6A75C"/>
<path d="M48.338 41.9387C49.733 41.9387 50.8638 40.8051 50.8638 39.4066C50.8638 38.0082 49.733 36.8746 48.338 36.8746C46.9431 36.8746 45.8123 38.0082 45.8123 39.4066C45.8123 40.8051 46.9431 41.9387 48.338 41.9387Z" fill="#D6A75C"/>
<path d="M58.8833 11.6645C60.2783 11.6645 61.4091 10.5309 61.4091 9.13248C61.4091 7.73405 60.2783 6.6004 58.8833 6.6004C57.4884 6.6004 56.3576 7.73405 56.3576 9.13248C56.3576 10.5309 57.4884 11.6645 58.8833 11.6645Z" fill="#D6A75C"/>
<path d="M58.8833 21.756C60.2783 21.756 61.4091 20.6223 61.4091 19.2239C61.4091 17.8255 60.2783 16.6918 58.8833 16.6918C57.4884 16.6918 56.3576 17.8255 56.3576 19.2239C56.3576 20.6223 57.4884 21.756 58.8833 21.756Z" fill="#D6A75C"/>
<path d="M58.8833 31.8474C60.2783 31.8474 61.4091 30.7137 61.4091 29.3153C61.4091 27.9169 60.2783 26.7832 58.8833 26.7832C57.4884 26.7832 56.3576 27.9169 56.3576 29.3153C56.3576 30.7137 57.4884 31.8474 58.8833 31.8474Z" fill="#D6A75C"/>
<path d="M58.8833 41.9387C60.2783 41.9387 61.4091 40.8051 61.4091 39.4066C61.4091 38.0082 60.2783 36.8746 58.8833 36.8746C57.4884 36.8746 56.3576 38.0082 56.3576 39.4066C56.3576 40.8051 57.4884 41.9387 58.8833 41.9387Z" fill="#D6A75C"/>
<path d="M69.4286 11.6645C70.8236 11.6645 71.9544 10.5309 71.9544 9.13248C71.9544 7.73405 70.8236 6.6004 69.4286 6.6004C68.0337 6.6004 66.9029 7.73405 66.9029 9.13248C66.9029 10.5309 68.0337 11.6645 69.4286 11.6645Z" fill="#D6A75C"/>
<path d="M69.4286 21.756C70.8236 21.756 71.9544 20.6223 71.9544 19.2239C71.9544 17.8255 70.8236 16.6918 69.4286 16.6918C68.0337 16.6918 66.9029 17.8255 66.9029 19.2239C66.9029 20.6223 68.0337 21.756 69.4286 21.756Z" fill="#D6A75C"/>
<path d="M69.4286 31.8474C70.8236 31.8474 71.9544 30.7137 71.9544 29.3153C71.9544 27.9169 70.8236 26.7832 69.4286 26.7832C68.0337 26.7832 66.9029 27.9169 66.9029 29.3153C66.9029 30.7137 68.0337 31.8474 69.4286 31.8474Z" fill="#D6A75C"/>
<path d="M69.4286 41.9387C70.8236 41.9387 71.9544 40.8051 71.9544 39.4066C71.9544 38.0082 70.8236 36.8746 69.4286 36.8746C68.0337 36.8746 66.9029 38.0082 66.9029 39.4066C66.9029 40.8051 68.0337 41.9387 69.4286 41.9387Z" fill="#D6A75C"/>
<path d="M79.9739 11.6645C81.3689 11.6645 82.4997 10.5309 82.4997 9.13248C82.4997 7.73405 81.3689 6.6004 79.9739 6.6004C78.579 6.6004 77.4482 7.73405 77.4482 9.13248C77.4482 10.5309 78.579 11.6645 79.9739 11.6645Z" fill="#D6A75C"/>
<path d="M79.9739 21.756C81.3689 21.756 82.4997 20.6223 82.4997 19.2239C82.4997 17.8255 81.3689 16.6918 79.9739 16.6918C78.579 16.6918 77.4482 17.8255 77.4482 19.2239C77.4482 20.6223 78.579 21.756 79.9739 21.756Z" fill="#D6A75C"/>
<path d="M79.9739 31.8474C81.3689 31.8474 82.4997 30.7137 82.4997 29.3153C82.4997 27.9169 81.3689 26.7832 79.9739 26.7832C78.579 26.7832 77.4482 27.9169 77.4482 29.3153C77.4482 30.7137 78.579 31.8474 79.9739 31.8474Z" fill="#D6A75C"/>
<path d="M79.9739 41.9387C81.3689 41.9387 82.4997 40.8051 82.4997 39.4066C82.4997 38.0082 81.3689 36.8746 79.9739 36.8746C78.579 36.8746 77.4482 38.0082 77.4482 39.4066C77.4482 40.8051 78.579 41.9387 79.9739 41.9387Z" fill="#D6A75C"/>
<path d="M90.5193 11.6645C91.9142 11.6645 93.045 10.5309 93.045 9.13248C93.045 7.73405 91.9142 6.6004 90.5193 6.6004C89.1243 6.6004 87.9935 7.73405 87.9935 9.13248C87.9935 10.5309 89.1243 11.6645 90.5193 11.6645Z" fill="#D6A75C"/>
<path d="M90.5193 21.756C91.9142 21.756 93.045 20.6223 93.045 19.2239C93.045 17.8255 91.9142 16.6918 90.5193 16.6918C89.1243 16.6918 87.9935 17.8255 87.9935 19.2239C87.9935 20.6223 89.1243 21.756 90.5193 21.756Z" fill="#D6A75C"/>
<path d="M90.5193 31.8474C91.9142 31.8474 93.045 30.7137 93.045 29.3153C93.045 27.9169 91.9142 26.7832 90.5193 26.7832C89.1243 26.7832 87.9935 27.9169 87.9935 29.3153C87.9935 30.7137 89.1243 31.8474 90.5193 31.8474Z" fill="#D6A75C"/>
<path d="M90.5193 41.9387C91.9142 41.9387 93.045 40.8051 93.045 39.4066C93.045 38.0082 91.9142 36.8746 90.5193 36.8746C89.1243 36.8746 87.9935 38.0082 87.9935 39.4066C87.9935 40.8051 89.1243 41.9387 90.5193 41.9387Z" fill="#D6A75C"/>
<path d="M235.029 151.837C236.424 151.837 237.555 150.704 237.555 149.305C237.555 147.907 236.424 146.773 235.029 146.773C233.634 146.773 232.503 147.907 232.503 149.305C232.503 150.704 233.634 151.837 235.029 151.837Z" fill="#D6A75C"/>
<path d="M235.029 161.929C236.424 161.929 237.555 160.795 237.555 159.397C237.555 157.998 236.424 156.865 235.029 156.865C233.634 156.865 232.503 157.998 232.503 159.397C232.503 160.795 233.634 161.929 235.029 161.929Z" fill="#D6A75C"/>
<path d="M235.029 172.02C236.424 172.02 237.555 170.886 237.555 169.488C237.555 168.09 236.424 166.956 235.029 166.956C233.634 166.956 232.503 168.09 232.503 169.488C232.503 170.886 233.634 172.02 235.029 172.02Z" fill="#D6A75C"/>
<path d="M245.574 151.837C246.969 151.837 248.1 150.704 248.1 149.305C248.1 147.907 246.969 146.773 245.574 146.773C244.179 146.773 243.049 147.907 243.049 149.305C243.049 150.704 244.179 151.837 245.574 151.837Z" fill="#D6A75C"/>
<path d="M245.574 161.929C246.969 161.929 248.1 160.795 248.1 159.397C248.1 157.998 246.969 156.865 245.574 156.865C244.179 156.865 243.049 157.998 243.049 159.397C243.049 160.795 244.179 161.929 245.574 161.929Z" fill="#D6A75C"/>
<path d="M245.574 172.02C246.969 172.02 248.1 170.886 248.1 169.488C248.1 168.09 246.969 166.956 245.574 166.956C244.179 166.956 243.049 168.09 243.049 169.488C243.049 170.886 244.179 172.02 245.574 172.02Z" fill="#D6A75C"/>
<path d="M256.12 151.837C257.515 151.837 258.645 150.704 258.645 149.305C258.645 147.907 257.515 146.773 256.12 146.773C254.725 146.773 253.594 147.907 253.594 149.305C253.594 150.704 254.725 151.837 256.12 151.837Z" fill="#D6A75C"/>
<path d="M256.12 161.929C257.515 161.929 258.645 160.795 258.645 159.397C258.645 157.998 257.515 156.865 256.12 156.865C254.725 156.865 253.594 157.998 253.594 159.397C253.594 160.795 254.725 161.929 256.12 161.929Z" fill="#D6A75C"/>
<path d="M256.12 172.02C257.515 172.02 258.645 170.886 258.645 169.488C258.645 168.09 257.515 166.956 256.12 166.956C254.725 166.956 253.594 168.09 253.594 169.488C253.594 170.886 254.725 172.02 256.12 172.02Z" fill="#D6A75C"/>
<path d="M266.665 151.837C268.06 151.837 269.191 150.704 269.191 149.305C269.191 147.907 268.06 146.773 266.665 146.773C265.27 146.773 264.139 147.907 264.139 149.305C264.139 150.704 265.27 151.837 266.665 151.837Z" fill="#D6A75C"/>
<path d="M266.665 161.929C268.06 161.929 269.191 160.795 269.191 159.397C269.191 157.998 268.06 156.865 266.665 156.865C265.27 156.865 264.139 157.998 264.139 159.397C264.139 160.795 265.27 161.929 266.665 161.929Z" fill="#D6A75C"/>
<path d="M266.665 172.02C268.06 172.02 269.191 170.886 269.191 169.488C269.191 168.09 268.06 166.956 266.665 166.956C265.27 166.956 264.139 168.09 264.139 169.488C264.139 170.886 265.27 172.02 266.665 172.02Z" fill="#D6A75C"/>
</svg>
