<svg width="221" height="207" viewBox="0 0 221 207" fill="none" xmlns="http://www.w3.org/2000/svg">
<g clip-path="url(#clip0_288_55)">
<path d="M204.293 158.361L214.207 159.913C217.563 155.844 219.877 151.015 220.947 145.848C213.697 151.791 202.673 148.632 193.882 151.877C191.148 152.91 188.682 154.546 186.665 156.663C184.648 158.781 183.133 161.326 182.232 164.109L177.386 169.33C181.772 171.068 186.482 171.834 191.192 171.575C195.902 171.315 200.5 170.036 204.669 167.825C206.995 166.562 209.153 165.01 211.093 163.207C207.624 161.02 204.293 158.361 204.293 158.361Z" fill="#AD7ECD"/>
<path d="M200.774 142.482L210.338 139.443C211.53 134.302 211.45 128.947 210.107 123.844C206.265 132.401 194.991 134.498 188.568 141.328C186.581 143.474 185.102 146.04 184.239 148.836C183.377 151.632 183.154 154.586 183.587 157.48L181.576 164.317C186.276 163.914 190.832 162.496 194.932 160.16C199.032 157.824 202.578 154.625 205.325 150.785C206.844 148.615 208.085 146.263 209.018 143.782C204.939 143.374 200.774 142.482 200.774 142.482Z" fill="#D89EFF"/>
<path d="M157.5 85.5C157.5 121.951 127.951 151.5 91.5 151.5C55.0492 151.5 25.5 121.951 25.5 85.5C25.5 49.0492 55.0492 19.5 91.5 19.5C127.951 19.5 157.5 49.0492 157.5 85.5Z" stroke="#E6E6E6" stroke-width="3"/>
<path d="M125.553 131.687L125.543 131.694C125.071 132.048 124.585 132.397 124.09 132.739L124.085 132.743C114.447 139.452 102.991 143.047 91.2553 143.047C79.5192 143.047 68.0635 139.452 58.4261 132.743L58.4206 132.739C57.9261 132.397 57.44 132.048 56.9675 131.694L56.9592 131.688C49.7572 126.329 43.9066 119.356 39.8756 111.327C35.8446 103.298 33.745 94.4361 33.745 85.449C33.745 76.462 35.8446 67.5997 39.8756 59.5708C43.9066 51.5419 49.7572 44.5692 56.9592 39.21L56.9593 39.21L56.9675 39.2038C57.4401 38.8496 57.9261 38.5014 58.4206 38.1588L58.4261 38.155C68.0635 31.4461 79.5192 27.8506 91.2553 27.8506C102.991 27.8506 114.447 31.4461 124.085 38.155L124.09 38.1588C124.585 38.5014 125.071 38.8497 125.543 39.2038L125.553 39.2113C132.76 44.5655 138.613 51.5366 142.645 59.5659C146.676 67.5953 148.772 76.4592 148.766 85.4468V85.4513C148.772 94.4388 146.676 103.303 142.645 111.332C138.613 119.361 132.76 126.333 125.553 131.687Z" stroke="white" stroke-width="6"/>
<path d="M144.532 85.449C144.532 114.92 120.677 138.806 91.2553 138.806C61.834 138.806 37.9784 114.92 37.9784 85.449C37.9784 55.9777 61.834 32.0915 91.2553 32.0915C120.677 32.0915 144.532 55.9777 144.532 85.449Z" fill="#D89EFF" stroke="#D89EFF" stroke-width="4"/>
<path opacity="0.2" d="M91.3996 30.2463C90.5616 30.2463 89.7288 30.2682 88.8999 30.3052C102.871 31.5346 115.853 38.0366 125.216 48.4937C134.578 58.9508 139.622 72.5811 139.324 86.6231C139.027 100.665 133.41 114.069 123.613 124.119C113.815 134.169 100.57 140.113 86.5592 140.748C88.1546 140.886 89.7682 140.961 91.3996 140.961C106.06 140.961 120.12 135.129 130.486 124.747C140.853 114.366 146.677 100.286 146.677 85.6038C146.677 70.9221 140.853 56.8417 130.486 46.4601C120.12 36.0786 106.06 30.2463 91.3996 30.2463Z" fill="black"/>
<path d="M91.4189 26.1608C90.942 26.1617 90.4849 26.3517 90.1478 26.6894C89.8106 27.0271 89.6208 27.4849 89.6199 27.9624V35.8238C89.6199 36.3016 89.8095 36.7599 90.1468 37.0977C90.4842 37.4356 90.9418 37.6254 91.4189 37.6254C91.896 37.6254 92.3536 37.4356 92.6909 37.0977C93.0283 36.7599 93.2178 36.3016 93.2178 35.8238V27.9624C93.217 27.4849 93.0272 27.0271 92.69 26.6894C92.3528 26.3517 91.8957 26.1617 91.4189 26.1608Z" fill="#CCCCCC"/>
<path d="M127.342 36.8032C126.835 36.4232 126.319 36.0531 125.799 35.6928C125.487 35.6724 125.175 35.7339 124.893 35.8712C124.612 36.0085 124.372 36.2168 124.196 36.4756L119.777 42.9711C119.509 43.366 119.408 43.8515 119.497 44.3208C119.586 44.7901 119.857 45.2048 120.251 45.4737C120.646 45.7426 121.13 45.8436 121.599 45.7545C122.068 45.6654 122.482 45.3936 122.75 44.9987L127.169 38.5032C127.337 38.2568 127.441 37.9722 127.471 37.6753C127.502 37.3784 127.457 37.0786 127.342 36.8032Z" fill="#CCCCCC"/>
<path d="M147.419 66.4211C147.33 66.2021 147.199 66.0028 147.033 65.8345C146.867 65.6663 146.67 65.5324 146.452 65.4405C146.235 65.3486 146.002 65.3006 145.765 65.2991C145.529 65.2976 145.295 65.3427 145.077 65.4319L137.802 68.3897C137.361 68.5698 137.009 68.9182 136.824 69.3581C136.638 69.7981 136.635 70.2937 136.815 70.7361C136.994 71.1784 137.342 71.5313 137.781 71.7173C138.22 71.9032 138.715 71.9069 139.157 71.7275L146.431 68.7697C146.872 68.5886 147.224 68.2399 147.409 67.7997C147.594 67.3595 147.598 66.8638 147.419 66.4211Z" fill="#CCCCCC"/>
<path d="M62.7337 42.9711L58.3148 36.4756C58.1388 36.2168 57.8983 36.0085 57.6172 35.8712C57.3362 35.7339 57.0242 35.6724 56.7121 35.6928C56.1921 36.0531 55.6753 36.4232 55.1683 36.8032C55.0534 37.0786 55.009 37.3784 55.0393 37.6753C55.0696 37.9722 55.1735 38.2568 55.3417 38.5032L59.7605 44.9987C60.029 45.3936 60.4431 45.6654 60.9118 45.7545C61.3804 45.8436 61.8652 45.7426 62.2595 45.4737C62.6537 45.2048 62.9252 44.7901 63.0141 44.3208C63.1031 43.8515 63.0022 43.366 62.7337 42.9711Z" fill="#CCCCCC"/>
<path d="M44.7082 68.3897L37.4339 65.4319C36.9919 65.2521 36.4968 65.2556 36.0574 65.4414C35.6179 65.6272 35.2702 65.9803 35.0906 66.4228C34.9111 66.8654 34.9144 67.3613 35.0999 67.8014C35.2854 68.2415 35.6379 68.5898 36.0798 68.7697L43.3541 71.7275C43.796 71.9068 44.2909 71.9031 44.73 71.7172C45.1692 71.5313 45.5166 71.1784 45.6961 70.736C45.8756 70.2937 45.8723 69.7981 45.6871 69.3581C45.5018 68.9181 45.1498 68.5698 44.7082 68.3897Z" fill="#CCCCCC"/>
<path d="M91.4189 133.273C90.942 133.273 90.4849 133.464 90.1478 133.801C89.8106 134.139 89.6208 134.597 89.6199 135.074V142.936C89.6199 143.413 89.8095 143.872 90.1468 144.21C90.4842 144.547 90.9418 144.737 91.4189 144.737C91.896 144.737 92.3536 144.547 92.6909 144.21C93.0283 143.872 93.2178 143.413 93.2178 142.936V135.074C93.217 134.597 93.0272 134.139 92.69 133.801C92.3528 133.464 91.8957 133.273 91.4189 133.273Z" fill="#CCCCCC"/>
<path d="M127.169 132.395L122.75 125.899C122.617 125.704 122.447 125.536 122.25 125.407C122.052 125.277 121.831 125.188 121.599 125.144C121.367 125.099 121.128 125.102 120.897 125.15C120.666 125.198 120.446 125.291 120.251 125.424C120.056 125.557 119.889 125.728 119.759 125.926C119.63 126.123 119.541 126.345 119.497 126.577C119.452 126.81 119.455 127.048 119.503 127.28C119.551 127.512 119.644 127.731 119.777 127.927L124.196 134.422C124.372 134.681 124.612 134.89 124.893 135.027C125.175 135.164 125.486 135.226 125.799 135.205C126.319 134.845 126.835 134.475 127.342 134.095C127.457 133.819 127.502 133.52 127.471 133.223C127.441 132.926 127.337 132.641 127.169 132.395Z" fill="#CCCCCC"/>
<path d="M146.431 102.128L139.157 99.1704C138.715 98.9907 138.22 98.9941 137.78 99.18C137.341 99.3658 136.993 99.7189 136.813 100.161C136.634 100.604 136.637 101.1 136.823 101.54C137.008 101.98 137.361 102.328 137.802 102.508L145.077 105.466C145.519 105.645 146.014 105.642 146.453 105.456C146.892 105.27 147.239 104.917 147.419 104.475C147.598 104.032 147.595 103.537 147.41 103.097C147.225 102.657 146.872 102.308 146.431 102.128Z" fill="#CCCCCC"/>
<path d="M62.2594 125.424C61.8651 125.156 61.3804 125.055 60.9118 125.144C60.4432 125.233 60.0291 125.505 59.7606 125.899L55.3417 132.395C55.1735 132.641 55.0696 132.926 55.0393 133.223C55.009 133.52 55.0534 133.819 55.1683 134.095C55.6753 134.475 56.1921 134.845 56.7121 135.205C57.0242 135.226 57.3362 135.164 57.6172 135.027C57.8983 134.89 58.1388 134.681 58.3149 134.422L62.7337 127.927C62.8667 127.731 62.9599 127.512 63.008 127.28C63.0561 127.048 63.0582 126.81 63.0142 126.577C62.9701 126.345 62.8808 126.123 62.7513 125.926C62.6218 125.728 62.4547 125.557 62.2594 125.424Z" fill="#CCCCCC"/>
<path d="M45.696 100.16C45.6072 99.9407 45.4761 99.7414 45.3103 99.5731C45.1445 99.4048 44.9472 99.271 44.7297 99.1791C44.5122 99.0872 44.2788 99.0392 44.0428 99.0377C43.8067 99.0362 43.5727 99.0813 43.3541 99.1704L36.0798 102.128C35.6382 102.308 35.2861 102.657 35.1009 103.097C34.9156 103.537 34.9124 104.032 35.0919 104.475C35.2713 104.917 35.6188 105.27 36.058 105.456C36.4971 105.642 36.992 105.645 37.4339 105.466L44.7082 102.508C45.1495 102.327 45.5013 101.978 45.6864 101.538C45.8716 101.098 45.875 100.602 45.696 100.16Z" fill="#CCCCCC"/>
<path d="M93.753 84.5551C93.9191 85.5398 93.6884 86.5504 93.1115 87.365C92.5345 88.1796 91.6585 88.7318 90.6756 88.9004L58.7529 94.3383C58.2659 94.4212 57.7674 94.4073 57.2858 94.2973C56.8042 94.1873 56.349 93.9834 55.9461 93.6972C55.5432 93.4111 55.2005 93.0482 54.9376 92.6294C54.6747 92.2106 54.4968 91.744 54.414 91.2563C54.3311 90.7687 54.345 90.2694 54.4549 89.7871C54.5647 89.3048 54.7683 88.8489 55.0541 88.4454C55.3398 88.0419 55.7021 87.6987 56.1203 87.4355C56.5385 87.1722 57.0044 86.994 57.4914 86.9111L89.4141 81.4732C90.3974 81.3068 91.4064 81.5379 92.2199 82.1156C93.0333 82.6934 93.5847 83.5707 93.753 84.5551Z" fill="white"/>
<path d="M127.351 119.974C126.892 120.436 126.269 120.697 125.619 120.7C124.969 120.702 124.344 120.446 123.882 119.988L89.5173 85.8436C89.0561 85.3846 88.7958 84.7609 88.7935 84.1098C88.7913 83.4586 89.0473 82.8332 89.5052 82.3709C89.9632 81.9087 90.5856 81.6474 91.2359 81.6446C91.8861 81.6417 92.5108 81.8975 92.9728 82.3557L127.337 116.5C127.798 116.959 128.059 117.583 128.061 118.234C128.064 118.886 127.808 119.511 127.351 119.974Z" fill="white"/>
<path d="M91.2553 89.7073C93.6037 89.7073 95.5074 87.8008 95.5074 85.449C95.5074 83.0972 93.6037 81.1907 91.2553 81.1907C88.907 81.1907 87.0033 83.0972 87.0033 85.449C87.0033 87.8008 88.907 89.7073 91.2553 89.7073Z" fill="#D6A75C"/>
<path d="M61.2423 17.4087L61.0231 17.5731L60.8762 17.8045C54.5737 27.7274 44.9268 34.3745 32.8615 38.776L32.653 38.852L32.4755 38.9852C32.3905 39.0489 32.2938 39.0952 32.1912 39.1215C32.0885 39.1478 31.9817 39.1535 31.8768 39.1384C31.772 39.1234 31.671 39.0877 31.5797 39.0335C31.4884 38.9793 31.4085 38.9075 31.3447 38.8222C25.1458 30.5334 26.5679 18.7186 34.7008 12.422C36.672 10.8986 38.9257 9.78261 41.3309 9.13869C43.7363 8.49473 46.2454 8.3357 48.7126 8.6708C51.1798 9.0059 53.5561 9.82848 55.7034 11.0909C57.8506 12.3532 59.7262 14.0301 61.2212 16.0244C61.2213 16.0245 61.2215 16.0247 61.2216 16.0249L61.4051 16.2702C61.4689 16.3556 61.5154 16.4528 61.5419 16.5564C61.5683 16.66 61.5741 16.7678 61.5589 16.8737C61.5437 16.9795 61.5079 17.0813 61.4535 17.1731C61.3992 17.2649 61.3274 17.3449 61.2423 17.4087Z" fill="#D6A75C" stroke="#D6A75C" stroke-width="3"/>
<path d="M148.592 38.9852L148.424 38.8595L148.229 38.7845C137.124 34.5268 127.973 27.1448 120.078 17.6496L119.966 17.5143L119.825 17.4087C119.653 17.2799 119.539 17.0876 119.508 16.8737C119.478 16.6598 119.533 16.4427 119.662 16.2703C119.662 16.2702 119.662 16.2702 119.662 16.2702L119.846 16.0248C119.846 16.0246 119.846 16.0245 119.846 16.0243C121.341 14.03 123.217 12.3531 125.364 11.0909C127.511 9.82848 129.887 9.00591 132.355 8.6708C134.822 8.3357 137.331 8.49473 139.736 9.13869C142.141 9.78253 144.395 10.8983 146.366 12.4215C154.499 18.718 155.922 30.5332 149.722 38.8222C149.659 38.9075 149.579 38.9793 149.487 39.0335C149.396 39.0877 149.295 39.1234 149.19 39.1384C149.085 39.1535 148.979 39.1478 148.876 39.1215C148.773 39.0952 148.677 39.0489 148.592 38.9852Z" fill="#D6A75C" stroke="#D6A75C" stroke-width="3"/>
<path d="M116.789 146.185C116.432 146.375 116.169 146.691 116.058 147.064C115.947 147.437 115.996 147.836 116.196 148.175L125.108 163.252C125.308 163.591 125.642 163.84 126.036 163.945C126.43 164.05 126.852 164.003 127.21 163.814C127.567 163.625 127.83 163.309 127.942 162.935C128.053 162.562 128.003 162.163 127.804 161.824L118.891 146.747C118.69 146.409 118.357 146.16 117.963 146.055C117.569 145.95 117.147 145.997 116.789 146.185Z" fill="#D6A75C"/>
<path d="M63.3491 146.748L55.1801 161.825C54.9969 162.163 54.9513 162.563 55.0533 162.936C55.1554 163.309 55.3967 163.625 55.7242 163.814C56.0518 164.003 56.4387 164.05 56.8 163.945C57.1612 163.84 57.4672 163.591 57.6505 163.252L65.8196 148.176C65.9104 148.008 65.9684 147.824 65.9902 147.633C66.012 147.443 65.9973 147.25 65.9468 147.065C65.8963 146.88 65.811 146.707 65.6959 146.557C65.5808 146.406 65.438 146.28 65.2758 146.186C65.1135 146.092 64.935 146.033 64.7504 146.01C64.5657 145.988 64.3786 146.003 64.1997 146.055C64.0208 146.107 63.8536 146.195 63.7077 146.314C63.5617 146.433 63.4399 146.581 63.3491 146.748Z" fill="#D6A75C"/>
<path d="M133.257 166.684C133.257 168.933 131.437 170.752 129.197 170.752C126.956 170.752 125.137 168.933 125.137 166.684C125.137 164.435 126.956 162.615 129.197 162.615C131.437 162.615 133.257 164.435 133.257 166.684Z" stroke="#D6A75C" stroke-width="3"/>
<path d="M135.564 31.1939C135.564 33.4429 133.744 35.2624 131.503 35.2624C129.263 35.2624 127.443 33.4429 127.443 31.1939C127.443 28.9448 129.263 27.1254 131.503 27.1254C133.744 27.1254 135.564 28.9448 135.564 31.1939Z" fill="black" stroke="#D6A75C" stroke-width="3"/>
<path d="M90.9282 16.6616C93.9992 16.6616 96.4887 14.1685 96.4887 11.0931C96.4887 8.0177 93.9992 5.5246 90.9282 5.5246C87.8573 5.5246 85.3678 8.0177 85.3678 11.0931C85.3678 14.1685 87.8573 16.6616 90.9282 16.6616Z" fill="#D6A75C"/>
<path d="M54.6208 30.5685C54.6208 32.8175 52.8008 34.637 50.5604 34.637C48.32 34.637 46.5 32.8175 46.5 30.5685C46.5 28.3195 48.32 26.5 50.5604 26.5C52.8008 26.5 54.6208 28.3195 54.6208 30.5685Z" fill="black" stroke="#D6A75C" stroke-width="3"/>
<path d="M58.3554 166.684C58.3554 168.933 56.5354 170.752 54.295 170.752C52.0545 170.752 50.2346 168.933 50.2346 166.684C50.2346 164.435 52.0545 162.615 54.295 162.615C56.5354 162.615 58.3554 164.435 58.3554 166.684Z" stroke="#D6A75C" stroke-width="3"/>
<path d="M124.835 116.843C125.055 117.186 125.346 117.478 125.69 117.696C126.034 117.915 126.421 118.055 126.825 118.108C127.229 118.16 127.639 118.123 128.028 117.999C128.416 117.876 128.772 117.668 129.071 117.392L137.796 122.074L137.328 116.944L129.115 113.284C128.618 112.811 127.964 112.537 127.279 112.515C126.594 112.492 125.924 112.721 125.397 113.16C124.869 113.599 124.521 114.216 124.417 114.894C124.314 115.573 124.463 116.266 124.835 116.843Z" fill="#FFB7B7"/>
<path d="M131.193 118.633L134.612 113.906L151.084 121.704L171.581 117.853C172.594 117.662 173.637 117.698 174.635 117.956C175.633 118.215 176.562 118.69 177.356 119.349C178.149 120.007 178.789 120.833 179.228 121.767C179.668 122.7 179.897 123.72 179.899 124.752C179.9 126.617 179.163 128.406 177.849 129.727C176.535 131.048 174.751 131.793 172.889 131.798L149.399 131.842L131.193 118.633Z" fill="#3F3D56"/>
<path d="M125.927 200.269L122.467 198.613L127.219 184.132L132.325 186.577L125.927 200.269Z" fill="#FFB7B7"/>
<path d="M149.119 197.935C148.867 198.093 148.616 198.248 148.361 198.403C147.856 198.714 147.345 199.019 146.834 199.319C146.578 199.469 146.318 199.62 146.062 199.767V199.775L146.047 199.777L146.042 199.78L145.65 199.877L145.089 198.39L144.829 197.706L144.464 196.736L143.793 194.963L140.261 185.624L145.752 184.267L145.958 185.11H145.96L146.062 185.527L147.98 193.319L148.372 194.912L148.384 194.96L148.621 195.912L148.824 196.736L149.05 197.658L149.119 197.935Z" fill="#FFB7B7"/>
<path d="M181.875 165.138C181.527 165.698 181.172 166.255 180.813 166.807C180.148 167.835 179.464 168.848 178.763 169.846C178.763 169.848 178.76 169.848 178.758 169.851C178.348 170.23 177.897 170.561 177.411 170.836C177.391 170.851 177.368 170.861 177.347 170.874C176.99 171.072 176.609 171.225 176.214 171.329C176.072 171.365 175.927 171.401 175.785 171.436C175.271 171.558 174.763 171.663 174.257 171.754C173.358 171.915 172.469 172.029 171.584 172.1C171.513 172.108 171.442 172.113 171.371 172.118C167.735 172.385 164.195 171.955 160.5 171.25C158.676 170.904 156.813 170.49 154.885 170.06C154.255 169.917 153.622 169.777 152.982 169.637C152.933 169.627 152.882 169.614 152.832 169.604C151.917 169.403 150.987 169.204 150.034 169.009C148.835 168.762 147.597 168.523 146.311 168.296L146.403 170.11C146.479 171.506 146.769 172.882 147.262 174.19C147.811 175.798 148.245 177.07 147.328 179.719L146.886 181.002C147.115 181.639 147.194 182.32 147.115 182.993C147.037 183.665 146.805 184.31 146.436 184.877L146.347 185.012L150.034 194.354L150.273 194.96H148.385L146.062 194.962H142.126L136.447 183.552L136.175 183.007V182.979L136.762 161.051C136.77 160.858 136.785 160.662 136.811 160.468C136.914 159.589 137.191 158.74 137.626 157.969C138.061 157.198 138.645 156.522 139.344 155.98C140.013 155.456 140.78 155.07 141.6 154.846C142.42 154.621 143.276 154.562 144.118 154.672L146.062 154.924L150.034 155.438L152.832 155.801L152.888 155.809L161.138 156.878L161.73 154.46L161.84 154.42L165.313 153.145L177.327 148.735L177.358 148.725L178.148 148.435L178.242 148.587C178.27 148.633 178.298 148.679 178.323 148.725C179.104 150.127 179.74 151.605 180.221 153.137C181.03 155.639 181.696 158.186 182.216 160.764C182.239 160.876 182.259 160.977 182.277 161.069L182.285 161.097C182.292 161.14 182.297 161.168 182.3 161.176C182.577 162.331 182.384 163.741 181.875 165.138Z" fill="#2F2E41"/>
<path d="M182.383 157.057C182.344 156.894 182.296 156.729 182.245 156.568C181.842 155.354 181.372 154.163 180.838 153.001C180.238 151.677 179.519 150.26 178.663 148.726C178.248 147.983 177.803 147.21 177.326 146.407C177.087 146.005 176.839 145.596 176.581 145.178C176.571 145.159 176.56 145.14 176.548 145.122L176.475 145L164.588 146.593L160.161 147.186L159.897 149.395L159.834 149.942C159.831 149.942 159.831 149.942 159.834 149.945L159.656 151.436V151.438L159.419 153.408L159.399 153.405L152.831 152.553L146.061 151.675L142.425 151.204C141.582 151.094 140.726 151.153 139.907 151.378C139.087 151.602 138.32 151.988 137.65 152.512C136.952 153.055 136.368 153.731 135.933 154.502C135.498 155.272 135.221 156.122 135.117 157.001C135.094 157.179 135.079 157.362 135.071 157.543L131.641 165.684C129.588 170.552 128.281 175.703 127.763 180.962L125.248 189.016L125.606 189.049L130.937 189.545L132.345 189.678L135.445 185.146C135.798 184.629 136.133 184.097 136.446 183.553C136.961 182.663 137.418 181.742 137.816 180.794L144.521 164.813C145.04 164.902 145.553 164.987 146.061 165.068C148.412 165.45 150.668 165.761 152.83 166.002C159.861 166.788 165.95 166.849 171.37 166.182C172.892 165.997 174.363 165.752 175.784 165.45C176.304 165.34 176.819 165.222 177.326 165.096C177.445 165.068 177.562 165.04 177.679 165.009C178.729 164.738 179.695 164.207 180.487 163.466C181.28 162.724 181.874 161.796 182.215 160.765C182.622 159.57 182.68 158.284 182.383 157.057Z" fill="#2F2E41"/>
<path d="M127.032 197.905L123.289 196.108L122.702 195.826L121.764 198.131L115.218 199.574C114.895 199.645 114.602 199.818 114.384 200.067C114.165 200.317 114.032 200.63 114.003 200.96C113.975 201.291 114.053 201.622 114.226 201.905C114.399 202.188 114.657 202.408 114.964 202.534L121.36 205.147L123.39 203.317L122.892 205.773L125.301 206.758L127.941 198.343L127.032 197.905Z" fill="#2F2E41"/>
<path d="M150.034 194.354L150.273 194.96H150.034V194.354Z" fill="#2F2E41"/>
<path d="M148.73 195.089L144.809 196.45L144.193 196.663L145.147 198.962L141.509 204.599C141.329 204.878 141.243 205.207 141.263 205.538C141.282 205.869 141.408 206.185 141.62 206.44C141.832 206.695 142.12 206.876 142.441 206.955C142.763 207.034 143.102 207.008 143.408 206.881L149.789 204.232L149.946 201.501L151.317 203.597L153.721 202.599L149.684 194.759L148.73 195.089Z" fill="#2F2E41"/>
<path d="M181.404 160.744C181.172 160.743 180.942 160.686 180.736 160.578L160.04 149.748L159.801 148.767L159.35 145.665L159.357 145.636L161.325 136.548C161.289 136.47 161.213 136.342 161.128 136.198C160.25 134.707 157.575 130.169 162.679 123.921L171.64 113.459L179.33 113.127L179.418 113.238C181.474 115.823 182.861 118.876 183.455 122.127C184.049 125.378 183.832 128.726 182.823 131.872L182.022 146.356L182.881 149.281C183.383 151 183.3 152.837 182.645 154.504L182.842 159.24C182.849 159.434 182.818 159.628 182.749 159.809C182.681 159.991 182.576 160.157 182.442 160.297C182.308 160.438 182.147 160.55 181.969 160.626C181.79 160.703 181.598 160.743 181.404 160.744Z" fill="#3F3D56"/>
<path d="M163.452 172.689C163.803 172.481 164.104 172.199 164.334 171.863C164.564 171.526 164.717 171.143 164.784 170.741C164.85 170.339 164.827 169.927 164.718 169.534C164.608 169.141 164.413 168.777 164.148 168.468L169.123 159.898L163.988 160.188L160.05 168.282C159.561 168.763 159.265 169.407 159.218 170.092C159.171 170.777 159.377 171.455 159.797 171.999C160.216 172.542 160.82 172.912 161.493 173.039C162.167 173.166 162.864 173.042 163.452 172.689Z" fill="#FFB7B7"/>
<path d="M165.46 166.388L160.862 162.802L169.217 146.587L166.086 125.938C165.932 124.918 166.003 123.875 166.296 122.886C166.589 121.896 167.095 120.982 167.78 120.211C168.465 119.439 169.311 118.828 170.258 118.42C171.205 118.013 172.23 117.819 173.261 117.853C175.122 117.917 176.881 118.717 178.154 120.078C179.426 121.439 180.108 123.251 180.048 125.114L179.275 148.626L165.46 166.388Z" fill="#3F3D56"/>
<path d="M166.707 109.111V101.49C166.705 98.7817 167.778 96.1834 169.689 94.267C171.6 92.3506 174.193 91.273 176.898 91.2712C179.602 91.2695 182.197 92.3438 184.11 94.2577C186.024 96.1717 187.1 98.7685 187.102 101.477V101.49C188.899 105.241 187.775 107.024 187.102 109.111C187.101 109.475 186.957 109.823 186.7 110.08C186.443 110.337 186.095 110.482 185.732 110.483H168.077C167.713 110.482 167.365 110.338 167.109 110.081C166.852 109.823 166.707 109.475 166.707 109.111Z" fill="#2F2E41"/>
<path d="M173.561 109.987C177.776 109.987 181.194 106.565 181.194 102.343C181.194 98.1211 177.776 94.6987 173.561 94.6987C169.345 94.6987 165.927 98.1211 165.927 102.343C165.927 106.565 169.345 109.987 173.561 109.987Z" fill="#FFB7B7"/>
<path d="M181.549 104.347C181.48 104.336 181.411 104.321 181.342 104.31C180.151 104.099 178.96 103.891 177.773 103.676L177.664 100.981L176.226 103.395C172.945 104.486 169.876 103.869 166.988 102.509C166.036 102.056 165.112 101.546 164.221 100.981C164.463 99.4909 165.036 98.0737 165.895 96.8333C166.755 95.593 167.881 94.5608 169.191 93.8123C169.3 93.7503 169.406 93.6957 169.515 93.6409L169.516 93.6407L169.518 93.6399L169.518 93.6387L169.519 93.6373C169.704 93.5498 169.894 93.4659 170.083 93.3893C171.565 92.8092 173.182 92.6623 174.744 92.9657C176.306 93.269 177.751 94.0103 178.909 95.1032C181.24 97.3312 182.288 101.01 181.549 104.347Z" fill="#2F2E41"/>
</g>
<defs>
<clipPath id="clip0_288_55">
<rect width="221" height="207" fill="white"/>
</clipPath>
</defs>
</svg>
