<svg width="261" height="228" viewBox="0 0 261 228" fill="none" xmlns="http://www.w3.org/2000/svg">
<g clip-path="url(#clip0_345_301)">
<path d="M43.2903 79.371C42.6796 79.4327 42.0652 79.447 41.4523 79.414C41.3479 79.4025 41.2431 79.4327 41.1606 79.4978C41.078 79.563 41.0244 79.6581 41.0111 79.7625L39.8387 88.5715C39.7485 89.2109 39.4872 89.814 39.0824 90.3166C38.7487 90.7166 38.5006 91.181 38.3535 91.6811C38.2065 92.1811 38.1637 92.7061 38.2277 93.2235V108.187C38.2277 108.187 38.1521 110.182 39.6824 110.182C41.514 110.413 43.3672 110.413 45.1988 110.182C45.1988 110.182 46.4241 109.95 46.4241 108.109V93.375C46.5176 92.8609 46.4984 92.3327 46.3678 91.8268C46.2372 91.321 45.9983 90.8496 45.6678 90.4454C45.2765 89.9409 45.0236 89.3429 44.9341 88.7104L43.7164 79.717C43.7025 79.6159 43.6508 79.5239 43.5717 79.4596C43.4925 79.3954 43.3919 79.3637 43.2903 79.371Z" fill="white"/>
<path d="M42.4353 110.607C41.5096 110.607 40.5847 110.55 39.6662 110.435C39.4609 110.44 39.2569 110.402 39.0669 110.324C38.8769 110.246 38.705 110.13 38.5621 109.982C37.9393 109.334 37.9739 108.224 37.9757 108.177L37.9756 93.2388C37.9106 92.6895 37.958 92.1328 38.1151 91.6025C38.2721 91.0722 38.5354 90.5796 38.8889 90.1547C39.2636 89.6882 39.5055 89.129 39.589 88.5362L40.7612 79.7291C40.784 79.5597 40.8718 79.4058 41.0059 79.3002C41.14 79.1945 41.31 79.1452 41.4797 79.1629C42.075 79.1944 42.6719 79.1799 43.2651 79.1198L43.2721 79.1191C43.4376 79.1071 43.6015 79.1587 43.7304 79.2634C43.8593 79.3681 43.9436 79.518 43.9661 79.6827L45.184 88.6765C45.2677 89.2648 45.503 89.821 45.8668 90.2903C46.2172 90.7192 46.471 91.2189 46.6107 91.7552C46.7504 92.2915 46.7728 92.8517 46.6763 93.3974V108.109C46.6763 110.136 45.2601 110.428 45.2457 110.43C44.3135 110.548 43.3748 110.607 42.4353 110.607ZM41.418 79.6651C41.3805 79.6633 41.3437 79.6755 41.3147 79.6994C41.2857 79.7233 41.2667 79.7571 41.2612 79.7943L40.0886 88.6048C39.9922 89.2901 39.7123 89.9365 39.2786 90.4752C38.9668 90.8492 38.735 91.2833 38.5973 91.7507C38.4595 92.218 38.4189 92.7086 38.4779 93.1923L38.4798 93.2234V108.187C38.4793 108.206 38.4525 109.141 38.9265 109.633C39.0246 109.733 39.1426 109.811 39.2728 109.862C39.4031 109.913 39.5427 109.936 39.6824 109.93L39.7139 109.932C41.5246 110.159 43.3566 110.159 45.1674 109.932C45.1913 109.926 46.172 109.702 46.172 108.109L46.1761 93.3297C46.2634 92.8517 46.2457 92.3603 46.1242 91.8899C46.0028 91.4194 45.7804 90.9811 45.4727 90.6054C45.0527 90.0649 44.781 89.4239 44.6846 88.7458L43.4666 79.7509C43.4612 79.714 43.4423 79.6804 43.4136 79.6567C43.3848 79.633 43.3483 79.6209 43.3111 79.6228C42.689 79.6851 42.0631 79.6996 41.4388 79.6662C41.4319 79.6654 41.425 79.6651 41.418 79.6651Z" fill="#3F3D56"/>
<path d="M41.4397 93.4911H43.2978C44.0367 93.4911 44.7453 93.7851 45.2678 94.3085C45.7903 94.8318 46.0838 95.5416 46.0838 96.2818V103.285C46.0838 104.025 45.7903 104.735 45.2678 105.258C44.7453 105.782 44.0367 106.076 43.2978 106.076H41.4397C40.7008 106.076 39.9922 105.782 39.4698 105.258C38.9473 104.735 38.6538 104.025 38.6538 103.285V96.2818C38.6538 95.9153 38.7258 95.5524 38.8658 95.2138C39.0059 94.8752 39.2111 94.5676 39.4698 94.3085C39.7285 94.0493 40.0356 93.8438 40.3736 93.7035C40.7116 93.5633 41.0739 93.4911 41.4397 93.4911Z" fill="#D89EFF"/>
<path d="M7.27878 222.118H13.3367L16.2187 198.711L7.27771 198.712L7.27878 222.118Z" fill="#9F616A"/>
<path d="M5.73358 220.136L17.6639 220.136H17.6643C19.6807 220.136 21.6145 220.939 23.0402 222.367C24.466 223.795 25.2671 225.732 25.2672 227.752V227.999L5.73394 228L5.73358 220.136Z" fill="#2F2E41"/>
<path d="M3.47033 138.516C3.47033 138.516 0.844864 141.489 5.19223 153.078L4.42648 216.62L18.515 216.345L21.6118 185.349L27.2501 140.118L3.47033 138.516Z" fill="#2F2E41"/>
<path d="M32.082 147.302L31.9278 147.278C13.9047 144.525 0.304229 141.885 0.168952 141.859L0 141.826L4.72461 130.315C4.68728 129.112 3.66457 95.335 5.62237 85.6306C7.51764 76.2361 16.4513 74.6965 17.4694 74.5517L18.4916 71.1589L31.406 77.8904L33.6583 85.6555L34.1158 106.938L32.082 147.302Z" fill="#3F3D56"/>
<path d="M39.8602 103.498C39.2786 103.498 38.7034 103.618 38.1705 103.852C37.6377 104.085 37.1588 104.427 36.7641 104.854H15.0572L7.10602 106.55L8.41147 116.636L36.6959 110.543C37.1642 111.072 37.7575 111.476 38.4217 111.717C39.0858 111.958 39.7997 112.029 40.498 111.922C41.1964 111.816 41.857 111.536 42.4196 111.108C42.9821 110.68 43.4287 110.118 43.7186 109.472C44.0084 108.827 44.1323 108.119 44.0789 107.414C44.0254 106.708 43.7964 106.027 43.4127 105.433C43.0291 104.839 42.5029 104.351 41.8823 104.013C41.2618 103.675 40.5666 103.498 39.8602 103.498Z" fill="#9F616A"/>
<path d="M40.0485 67.3462C42.8199 62.2678 40.9567 55.9005 35.8869 53.1244C30.8172 50.3483 24.4607 52.2147 21.6894 57.2931C18.918 62.3714 20.7812 68.7387 25.8509 71.5148C30.9207 74.2909 37.2771 72.4245 40.0485 67.3462Z" fill="#9F616A"/>
<path d="M21.0297 53.9418L20.5225 52.9193L23.0745 51.6492C23.0745 51.6492 25.8897 47.0607 30.9839 48.3502C36.0782 49.6397 38.3701 50.4114 38.3701 50.4114L40.9157 51.6944L39.6381 52.9677L41.93 53.7394L40.3988 54.5015L42.1804 55.5272L41.2213 60.7856C41.2213 60.7856 39.6284 56.7973 36.5661 58.3214C33.5038 59.8455 27.9023 57.5336 27.9023 57.5336L23.0359 66.9677C23.0359 66.9677 22.0319 63.6606 20.2419 64.5424C20.2419 64.5424 15.669 57.2473 21.0297 53.9418Z" fill="#2F2E41"/>
<path d="M8.55044 118.526L6.06805 111.13L5.46759 86.4736L6.52528 82.9754C6.90598 81.7163 7.53653 80.5471 8.37913 79.538C9.22173 78.5289 10.259 77.7005 11.4289 77.1026C12.5987 76.5047 13.8771 76.1495 15.1872 76.0583C16.4974 75.9671 17.8125 76.1418 19.0536 76.572C20.2948 77.0021 21.4365 77.6788 22.4103 78.5615C23.3841 79.4443 24.17 80.5148 24.7209 81.7091C25.2717 82.9034 25.5762 84.1967 25.6161 85.5117C25.656 86.8267 25.4304 88.1362 24.953 89.3617L19.2839 103.914L19.572 104.474L31.8542 104.374L36.217 112.241L8.55044 118.526Z" fill="#3F3D56"/>
<path d="M131.436 115.487C131.894 115.178 132.279 114.772 132.564 114.297C132.849 113.823 133.026 113.292 133.084 112.741C133.141 112.19 133.078 111.634 132.897 111.111C132.717 110.587 132.424 110.11 132.04 109.712L138.094 97.7L131.16 98.5057L126.474 109.789C125.849 110.481 125.5 111.377 125.492 112.309C125.483 113.241 125.817 114.144 126.428 114.846C127.04 115.548 127.888 116.002 128.81 116.12C129.733 116.238 130.668 116.013 131.436 115.487Z" fill="#FFB7B7"/>
<path d="M179.989 200.577L174.533 200.577L171.937 179.496L179.99 179.497L179.989 200.577Z" fill="#FFB7B7"/>
<path d="M181.38 205.875L163.788 205.874V205.652C163.788 203.832 164.509 202.088 165.793 200.802C167.078 199.515 168.819 198.793 170.635 198.792H170.636L181.381 198.793L181.38 205.875Z" fill="#2F2E41"/>
<path d="M150.171 200.577L144.715 200.577L142.12 179.496L150.172 179.497L150.171 200.577Z" fill="#FFB7B7"/>
<path d="M150.228 205.875L132.635 205.874V205.652C132.635 203.832 133.357 202.088 134.641 200.802C135.925 199.515 137.666 198.793 139.483 198.792H139.483L150.228 198.793L150.228 205.875Z" fill="#2F2E41"/>
<path d="M149.724 111.542L144.384 123.866L139.978 194.703L151.104 194.258L154.143 160.489L163.517 130.413L168.906 163.943L171.131 193.366L180.337 193.765L184.006 111.542H149.724Z" fill="#2F2E41"/>
<path d="M176.42 50.728L160.941 51.1159L151.854 55.7889L151.355 90.2658L145.687 114.069C145.687 114.069 181.099 116.51 185.995 112.944L180.209 85.7505L187.969 56.362L176.42 50.728Z" fill="#D89EFF"/>
<path d="M154.244 56.3604L152.803 55.3856C152.803 55.3856 146.833 57.1779 145.069 65.1514C145.069 65.1514 143.719 69.1517 143.126 71.9021C142.447 75.0567 127.442 104.033 127.442 104.033L136.426 106.615L152.896 79.9347L154.244 56.3604Z" fill="#D89EFF"/>
<path d="M187.727 119.908C187.371 119.484 187.113 118.987 186.97 118.453C186.827 117.918 186.802 117.358 186.899 116.813C186.995 116.268 187.209 115.751 187.527 115.298C187.844 114.844 188.257 114.467 188.736 114.19L186.223 100.971L192.667 103.661L194.065 115.802C194.475 116.639 194.564 117.597 194.315 118.495C194.067 119.393 193.498 120.169 192.716 120.675C191.935 121.181 190.996 121.383 190.076 121.241C189.156 121.1 188.32 120.626 187.727 119.908Z" fill="#FFB7B7"/>
<path d="M185.64 56.7737L187.293 56.2347C187.293 56.2347 192.538 59.6064 192.039 67.7582C192.039 67.7582 192.236 71.9764 192.048 74.7838C191.833 78.0038 194.718 110.002 194.718 110.002H185.372L181.367 81.0249L185.64 56.7737Z" fill="#D89EFF"/>
<path d="M180.219 36.2636C180.219 38.3894 179.59 40.4674 178.411 42.2349C177.232 44.0025 175.556 45.3801 173.595 46.1936C171.635 47.0071 169.477 47.2199 167.396 46.8052C165.315 46.3905 163.403 45.3668 161.902 43.8637C160.402 42.3605 159.38 40.4454 158.966 38.3604C158.552 36.2755 158.764 34.1144 159.576 32.1504C160.388 30.1865 161.764 28.5078 163.528 27.3268C165.293 26.1458 167.367 25.5154 169.489 25.5154C172.328 25.5083 175.053 26.6311 177.065 28.6367C179.078 30.6423 180.212 33.3665 180.219 36.21C180.219 36.2279 180.219 36.2457 180.219 36.2636Z" fill="#FFB7B7"/>
<path d="M158.795 21.8268C160.052 19.1193 162.484 19.6546 164.612 20.5724C167.306 19.9738 169.868 18.1817 172.77 19.2415C175.63 23.4071 185.229 22.1815 183.187 28.9631C183.184 30.5881 186.239 29.6423 185.706 32.3037C187.324 37.4255 179.864 47.1255 175.581 45.0828C176.64 43.1383 179.06 38.7215 175.39 38.2834C167.495 45.6416 174.576 24.2718 164.656 30.4865C161.372 33.4973 156.875 24.8384 158.795 21.8268Z" fill="#2F2E41"/>
<path d="M189.605 120.98C190.116 121.083 190.643 121.072 191.15 120.949C191.656 120.826 192.13 120.593 192.537 120.266C192.944 119.94 193.274 119.528 193.505 119.06C193.736 118.592 193.861 118.078 193.873 117.556L220.814 92.1548L214.752 87.3109L190.13 113.867C189.253 113.906 188.421 114.266 187.791 114.878C187.162 115.491 186.778 116.313 186.713 117.19C186.649 118.067 186.907 118.937 187.44 119.635C187.973 120.334 188.743 120.812 189.605 120.98Z" fill="#9F616A"/>
<path d="M216.997 96.2607L211.755 90.1076C211.606 89.9325 211.496 89.7273 211.434 89.5059C211.371 89.2845 211.356 89.0522 211.391 88.8247C211.426 88.5973 211.51 88.38 211.636 88.1877C211.762 87.9955 211.928 87.8327 212.123 87.7106L218.947 83.4316C219.845 82.6722 221.008 82.3007 222.179 82.3986C223.351 82.4965 224.436 83.0558 225.196 83.9539C225.957 84.8519 226.331 86.0154 226.236 87.1892C226.141 88.363 225.586 89.4513 224.691 90.2154L219.418 96.274C219.267 96.4475 219.08 96.5862 218.871 96.6809C218.661 96.7756 218.434 96.824 218.204 96.8227C217.974 96.8214 217.748 96.7706 217.539 96.6736C217.331 96.5766 217.146 96.4358 216.997 96.2607Z" fill="#CBCBCB"/>
<path d="M202.902 221.604L196.315 221.603L193.181 196.152L202.903 196.153L202.902 221.604Z" fill="#9F616A"/>
<path d="M204.582 228L183.342 227.999V227.73C183.342 225.534 184.213 223.428 185.763 221.875C187.314 220.322 189.416 219.449 191.609 219.449H191.609L204.582 219.449L204.582 228Z" fill="#2F2E41"/>
<path d="M255.557 221.604L248.97 221.603L245.837 196.152L255.559 196.153L255.557 221.604Z" fill="#9F616A"/>
<path d="M257.237 228L235.997 227.999V227.73C235.998 225.534 236.869 223.428 238.419 221.875C239.969 220.322 242.072 219.449 244.265 219.449H244.265L257.238 219.449L257.237 228Z" fill="#2F2E41"/>
<path d="M237.839 109.752L244.479 85.1782L235.865 80.3281H223.841L219.165 85.3399C219.165 85.3399 211.351 90.7852 213.243 96.8185L216.293 110.56L211.627 132.386L188.119 165.043L182.554 197.122L204.46 202.874L228.148 156.151L239.633 207.886L261 206.81L253.637 144.081C253.637 144.081 251.538 124.972 240.537 113.041L237.839 109.752Z" fill="#2F2E41"/>
<path d="M251.551 131.495C251.922 131.127 252.207 130.683 252.387 130.193C252.568 129.703 252.639 129.179 252.595 128.659C252.551 128.139 252.395 127.634 252.135 127.181C251.876 126.728 251.521 126.338 251.095 126.037L245.943 91.2211L238.548 93.56L245.95 127.091C245.494 127.842 245.328 128.735 245.484 129.6C245.64 130.465 246.108 131.242 246.798 131.785C247.489 132.328 248.354 132.598 249.23 132.545C250.106 132.491 250.932 132.118 251.551 131.495Z" fill="#9F616A"/>
<path d="M247.216 96.6851L239.194 97.6117C238.966 97.638 238.735 97.6148 238.516 97.5436C238.298 97.4723 238.097 97.3548 237.928 97.1989C237.759 97.043 237.626 96.8525 237.537 96.6402C237.448 96.428 237.406 96.1991 237.413 95.9691L237.673 87.909C237.545 86.7385 237.886 85.565 238.62 84.6457C239.354 83.7264 240.423 83.1363 241.591 83.0049C242.759 82.8734 243.932 83.2113 244.851 83.9445C245.771 84.6776 246.363 85.7462 246.498 86.916L248.577 94.6796C248.637 94.9019 248.648 95.1345 248.609 95.3614C248.571 95.5883 248.484 95.8043 248.355 95.9946C248.226 96.1849 248.057 96.3451 247.861 96.4643C247.664 96.5835 247.444 96.6588 247.216 96.6851Z" fill="#CBCBCB"/>
<path d="M216.407 73.3398V62.9858C216.407 59.3061 217.866 55.7771 220.464 53.1752C223.061 50.5732 226.584 49.1115 230.258 49.1115C233.931 49.1115 237.454 50.5732 240.052 53.1752C242.649 55.7771 244.109 59.3061 244.109 62.9858V73.3398C244.108 73.8339 243.912 74.3076 243.563 74.657C243.214 75.0064 242.741 75.2029 242.248 75.2035H218.268C217.774 75.2029 217.301 75.0064 216.953 74.657C216.604 74.3076 216.408 73.8339 216.407 73.3398Z" fill="#2F2E41"/>
<path d="M232.282 73.7158C237.204 71.0211 239.012 64.8405 236.322 59.911C233.632 54.9815 227.462 53.1699 222.541 55.8646C217.62 58.5593 215.811 64.7399 218.501 69.6694C221.191 74.5989 227.361 76.4105 232.282 73.7158Z" fill="#9F616A"/>
<path d="M213.13 63.8141C213.134 60.9043 214.289 58.1146 216.343 56.0571C218.397 53.9995 221.182 52.8422 224.087 52.8389H226.154C229.059 52.8422 231.844 53.9995 233.898 56.0571C235.952 58.1146 237.107 60.9043 237.111 63.8141V64.0212H232.742L231.252 59.8416L230.954 64.0212H228.696L227.944 61.9123L227.794 64.0212H213.13V63.8141Z" fill="#2F2E41"/>
<path d="M226.412 76.3678C226.207 76.0895 226.085 75.759 226.059 75.4141C226.033 75.0692 226.105 74.724 226.267 74.4183C228.457 70.2443 231.525 62.5318 227.453 57.7755L227.161 57.4337H238.98V75.2094L228.243 77.1071C228.134 77.1264 228.024 77.1361 227.914 77.1362C227.621 77.1362 227.332 77.0666 227.071 76.933C226.81 76.7994 226.584 76.6057 226.412 76.3678Z" fill="#2F2E41"/>
<path d="M117.774 85.8332C117.624 85.9876 117.487 86.1535 117.363 86.3295L98.1048 85.8575L95.8581 81.7451L89.2191 84.3304L92.4901 91.9978C92.7544 92.6172 93.2121 93.134 93.7945 93.4707C94.377 93.8073 95.0528 93.9457 95.7204 93.8649L117.479 91.2319C117.992 91.8828 118.691 92.3618 119.482 92.605C120.274 92.8483 121.121 92.8444 121.91 92.5938C122.7 92.3433 123.394 91.8579 123.901 91.2023C124.409 90.5468 124.704 89.752 124.75 88.9238C124.795 88.0956 124.588 87.2732 124.155 86.566C123.722 85.8588 123.085 85.3003 122.328 84.9648C121.571 84.6293 120.729 84.5327 119.916 84.6878C119.102 84.8429 118.355 85.2424 117.774 85.8332Z" fill="#FFB7B7"/>
<path d="M54.9949 202.99H61.3272L64.3396 178.524L54.9938 178.524L54.9949 202.99Z" fill="#FFB7B7"/>
<path d="M53.3797 200.919L65.8502 200.919H65.8507C67.9584 200.919 69.9797 201.758 71.4701 203.25C72.9604 204.743 73.7978 206.768 73.7979 208.879V209.138L53.3801 209.139L53.3797 200.919Z" fill="#2F2E41"/>
<path d="M112.494 202.849L118.317 200.357L111.493 176.672L102.899 180.35L112.494 202.849Z" fill="#FFB7B7"/>
<path d="M110.197 201.58L121.664 196.673L121.665 196.672C123.603 195.843 125.791 195.819 127.747 196.605C129.703 197.392 131.267 198.924 132.095 200.866L132.196 201.104L113.42 209.139L110.197 201.58Z" fill="#2F2E41"/>
<path d="M85.7741 91.1332L86.2318 98.566L72.8474 100.001L58.842 101.502L62.9641 90.2157L85.7741 91.1332Z" fill="#FFB7B7"/>
<path d="M86.2443 93.8001C86.0925 93.7405 70.9746 87.8497 61.6885 92.6664L61.4601 92.785L59.6076 83.6511L58.552 64.0137L65.4208 60.7625L67.312 56.5191L80.1935 55.7555L82.8407 59.3919L91.8533 62.3507L86.4668 93.8883L86.2443 93.8001Z" fill="#D6A75C"/>
<path d="M86.7177 76.0749L88.311 63.5342L91.939 62.4281L92.0002 62.4507C92.0839 62.4815 94.0556 63.2375 94.5953 65.9718C95.1134 68.5964 99.0151 84.9289 99.0544 85.0936L99.0935 85.257L89.9262 88.9311L86.7177 76.0749Z" fill="#E4E4E4"/>
<path d="M107.778 198.549L119.981 196.042L100.477 142.131L93.8017 123.743C93.8017 123.743 89.568 109 87.6551 103.294L86.5008 95.6389L59.1743 98.6688C59.1743 98.6688 51.542 109.897 53.8607 128.197L52.812 196.982L65.015 197.609L75.2364 128.236L93.1759 166.266C93.1759 166.266 98.8303 182.494 102.876 186.012L107.778 198.549Z" fill="#2F2E41"/>
<path d="M70.1328 101.222C69.9179 101.217 69.703 101.229 69.4899 101.257L56.7416 86.7903L58.2245 82.344L51.8181 79.2251L48.4292 86.8409C48.1554 87.4562 48.0882 88.1438 48.2378 88.8005C48.3874 89.4573 48.7455 90.0477 49.2586 90.4832L65.9797 104.676C65.8522 105.495 65.9768 106.334 66.3369 107.081C66.6971 107.828 67.2757 108.447 67.9958 108.857C68.7159 109.266 69.5433 109.446 70.3681 109.373C71.1929 109.3 71.976 108.977 72.6131 108.447C73.2502 107.917 73.7111 107.206 73.9347 106.407C74.1582 105.609 74.1338 104.761 73.8645 103.976C73.5953 103.192 73.094 102.508 72.4274 102.016C71.7608 101.524 70.9604 101.247 70.1328 101.222Z" fill="#FFB7B7"/>
<path d="M50.6639 81.3685L55.6478 67.1483C56.2079 65.472 56.9097 64.4536 57.734 64.1213C57.8963 64.0482 58.0721 64.0095 58.2501 64.0079C58.4281 64.0062 58.6045 64.0415 58.7682 64.1117L61.003 66.9399L63.0771 75.6679L57.7592 88.1983L50.6639 81.3685Z" fill="#E4E4E4"/>
<path d="M83.6524 52.8128H61.7732C61.3232 52.8123 60.8917 52.633 60.5735 52.3142C60.2553 51.9954 60.0763 51.5632 60.0757 51.1124V41.6657C60.0757 38.3084 61.4071 35.0886 63.7771 32.7147C66.147 30.3407 69.3613 29.0071 72.7128 29.0071C76.0644 29.0071 79.2787 30.3407 81.6486 32.7147C84.0185 35.0886 85.3499 38.3084 85.3499 41.6657V51.1124C85.3494 51.5632 85.1704 51.9954 84.8521 52.3142C84.5339 52.633 84.1024 52.8123 83.6524 52.8128Z" fill="#2F2E41"/>
<path d="M75.3096 52.5929C80.4265 52.5929 84.5746 48.4378 84.5746 43.3121C84.5746 38.1864 80.4265 34.0312 75.3096 34.0312C70.1926 34.0312 66.0445 38.1864 66.0445 43.3121C66.0445 48.4378 70.1926 52.5929 75.3096 52.5929Z" fill="#FFB7B7"/>
<path d="M88.3395 42.6104H74.961L74.8237 40.6864L74.1378 42.6104H72.0778L71.8059 38.797L70.4464 42.6104H66.4604V42.4215C66.4634 39.7667 67.5175 37.2214 69.3915 35.3442C71.2656 33.4669 73.8065 32.411 76.4568 32.408H78.343C80.9933 32.411 83.5342 33.4669 85.4083 35.3442C87.2823 37.2214 88.3365 39.7666 88.3395 42.4215L88.3395 42.6104Z" fill="#2F2E41"/>
<path d="M74.8515 54.5763C74.7507 54.5762 74.6502 54.5673 74.551 54.5497L64.7547 52.8183V36.6002H75.5386L75.2716 36.912C71.557 41.2516 74.3555 48.2883 76.3543 52.0965C76.5016 52.3754 76.5673 52.6904 76.5438 53.005C76.5203 53.3197 76.4085 53.6213 76.2214 53.8752C76.0647 54.0923 75.8588 54.269 75.6207 54.3909C75.3825 54.5127 75.1189 54.5763 74.8515 54.5763Z" fill="#2F2E41"/>
<path d="M192.2 93.5595C191.59 93.6211 190.975 93.6355 190.363 93.6024C190.258 93.591 190.153 93.6211 190.071 93.6863C189.988 93.7515 189.935 93.8465 189.921 93.951L188.749 102.76C188.659 103.399 188.397 104.002 187.993 104.505C187.659 104.905 187.411 105.37 187.264 105.87C187.117 106.37 187.074 106.895 187.138 107.412V122.376C187.138 122.376 187.062 124.371 188.593 124.371C190.424 124.601 192.277 124.601 194.109 124.371C194.109 124.371 195.334 124.138 195.334 122.297V107.563C195.428 107.049 195.409 106.521 195.278 106.015C195.147 105.509 194.909 105.038 194.578 104.634C194.187 104.129 193.934 103.531 193.844 102.899L192.627 93.9055C192.613 93.8044 192.561 93.7124 192.482 93.6481C192.403 93.5838 192.302 93.5522 192.2 93.5595Z" fill="white"/>
<path d="M191.345 124.796C190.42 124.796 189.495 124.738 188.576 124.623C188.371 124.628 188.167 124.59 187.977 124.513C187.787 124.435 187.615 124.318 187.472 124.171C186.85 123.523 186.884 122.413 186.886 122.366L186.886 107.427C186.821 106.878 186.868 106.321 187.025 105.791C187.182 105.261 187.446 104.768 187.799 104.343C188.174 103.877 188.416 103.318 188.499 102.725L189.671 93.9177C189.694 93.7483 189.782 93.5944 189.916 93.4888C190.05 93.3831 190.22 93.3339 190.39 93.3515C190.985 93.383 191.582 93.3685 192.175 93.3084L192.182 93.3077C192.348 93.2957 192.512 93.3473 192.641 93.452C192.77 93.5566 192.854 93.7066 192.876 93.8713L194.094 102.865C194.178 103.453 194.413 104.01 194.777 104.479C195.127 104.908 195.381 105.408 195.521 105.944C195.661 106.48 195.683 107.04 195.586 107.586V122.297C195.586 124.324 194.17 124.616 194.156 124.619C193.224 124.737 192.285 124.796 191.345 124.796ZM190.328 93.8537C190.291 93.8519 190.254 93.8641 190.225 93.888C190.196 93.9119 190.177 93.9457 190.171 93.9829L188.999 102.793C188.902 103.479 188.622 104.125 188.189 104.664C187.877 105.038 187.645 105.472 187.507 105.939C187.37 106.407 187.329 106.897 187.388 107.381L187.39 107.412V122.376C187.39 122.394 187.363 123.33 187.837 123.822C187.935 123.921 188.053 124 188.183 124.051C188.313 124.102 188.453 124.125 188.593 124.118L188.624 124.12C190.435 124.348 192.267 124.348 194.078 124.12C194.102 124.114 195.082 123.89 195.082 122.297L195.086 107.518C195.174 107.04 195.156 106.549 195.034 106.078C194.913 105.608 194.691 105.17 194.383 104.794C193.963 104.254 193.691 103.612 193.595 102.934L192.377 93.9395C192.371 93.9026 192.353 93.869 192.324 93.8453C192.295 93.8216 192.259 93.8095 192.221 93.8114C191.599 93.8737 190.973 93.8882 190.349 93.8548C190.342 93.854 190.335 93.8537 190.328 93.8537Z" fill="#3F3D56"/>
<path d="M190.35 107.68H192.208C192.947 107.68 193.656 107.974 194.178 108.497C194.7 109.02 194.994 109.73 194.994 110.47V117.474C194.994 118.214 194.7 118.924 194.178 119.447C193.656 119.97 192.947 120.264 192.208 120.264H190.35C189.611 120.264 188.902 119.97 188.38 119.447C187.857 118.924 187.564 118.214 187.564 117.474V110.47C187.564 109.73 187.857 109.02 188.38 108.497C188.902 107.974 189.611 107.68 190.35 107.68Z" fill="#D89EFF"/>
<path d="M129.145 81.4266C128.535 81.4882 127.92 81.5026 127.307 81.4695C127.203 81.4581 127.098 81.4882 127.015 81.5534C126.933 81.6186 126.879 81.7136 126.866 81.818L125.694 90.627C125.603 91.2665 125.342 91.8695 124.937 92.3721C124.604 92.7721 124.356 93.2366 124.208 93.7366C124.061 94.2367 124.019 94.7617 124.083 95.279V110.243C124.083 110.243 124.007 112.238 125.537 112.238C127.369 112.468 129.222 112.468 131.054 112.238C131.054 112.238 132.279 112.005 132.279 110.164V95.4305C132.373 94.9165 132.353 94.3882 132.223 93.8824C132.092 93.3765 131.853 92.9051 131.523 92.5009C131.131 91.9965 130.879 91.3984 130.789 90.7659L129.571 81.7726C129.557 81.6715 129.506 81.5794 129.427 81.5152C129.347 81.4509 129.247 81.4192 129.145 81.4266Z" fill="white"/>
<path d="M128.29 112.663C127.364 112.663 126.44 112.605 125.521 112.49C125.316 112.495 125.112 112.458 124.922 112.38C124.732 112.302 124.56 112.185 124.417 112.038C123.794 111.39 123.829 110.28 123.831 110.233L123.83 95.2945C123.765 94.7452 123.813 94.1884 123.97 93.6582C124.127 93.1279 124.39 92.6353 124.744 92.2103C125.119 91.7439 125.36 91.1847 125.444 90.5918L126.616 81.7847C126.639 81.6153 126.727 81.4615 126.861 81.3558C126.995 81.2501 127.165 81.2009 127.335 81.2186C127.93 81.25 128.527 81.2356 129.12 81.1754L129.127 81.1748C129.293 81.1628 129.456 81.2143 129.585 81.319C129.714 81.4237 129.799 81.5736 129.821 81.7384L131.039 90.7322C131.123 91.3204 131.358 91.8767 131.722 92.346C132.072 92.7749 132.326 93.2746 132.466 93.8109C132.605 94.3471 132.628 94.9073 132.531 95.4531V110.164C132.531 112.191 131.115 112.483 131.101 112.486C130.168 112.604 129.23 112.663 128.29 112.663ZM127.273 81.7207C127.235 81.7189 127.199 81.7312 127.17 81.755C127.141 81.7789 127.122 81.8128 127.116 81.85L125.944 90.6605C125.847 91.3458 125.567 91.9921 125.133 92.5308C124.822 92.9049 124.59 93.339 124.452 93.8063C124.314 94.2737 124.274 94.7643 124.333 95.248L124.335 95.2791V110.243C124.334 110.261 124.307 111.197 124.781 111.689C124.879 111.789 124.997 111.867 125.128 111.918C125.258 111.969 125.398 111.992 125.537 111.985L125.569 111.987C127.38 112.215 129.212 112.215 131.022 111.987C131.046 111.981 132.027 111.757 132.027 110.164L132.031 95.3854C132.118 94.9073 132.101 94.416 131.979 93.9455C131.858 93.4751 131.635 93.0368 131.328 92.6611C130.908 92.1206 130.636 91.4795 130.539 90.8015L129.321 81.8066C129.316 81.7697 129.297 81.7361 129.268 81.7124C129.24 81.6887 129.203 81.6766 129.166 81.6784C128.544 81.7408 127.918 81.7553 127.294 81.7219C127.287 81.7211 127.28 81.7207 127.273 81.7207Z" fill="#3F3D56"/>
<path d="M127.295 95.5468H129.153C129.892 95.5468 130.6 95.8408 131.123 96.3641C131.645 96.8875 131.939 97.5973 131.939 98.3374V105.341C131.939 106.081 131.645 106.791 131.123 107.314C130.6 107.837 129.892 108.131 129.153 108.131H127.295C126.556 108.131 125.847 107.837 125.325 107.314C124.802 106.791 124.509 106.081 124.509 105.341V98.3374C124.509 97.5973 124.802 96.8875 125.325 96.3641C125.847 95.8408 126.556 95.5468 127.295 95.5468Z" fill="#D89EFF"/>
<path d="M118.458 68.5799C117.847 68.6415 117.233 68.6559 116.62 68.6228C116.515 68.6114 116.411 68.6415 116.328 68.7067C116.246 68.7719 116.192 68.8669 116.179 68.9714L115.006 77.7803C114.916 78.4198 114.655 79.0228 114.25 79.5255C113.916 79.9255 113.668 80.3899 113.521 80.8899C113.374 81.39 113.331 81.915 113.395 82.4323V97.396C113.395 97.396 113.32 99.3911 114.85 99.3911C116.682 99.6217 118.535 99.6217 120.366 99.3911C120.366 99.3911 121.592 99.1588 121.592 97.3177V82.5838C121.685 82.0698 121.666 81.5415 121.535 81.0357C121.405 80.5298 121.166 80.0585 120.835 79.6543C120.444 79.1498 120.191 78.5517 120.102 77.9192L118.884 68.9259C118.87 68.8248 118.818 68.7328 118.739 68.6685C118.66 68.6042 118.559 68.5725 118.458 68.5799Z" fill="white"/>
<path d="M117.603 99.8162C116.677 99.8163 115.752 99.7586 114.834 99.6437C114.629 99.6485 114.425 99.6108 114.235 99.5329C114.045 99.455 113.873 99.3386 113.73 99.191C113.107 98.5431 113.142 97.4334 113.143 97.3864L113.143 82.4478C113.078 81.8985 113.126 81.3418 113.283 80.8115C113.44 80.2812 113.703 79.7886 114.056 79.3637C114.431 78.8972 114.673 78.338 114.757 77.7451L115.929 68.9381C115.952 68.7687 116.039 68.6148 116.174 68.5091C116.308 68.4035 116.478 68.3542 116.647 68.3719C117.243 68.4034 117.84 68.3889 118.433 68.3287L118.44 68.3281C118.605 68.3161 118.769 68.3677 118.898 68.4724C119.027 68.577 119.111 68.727 119.134 68.8917L120.352 77.8855C120.435 78.4737 120.671 79.03 121.034 79.4993C121.385 79.9282 121.639 80.4279 121.778 80.9642C121.918 81.5005 121.94 82.0606 121.844 82.6064V97.3177C121.844 99.3445 120.428 99.6367 120.413 99.6394C119.481 99.7571 118.542 99.8161 117.603 99.8162ZM116.586 68.874C116.548 68.8722 116.511 68.8845 116.482 68.9084C116.453 68.9323 116.434 68.9661 116.429 69.0033L115.256 77.8138C115.16 78.4991 114.88 79.1454 114.446 79.6842C114.134 80.0582 113.903 80.4923 113.765 80.9596C113.627 81.427 113.587 81.9176 113.646 82.4013L113.647 82.4324V97.396C113.647 97.4146 113.62 98.3504 114.094 98.8419C114.192 98.9419 114.31 99.02 114.44 99.0711C114.571 99.1223 114.71 99.1453 114.85 99.1387L114.881 99.1407C116.692 99.3683 118.524 99.3683 120.335 99.1407C120.359 99.1348 121.34 98.9107 121.34 97.3177L121.344 82.5387C121.431 82.0607 121.413 81.5693 121.292 81.0989C121.17 80.6284 120.948 80.1901 120.64 79.8144C120.22 79.2739 119.949 78.6328 119.852 77.9548L118.634 68.9599C118.629 68.923 118.61 68.8894 118.581 68.8657C118.552 68.842 118.516 68.8299 118.479 68.8318C117.857 68.8941 117.231 68.9086 116.606 68.8752C116.599 68.8744 116.593 68.8741 116.586 68.874Z" fill="#3F3D56"/>
<path d="M116.607 82.7001H118.465C119.204 82.7001 119.913 82.9941 120.435 83.5174C120.958 84.0408 121.251 84.7506 121.251 85.4908V92.494C121.251 93.2341 120.958 93.944 120.435 94.4673C119.913 94.9907 119.204 95.2847 118.465 95.2847H116.607C115.868 95.2847 115.16 94.9907 114.637 94.4673C114.115 93.944 113.821 93.2341 113.821 92.494V85.4908C113.821 84.7506 114.115 84.0408 114.637 83.5174C115.16 82.9941 115.868 82.7001 116.607 82.7001Z" fill="#D89EFF"/>
<path d="M20.0165 25.3365C24.9352 25.3365 28.9226 21.3423 28.9226 16.4152C28.9226 11.4881 24.9352 7.4939 20.0165 7.4939C15.0978 7.4939 11.1104 11.4881 11.1104 16.4152C11.1104 21.3423 15.0978 25.3365 20.0165 25.3365Z" fill="#D6A75C"/>
<path d="M225.213 17.8426C230.132 17.8426 234.119 13.8484 234.119 8.92129C234.119 3.9942 230.132 0 225.213 0C220.295 0 216.307 3.9942 216.307 8.92129C216.307 13.8484 220.295 17.8426 225.213 17.8426Z" fill="#D6A75C"/>
<path d="M123.327 40.3242C126.869 40.3242 129.74 37.4484 129.74 33.9009C129.74 30.3534 126.869 27.4775 123.327 27.4775C119.786 27.4775 116.915 30.3534 116.915 33.9009C116.915 37.4484 119.786 40.3242 123.327 40.3242Z" fill="#D6A75C"/>
</g>
<defs>
<clipPath id="clip0_345_301">
<rect width="261" height="228" fill="white"/>
</clipPath>
</defs>
</svg>
