<svg width="189" height="197" viewBox="0 0 189 197" fill="none" xmlns="http://www.w3.org/2000/svg">
<g filter="url(#filter0_d_370_183)">
<path d="M148 180H142.58L140 160H148V180Z" fill="#9E616A"/>
<path d="M150 188H146.519L145.898 184.767L144.307 188H135.075C134.633 188 134.202 187.861 133.845 187.603C133.489 187.345 133.226 186.982 133.094 186.566C132.962 186.15 132.969 185.704 133.113 185.292C133.258 184.881 133.532 184.525 133.896 184.278L141.268 179.269V176L149.022 176.455L150 188Z" fill="#2F2E41"/>
<path d="M178 173.091L173.856 176L160 162.294L166.116 158L178 173.091Z" fill="#9E616A"/>
<path d="M185 178.247L182.077 180.421L179.504 178.049L180.219 181.804L172.467 187.571C172.096 187.847 171.646 187.998 171.183 188C170.72 188.002 170.268 187.857 169.894 187.584C169.519 187.311 169.242 186.926 169.102 186.484C168.962 186.043 168.966 185.568 169.115 185.129L172.126 176.246L170.052 173.455L176.852 169L185 178.247Z" fill="#2F2E41"/>
<path d="M153.685 79C153.685 79 163.239 87.2755 158.831 110.867L153.449 133.983L171 163.174L165.404 170L142.588 138.403L134.32 118.959L132 84.3515L153.685 79Z" fill="#2F2E41"/>
<path d="M138.594 125L138 133.933L139.817 172L148.366 170.553L150 143.45L138.594 125Z" fill="#2F2E41"/>
<path d="M33.0005 184L37.0661 184L39 167L33 167L33.0005 184Z" fill="#FFB6B6"/>
<path d="M31 183.052L32.3094 183.051L37.4214 181L40.1613 183.051H40.1617C41.7101 183.051 43.195 183.658 44.2899 184.739C45.3847 185.819 45.9999 187.284 46 188.812V188.999L31.0003 189L31 183.052Z" fill="#2F2E41"/>
<path d="M50 181.005L54.2611 182L60 165.469L53.711 164L50 181.005Z" fill="#FFB6B6"/>
<path d="M49.2544 179.626L50.4613 179.92L55.6056 179L57.6983 181.686L57.6987 181.686C59.1258 182.034 60.3663 182.98 61.1476 184.316C61.9288 185.653 62.1867 187.269 61.8646 188.811L61.8251 189L48 185.628L49.2544 179.626Z" fill="#2F2E41"/>
<path d="M26.4576 78C24.3314 84.3911 24.5562 91.3285 26.9687 98.7742L28 140.695C28 140.695 26.4635 168.186 31.4216 177.86H38.6122L42.1724 138.185L42.6195 111.554L58.0355 134.021L48.2166 177.212L57.0665 178L73 131.129L53.3413 85.6553L26.4576 78Z" fill="#2F2E41"/>
<path d="M109.076 59.7182C114.678 54.8536 123.011 52.4075 130 55.1353C122.83 58.9712 117.3 65.1273 114.387 72.5145C113.274 75.3673 112.345 78.652 109.608 80.1793C107.905 81.1297 105.786 81.1762 103.877 80.7174C101.968 80.2586 100.217 79.3389 98.4911 78.4283L98 78.4176C100.205 71.4683 103.474 64.5829 109.076 59.7182Z" fill="#3B873E"/>
<path d="M129.844 55.3309C123.661 56.1234 117.887 58.828 113.342 63.0605C112.348 63.9545 111.501 64.9983 110.834 66.1537C110.221 67.3 109.929 68.5882 109.987 69.8845C110.018 71.0943 110.19 72.3283 109.923 73.5242C109.777 74.1344 109.503 74.7071 109.119 75.2049C108.734 75.7026 108.248 76.1141 107.692 76.4123C106.325 77.1912 104.759 77.4368 103.218 77.6241C101.507 77.8321 99.7271 78.0212 98.2463 78.9729C98.0669 79.0882 97.897 78.8053 98.0762 78.6902C100.652 77.0344 103.912 77.6369 106.683 76.5318C107.975 76.0162 109.119 75.111 109.524 73.7425C109.878 72.5458 109.702 71.2732 109.66 70.0486C109.584 68.7848 109.822 67.5219 110.351 66.37C110.957 65.1847 111.761 64.1102 112.73 63.1926C114.878 61.0922 117.346 59.34 120.043 57.9999C123.113 56.4537 126.426 55.4396 129.84 55.0016C130.052 54.9746 130.054 55.304 129.844 55.3309Z" fill="white"/>
<path d="M115.029 61.9262C114.266 61.0463 113.908 59.9723 114.02 58.8959C114.132 57.8194 114.706 56.8108 115.64 56.05C115.83 55.8965 116.129 56.1313 115.939 56.285C115.068 56.9921 114.533 57.9317 114.431 58.9343C114.33 59.9368 114.668 60.9362 115.384 61.7521C115.54 61.9295 115.184 62.1027 115.029 61.9262Z" fill="white"/>
<path d="M110.186 69.4615C112.123 69.9001 114.119 69.3895 115.775 68.0315C115.939 67.8968 116.094 68.2291 115.93 68.3636C114.205 69.7727 112.127 70.2986 110.112 69.8365C109.92 69.7923 109.995 69.4175 110.186 69.4615Z" fill="white"/>
<path d="M123.265 57.0859C123.41 57.4932 123.635 57.8496 123.919 58.1233C124.203 58.3971 124.538 58.5794 124.894 58.654C125.076 58.6916 125.005 59.0345 124.823 58.9972C124.431 58.9125 124.061 58.7105 123.747 58.409C123.432 58.1074 123.182 57.7155 123.019 57.2673C123 57.2267 122.995 57.179 123.005 57.1339C123.014 57.0888 123.037 57.0498 123.068 57.0247C123.101 57.0009 123.14 56.9939 123.177 57.0054C123.214 57.0169 123.245 57.0458 123.265 57.0859Z" fill="white"/>
<path d="M137 78.7084C136.871 78.6905 136.742 78.6726 136.611 78.6566C134.877 78.4248 133.127 78.3352 131.378 78.3889C131.242 78.3908 131.105 78.3949 130.97 78.4008C126.758 78.5753 122.615 79.5359 118.751 81.2337C117.214 81.9108 115.73 82.7046 114.313 83.6084C112.356 84.8566 110.332 86.3669 108.144 86.8759C107.916 86.9316 107.685 86.9731 107.453 87L98.4121 79.1158C98.4005 79.0875 98.387 79.0612 98.3752 79.0328L98 78.7347C98.0699 78.6829 98.1434 78.6307 98.2133 78.579C98.2537 78.5488 98.2961 78.5204 98.3365 78.4902C98.3641 78.4706 98.3918 78.4511 98.4155 78.4319C98.4247 78.4253 98.4339 78.4189 98.4413 78.4144C98.4651 78.3951 98.4892 78.3798 98.5112 78.3626C98.9216 78.0699 99.3348 77.7796 99.7507 77.4916C99.7525 77.4896 99.7525 77.4896 99.7563 77.4892C102.905 75.2647 106.304 73.4243 109.883 72.0064C109.991 71.9656 110.1 71.9225 110.211 71.8853C111.823 71.2817 113.481 70.8117 115.169 70.4802C116.094 70.3016 117.027 70.1704 117.965 70.0869C120.389 69.8758 122.831 70.05 125.201 70.6032C129.926 71.7067 134.248 74.3198 136.807 78.3951C136.873 78.4994 136.936 78.602 137 78.7084Z" fill="#3B873E"/>
<path d="M136.735 79.2739C131.452 76.1542 125.356 74.8403 119.312 75.5189C118.008 75.641 116.732 75.9755 115.528 76.5101C114.373 77.07 113.382 77.9408 112.661 79.032C111.968 80.0353 111.372 81.1448 110.456 81.9561C109.982 82.3642 109.429 82.6635 108.835 82.8346C108.241 83.0057 107.619 83.0446 107.009 82.9488C105.485 82.751 104.119 81.9968 102.809 81.2111C101.354 80.3388 99.8558 79.4088 98.1395 79.2819C97.9316 79.2665 97.9667 78.9328 98.1744 78.9481C101.16 79.1688 103.342 81.6445 106.153 82.4317C107.465 82.799 108.891 82.7585 110.016 81.8908C111 81.1321 111.616 79.9885 112.309 78.9663C112.998 77.8912 113.93 77.0074 115.024 76.3921C116.197 75.7957 117.46 75.4108 118.757 75.2537C121.673 74.8518 124.632 74.9278 127.525 75.4791C130.83 76.0893 134.01 77.2814 136.928 79.0039C137.108 79.1106 136.915 79.3799 136.735 79.2739Z" fill="white"/>
<path d="M121 74.84C121.028 73.8957 121.427 72.9911 122.126 72.288C122.825 71.5849 123.777 71.1289 124.814 71.0015C125.023 70.9764 125.077 71.2697 124.866 71.2948C123.901 71.4118 123.014 71.8367 122.365 72.4926C121.716 73.1486 121.348 73.9925 121.327 74.872C121.322 75.0631 120.995 75.0301 121 74.84Z" fill="white"/>
<path d="M113.298 78.0538C114.749 79.5844 116.734 80.522 118.859 80.6797C119.069 80.6952 119.034 81.0149 118.823 80.9995C116.613 80.8313 114.549 79.8514 113.042 78.2554C112.899 78.1032 113.155 77.9024 113.298 78.0538Z" fill="white"/>
<path d="M130.377 76.1997C130.286 76.6418 130.292 77.1031 130.394 77.5419C130.495 77.9808 130.689 78.3836 130.959 78.7142C131.097 78.8832 130.853 79.1087 130.715 78.9408C130.419 78.574 130.205 78.1288 130.092 77.6442C129.979 77.1596 129.97 76.6503 130.066 76.1608C130.072 76.1138 130.093 76.071 130.125 76.0413C130.157 76.0115 130.197 75.9969 130.238 76.0005C130.279 76.0059 130.317 76.0299 130.343 76.0672C130.369 76.1045 130.381 76.1521 130.377 76.1997Z" fill="white"/>
<path d="M96.2894 50.7292C95.9885 51.141 95.6045 51.4792 95.1645 51.7199C94.7245 51.9606 94.2391 52.098 93.7425 52.1223C93.246 52.1467 92.7503 52.0574 92.2905 51.8609C91.8307 51.6644 91.4178 51.3653 91.0811 50.9847L80 56L81.0794 49.5627L91.4367 45.787C92.0885 45.2407 92.9102 44.9621 93.7462 45.0041C94.5822 45.0462 95.3743 45.4059 95.9725 46.0151C96.5706 46.6243 96.9333 47.4406 96.9917 48.3095C97.0501 49.1783 96.8002 50.0393 96.2894 50.7292Z" fill="#FFB8B8"/>
<path d="M89 52.4082L63.3964 64L63.3414 63.98L34.1598 53.4106C31.9861 52.256 30.329 50.3005 29.5276 47.9445C28.7262 45.5885 28.8412 43.0103 29.8491 40.7377C30.4078 39.4821 31.2218 38.3609 32.2375 37.4481C33.2532 36.5353 34.4476 35.8514 35.742 35.4416C37.0365 35.0317 38.4017 34.9052 39.7477 35.0703C41.0938 35.2354 42.3902 35.6883 43.5516 36.3994L65.2682 49.6958L86.3265 46.9218L89 52.4082Z" fill="#D89EFF"/>
<path d="M55.0434 87L28.5186 82.846C27.8229 82.6278 27.1837 82.2648 26.6448 81.782C26.1059 81.2991 25.6802 80.7078 25.3967 80.0487C25.1133 79.3895 24.9788 78.6781 25.0027 77.9632C25.0266 77.2484 25.2081 76.5471 25.5349 75.9075L26.7378 73.5517L26.2706 48.8017C26.2142 45.5823 27.0249 42.4052 28.6209 39.5899C30.2169 36.7747 32.542 34.4206 35.3623 32.7645L37.9489 31.2502L39.2561 28L51.3099 28.2879L51.3451 32.5506L55.6618 39.2903L55.6617 39.3182L55.3908 76.0012L54.2011 79.7869L56 84.1901L55.0434 87Z" fill="#D89EFF"/>
<path d="M46.5 24C52.299 24 57 19.299 57 13.5C57 7.70101 52.299 3 46.5 3C40.701 3 36 7.70101 36 13.5C36 19.299 40.701 24 46.5 24Z" fill="#FFB8B8"/>
<path d="M35.1858 15.8103C34.8699 14.4509 35.015 12.5379 35.1934 11.1692C35.6614 7.58072 37.612 4.16926 40.5755 2.14853C41.1374 1.71251 41.8051 1.44141 42.5067 1.36447C43.2078 1.33457 43.9677 1.718 44.1829 2.40033C44.3595 1.94999 44.6246 1.5414 44.9618 1.1998C45.299 0.858193 45.7011 0.590811 46.1434 0.414161C47.0318 0.0664132 47.9873 -0.0650966 48.9341 0.0300556C50.7693 0.184603 52.5293 0.843872 54.0274 1.9379C55.5254 3.03192 56.7056 4.51989 57.4427 6.24389C57.7256 6.93036 58.5156 4.39473 58.874 5.04334C59.2033 5.71754 59.7778 6.23327 60.4746 6.48017C61.1768 6.68035 61.462 9.63611 61.7384 8.94688C61.9528 9.45624 62.0375 10.0128 61.9847 10.5646C61.9319 11.1164 61.7433 11.6456 61.4364 12.1029C61.1295 12.5602 60.7143 12.9307 60.2295 13.1799C59.7447 13.4292 59.2061 13.549 58.6637 13.5283C57.949 13.5009 57.2656 13.2324 56.5594 13.1168C54.034 12.7033 51.3551 14.5742 50.8152 17.1283C50.6219 16.3897 50.3131 15.6878 49.9008 15.0498C49.6915 14.7325 49.411 14.4708 49.0827 14.2865C48.7545 14.1022 48.3879 14.0007 48.0134 13.9904C47.2949 14.0178 46.6634 14.4978 46.1972 15.057C45.731 15.6162 45.3808 16.2687 44.9112 16.8249C43.5332 18.457 41.6694 22.2632 39.7056 21.9856C38.1558 21.7665 35.617 17.6663 35.1858 15.8103Z" fill="#2F2E41"/>
<path d="M110.976 62.8659C111.051 62.3838 110.95 61.8909 110.692 61.4749C110.434 61.0588 110.035 60.7463 109.566 60.5929L80.6972 51.1066C80.4205 51.0153 80.1274 50.9821 79.8368 51.0091L72.6011 51.6843L68.4492 52.0728L60.7876 52.7872C60.325 52.8309 59.8902 53.0248 59.5513 53.3385C59.2124 53.6522 58.9886 54.068 58.915 54.5207L55.025 78.4955C54.9514 78.9632 55.0416 79.4416 55.2807 79.8518C55.5199 80.262 55.8937 80.5795 56.3404 80.7518L85.5102 91.861C85.6471 91.9135 85.7893 91.9511 85.9345 91.9734C86.1457 92.0072 86.3609 92.0088 86.5727 91.9782L105.421 89.2219C105.866 89.1584 106.278 88.9552 106.596 88.6424C106.914 88.3297 107.122 87.924 107.188 87.4856L110.976 62.8659Z" fill="white"/>
<path d="M57.1664 79.6881L86.1514 90.9815C86.1937 90.9984 86.2396 91.0038 86.2846 90.9973L105.011 88.1956C105.067 88.1879 105.119 88.1621 105.158 88.1222C105.198 88.0823 105.224 88.0304 105.232 87.9744L108.997 62.9449C109.006 62.8837 108.993 62.8215 108.961 62.7688C108.929 62.7161 108.88 62.6763 108.823 62.6561L108.63 62.5902L80.1352 53.0141C80.1222 53.0094 80.1088 53.0061 80.0952 53.0043C80.0731 53.0002 80.0505 52.999 80.0281 53.0008L62.4913 54.6759L61.0997 54.8077C61.0426 54.8139 60.989 54.8387 60.9472 54.8784C60.9054 54.9182 60.8776 54.9706 60.8681 55.0278L57.0033 79.4005C56.9938 79.46 57.0049 79.521 57.0346 79.5734C57.0642 79.6257 57.1108 79.6662 57.1664 79.6881Z" fill="#AD7ECD"/>
<path d="M62 54.5966L79.8643 53.0008C79.8871 52.9991 79.91 53.0002 79.9325 53.0041C79.9465 53.0058 79.9601 53.009 79.9733 53.0134L109 62.136L101.343 62.9011L98.4779 63.1861L90.3242 63.9993C90.3004 64.0004 90.2765 64.0002 90.2527 63.9985C90.2382 63.9944 90.2237 63.9903 90.2062 63.9859L62 54.5966Z" fill="#2F2E41"/>
<path d="M56.3415 80.7535L85.5107 91.8621C85.648 91.9143 85.7907 91.9512 85.9362 91.972C86.1475 92.0065 86.3628 92.0091 86.5749 91.9799L105.421 89.224C105.866 89.1601 106.278 88.9566 106.596 88.6436C106.915 88.3307 107.123 87.9249 107.189 87.4863L110.976 62.8661C111.032 62.5031 110.99 62.132 110.853 61.7904C110.834 61.745 110.815 61.6996 110.793 61.6568C110.642 61.3449 110.414 61.0761 110.129 60.876C109.957 60.7543 109.767 60.659 109.567 60.5934L109.532 60.5814L80.7 51.1065C80.5822 51.0695 80.4619 51.0406 80.34 51.0203C80.1733 50.997 80.0044 50.9937 79.837 51.0106L72.6025 51.6835L68.4511 52.0742L60.7883 52.788C60.4748 52.8169 60.172 52.9156 59.9028 53.0767C59.882 53.0866 59.8621 53.0984 59.8434 53.1118C59.8301 53.1204 59.8174 53.1299 59.8053 53.1402C59.5702 53.2985 59.3703 53.5024 59.2176 53.7394C59.065 53.9764 58.9629 54.2417 58.9175 54.5189L55.0249 78.4954C54.9514 78.9634 55.0417 79.4422 55.2811 79.8527C55.5204 80.2632 55.8945 80.581 56.3415 80.7535ZM59.4339 54.6025C59.4812 54.3151 59.6104 54.0469 59.8064 53.8293C59.8657 53.7593 59.9321 53.6954 60.0046 53.6387C60.2024 53.4808 60.4364 53.3731 60.6862 53.325C60.7355 53.3149 60.7854 53.308 60.8355 53.3042L73.7378 52.1016L79.8875 51.5242C79.9292 51.5194 79.9674 51.5201 80.0059 51.5179C80.099 51.516 80.1921 51.5228 80.2839 51.5383C80.3683 51.5491 80.4514 51.5686 80.5317 51.5965L109.398 61.0834C109.421 61.0913 109.441 61.099 109.464 61.107C109.726 61.2033 109.957 61.3689 110.131 61.5856C110.268 61.7515 110.368 61.9441 110.425 62.1509C110.481 62.3576 110.493 62.5738 110.459 62.7854L106.669 87.4082C106.619 87.7366 106.464 88.0405 106.226 88.2751C105.988 88.5097 105.68 88.6625 105.347 88.7111L86.4978 91.4667C86.2282 91.5049 85.9532 91.4739 85.6992 91.3769L56.5296 80.2712C56.1953 80.1412 55.9157 79.9029 55.7366 79.5955C55.5576 79.2881 55.4897 78.9297 55.5443 78.5792L59.4339 54.6025Z" fill="#3F3D56"/>
<path d="M60.0141 53.1713C60.0296 53.128 60.0568 53.0896 60.093 53.0602C60.105 53.0509 60.1177 53.0424 60.1309 53.0349C60.1432 53.0303 60.1558 53.0228 60.1681 53.0181C60.2268 52.9951 60.2922 52.994 60.3517 53.0151L60.9608 53.225L90.7187 63.4825L97.6832 62.7635L101.581 62.3618L109.829 61.5085L110.567 61.4329L110.71 61.4174C110.772 61.4119 110.834 61.4277 110.885 61.462C110.936 61.4963 110.974 61.547 110.991 61.6053C110.995 61.6188 110.997 61.6326 110.999 61.6465C111.005 61.7019 110.992 61.7577 110.963 61.8055C110.934 61.8533 110.889 61.8905 110.837 61.9116C110.813 61.9211 110.789 61.9275 110.764 61.9308L109.76 62.0336L101.637 62.8726L98.797 63.165L90.7155 63.9993C90.6919 64.0005 90.6682 64.0002 90.6446 63.9985C90.6302 63.9942 90.6159 63.99 90.5986 63.9855L60.277 53.5367L60.174 53.5011C60.1504 53.4936 60.1285 53.4817 60.1094 53.4662C60.0636 53.4333 60.0296 53.387 60.0124 53.334C59.9953 53.281 59.9959 53.224 60.0141 53.1713Z" fill="#3F3D56"/>
<path d="M86.2308 91.9968C86.1594 91.9862 86.0955 91.9498 86.0528 91.8955C86.0102 91.8412 85.9923 91.7734 86.0031 91.7069L90.4549 64.217C90.4658 64.1501 90.5047 64.09 90.5632 64.0498C90.6217 64.0097 90.6949 63.9928 90.7668 64.0028L90.7692 64.0032C90.8406 64.0138 90.9045 64.0503 90.9472 64.1045C90.9898 64.1588 91.0077 64.2266 90.9969 64.2931L86.5451 91.783C86.5342 91.8499 86.4953 91.91 86.4368 91.9502C86.3783 91.9903 86.3051 92.0072 86.2332 91.9972L86.2308 91.9968Z" fill="#3F3D56"/>
<path d="M96.7546 90.6959L94 91L97.2221 62.4835C97.2221 62.4835 100.901 61.7867 100.999 62.0661C101.06 62.2329 96.7808 90.513 96.7546 90.6959Z" fill="#3F3D56"/>
<path d="M60.0769 54L60 66.5407L82.809 75L91 64.2909L60.0769 54Z" fill="#3F3D56"/>
<path d="M110 62C109.812 61.7573 109.558 61.5765 109.271 61.4799L80.5254 51.6628C80.4447 51.635 80.3618 51.6142 80.2777 51.6009C80.186 51.5848 80.093 51.5776 80 51.5796L80.0466 51.2809L80.3344 51.0673L87.1604 46L109.957 53.1633L109.996 61.2654L110 62Z" fill="#3F3D56"/>
<path d="M61.4451 74.0021C61.4751 74.0054 61.5048 74.0125 61.5335 74.0233L69.7201 77.0941C69.8226 77.1325 69.9075 77.2159 69.9562 77.3258C70.0049 77.4357 70.0134 77.5633 69.9797 77.6803C69.9461 77.7974 69.8731 77.8944 69.7768 77.95C69.6806 78.0056 69.5689 78.0153 69.4664 77.9768L61.2798 74.906C61.1848 74.8703 61.1046 74.7959 61.0545 74.697C61.0045 74.598 60.9881 74.4815 61.0086 74.3696C61.029 74.2578 61.0849 74.1585 61.1654 74.0907C61.2459 74.0229 61.3455 73.9913 61.4451 74.0021Z" fill="white"/>
<path d="M96.5 128C98.433 128 100 126.433 100 124.5C100 122.567 98.433 121 96.5 121C94.567 121 93 122.567 93 124.5C93 126.433 94.567 128 96.5 128Z" fill="#D6A75C"/>
<path d="M7.5 140C9.433 140 11 138.433 11 136.5C11 134.567 9.433 133 7.5 133C5.567 133 4 134.567 4 136.5C4 138.433 5.567 140 7.5 140Z" fill="#D6A75C"/>
<path d="M80.5 24C82.433 24 84 22.433 84 20.5C84 18.567 82.433 17 80.5 17C78.567 17 77 18.567 77 20.5C77 22.433 78.567 24 80.5 24Z" fill="#D6A75C"/>
<path d="M86.0076 78.741C85.5702 78.9232 85.0964 79.0112 84.6197 78.9989C84.143 78.9865 83.6748 78.8741 83.2483 78.6695C82.8218 78.465 82.4473 78.1732 82.1511 77.8148C81.8549 77.4565 81.6442 77.0402 81.5339 76.5953L70 75.478L73.8052 71L84.1746 72.7475C84.9663 72.6195 85.7796 72.7743 86.4602 73.1828C87.1408 73.5912 87.6415 74.2248 87.8675 74.9636C88.0934 75.7024 88.0289 76.4949 87.6861 77.1911C87.3433 77.8873 86.7461 78.4388 86.0076 78.741Z" fill="#FFB8B8"/>
<path d="M78.6937 77L50.8883 74.4166L50.8501 74.3724L30.557 50.9247C29.2215 48.8615 28.7187 46.3615 29.1514 43.9366C29.5842 41.5117 30.9199 39.3453 32.885 37.8811C33.9723 37.073 35.217 36.5062 36.5371 36.2182C37.8573 35.9301 39.223 35.9273 40.5443 36.2098C41.8656 36.4924 43.1126 37.0539 44.2032 37.8575C45.2938 38.661 46.2033 39.6884 46.8718 40.8719L59.3707 63.0035L79 70.9566L78.6937 77Z" fill="#D89EFF"/>
<path d="M149.876 32.112C149.172 26.9516 148.289 21.4111 144.645 17.6859C143.488 16.5039 142.105 15.568 140.576 14.9346C139.048 14.3013 137.408 13.9836 135.753 14.0007C134.099 14.0178 132.465 14.3693 130.95 15.0341C129.436 15.6989 128.072 16.6633 126.94 17.8689C124.288 20.6953 123.116 24.6641 123.009 28.5367C122.902 32.4093 123.765 36.2389 124.723 39.993C129.792 40.0941 134.824 39.1048 139.477 37.0923C140.64 36.5879 141.785 36.0177 143.014 35.7052C144.243 35.3927 145.12 36.179 146.263 36.7274L146.891 35.527C147.404 36.482 148.995 36.1989 149.572 35.2806C150.149 34.3623 150.023 33.1863 149.876 32.112Z" fill="#2F2E41"/>
<path d="M129.534 60.7588L109.047 61.2198C108.732 60.6476 108.266 60.1839 107.706 59.8852C107.145 59.5864 106.514 59.4656 105.89 59.5372C105.265 59.6089 104.674 59.8701 104.188 60.2889C103.702 60.7077 103.342 61.2662 103.152 61.8963C102.962 62.5264 102.95 63.201 103.118 63.8381C103.286 64.4751 103.626 65.0471 104.097 65.4845C104.568 65.9218 105.15 66.2057 105.771 66.3015C106.393 66.3973 107.028 66.3009 107.598 66.0241C110.316 66.1866 131.574 69.3611 132.842 67.3152C134.129 65.2388 141 57.9107 141 57.9107L135.719 50L129.534 60.7588Z" fill="#9E616A"/>
<path d="M134.5 37C139.747 37 144 32.7467 144 27.5C144 22.2533 139.747 18 134.5 18C129.253 18 125 22.2533 125 27.5C125 32.7467 129.253 37 134.5 37Z" fill="#9E616A"/>
<path d="M150.113 45.9101C148.984 43.6629 148.435 40.8868 146.027 40.1583C144.402 39.6664 137.826 40.4036 136.345 41.234C133.88 42.6154 136.114 45.2038 134.66 47.626C133.079 50.2593 128.783 55.5437 127.203 58.1769C126.116 59.9871 129.776 65.3006 129.189 67.3285C128.601 69.3564 128.573 71.6324 129.574 73.4914C130.47 75.1554 129.174 76.6273 130.075 78.2885C131.011 80.0161 132.161 86.4755 131.289 88.2368L130.705 89.9879C136.498 90.3282 141.369 83.4084 147.126 82.6795C148.556 82.4985 150.041 82.262 151.219 81.4321C152.955 80.2097 153.641 77.9915 154.07 75.9125C156.134 65.7503 154.741 55.1899 150.113 45.9101Z" fill="#3F3D56"/>
<path d="M158.969 70.2341C158.157 68.0073 156.686 58.2711 156.686 58.2711L147.48 58L151.981 69.1472L139.699 86.4123C139.699 86.4123 139.721 86.4503 139.763 86.5179C139.117 86.4139 138.455 86.508 137.863 86.788C137.272 87.0679 136.778 87.5207 136.447 88.0871C136.116 88.6534 135.963 89.3069 136.008 89.9621C136.053 90.6172 136.293 91.2436 136.698 91.7591C137.104 92.2746 137.654 92.6553 138.279 92.8513C138.903 93.0473 139.571 93.0496 140.197 92.8578C140.822 92.666 141.376 92.2891 141.784 91.7763C142.193 91.2636 142.438 90.6389 142.487 89.984C142.532 90.0101 142.585 90.0195 142.637 90.0106C142.688 90.0018 142.735 89.9752 142.769 89.9355C144.135 88.2134 159.782 72.461 158.969 70.2341Z" fill="#9E616A"/>
<path d="M159.929 63.7201C159.072 60.2106 158.207 56.682 156.761 53.3589C155.315 50.0358 153.244 46.897 150.332 44.652C149.401 43.9342 148.36 43.3007 147.192 43.0776C146.025 42.8544 144.71 43.1041 143.89 43.9398C142.579 45.277 142.973 47.4234 143.454 49.2086C144.873 54.4724 146.292 59.7362 147.71 65C151.807 64.5791 155.903 64.1582 160 63.7373L159.929 63.7201Z" fill="#3F3D56"/>
<path d="M146.745 28.9367C146.388 26.576 146.016 24.1956 145.178 21.9729C144.341 19.7501 142.99 17.6682 141.053 16.409C137.986 14.4154 134.016 14.7999 130.577 15.9466C127.918 16.8335 125.323 18.1815 123.447 20.3485C121.572 22.5156 120.519 25.6077 121.216 28.4412C124.884 27.5679 128.552 26.6945 132.22 25.8211L131.818 26.1071C133.023 26.7123 134.074 27.5861 134.893 28.6621C135.713 29.7381 136.278 30.9881 136.546 32.3171C136.808 33.6623 136.771 35.0495 136.436 36.3782C136.101 37.7069 135.477 38.944 134.61 40C137.111 39.1057 139.613 38.2114 142.114 37.3171C143.658 36.7651 145.311 36.129 146.226 34.7131C147.288 33.0715 147.041 30.8957 146.745 28.9367Z" fill="#2F2E41"/>
</g>
<defs>
<filter id="filter0_d_370_183" x="0" y="0" width="189" height="197" filterUnits="userSpaceOnUse" color-interpolation-filters="sRGB">
<feFlood flood-opacity="0" result="BackgroundImageFix"/>
<feColorMatrix in="SourceAlpha" type="matrix" values="0 0 0 0 0 0 0 0 0 0 0 0 0 0 0 0 0 0 127 0" result="hardAlpha"/>
<feOffset dy="4"/>
<feGaussianBlur stdDeviation="2"/>
<feComposite in2="hardAlpha" operator="out"/>
<feColorMatrix type="matrix" values="0 0 0 0 0 0 0 0 0 0 0 0 0 0 0 0 0 0 0.25 0"/>
<feBlend mode="normal" in2="BackgroundImageFix" result="effect1_dropShadow_370_183"/>
<feBlend mode="normal" in="SourceGraphic" in2="effect1_dropShadow_370_183" result="shape"/>
</filter>
</defs>
</svg>
