<svg width="244" height="163" viewBox="0 0 244 163" fill="none" xmlns="http://www.w3.org/2000/svg">
<path d="M42.8511 125.809C42.507 125.229 41.0182 125.85 40.7445 125.324C40.4718 124.799 41.855 124 42.6453 122.174C42.7878 121.845 43.6858 119.77 43.021 119.129C41.7608 117.916 35.9943 122.924 33.9763 121.285C33.5334 120.926 33.224 120.207 31.8836 119.042C31.3503 118.578 31.0279 118.368 30.7158 118.446C30.2731 118.557 30.238 119.149 29.7632 120.314C29.0511 122.061 28.63 121.956 28.2151 123.35C27.9071 124.385 27.9774 124.986 27.615 125.103C27.1022 125.269 26.6301 124.172 25.9802 124.27C25.317 124.37 24.916 125.648 24.7893 126.605C24.5517 128.4 25.2112 129.585 25.5767 130.831C25.974 132.185 26.2097 134.244 25.2923 137.158L16.2124 162.735C18.217 157.487 24.0212 143.1 26.4601 137.754C27.1642 136.21 27.9416 134.645 29.5378 134.027C31.0746 133.432 33.1852 133.787 35.8759 133.139C36.1902 133.063 37.0622 132.842 37.172 132.329C37.2628 131.905 36.7498 131.668 36.8286 131.271C36.9343 130.739 37.943 130.732 39.1826 130.118C40.0567 129.684 40.6012 129.169 41.0695 128.726C41.2106 128.592 43.3092 126.582 42.8511 125.809Z" fill="#D6A75C"/>
<path d="M7.12775 139.274C6.74366 139.276 6.61906 140.185 6.28162 140.168C5.94539 140.15 5.9521 139.241 5.28372 138.326C5.16318 138.161 4.40361 137.122 3.89744 137.263C2.93803 137.532 3.73298 141.806 2.34608 142.324C2.04172 142.437 1.59992 142.382 0.640842 142.703C0.259296 142.831 0.0634653 142.929 0.0116686 143.104C-0.06182 143.354 0.218908 143.542 0.653803 144.111C1.30601 144.964 1.13271 145.141 1.69727 145.746C2.11638 146.196 2.43201 146.335 2.38497 146.547C2.31842 146.846 1.64343 146.761 1.50414 147.108C1.36202 147.463 1.87366 148.028 2.30681 148.367C3.11966 149.001 3.89157 149.019 4.60862 149.2C5.38787 149.395 6.46666 149.874 7.63284 151.165L17.5692 163C15.5711 160.502 10.1829 153.503 8.26201 150.763C7.70749 149.973 7.16328 149.14 7.32055 148.178C7.47194 147.252 8.25526 146.319 8.71348 144.812C8.767 144.636 8.90971 144.144 8.68965 143.942C8.50771 143.775 8.24353 143.959 8.07134 143.805C7.84038 143.6 8.12821 143.103 8.1842 142.317C8.22368 141.763 8.12783 141.348 8.0454 140.99C8.02055 140.882 7.63904 139.272 7.12775 139.274Z" fill="#D6A75C"/>
<path d="M14.7903 140.994L14.5589 138.929L14.6646 138.772C15.1539 138.048 15.4032 137.341 15.4062 136.67C15.4067 136.563 15.4017 136.456 15.3968 136.348C15.3768 135.917 15.3519 135.381 15.6312 134.757C15.7878 134.409 16.2276 133.603 16.889 133.703C17.067 133.728 17.2017 133.81 17.3039 133.906C17.3189 133.882 17.3343 133.858 17.3508 133.832C17.5568 133.518 17.7198 133.383 17.8769 133.253C17.9976 133.154 18.1223 133.051 18.3178 132.808C18.4036 132.701 18.4704 132.607 18.5268 132.528C18.6979 132.29 18.9213 132.006 19.3153 132.011C19.7362 132.031 19.9566 132.379 20.1028 132.609C20.3636 133.02 20.4818 133.316 20.5601 133.513C20.5885 133.584 20.621 133.665 20.6374 133.69C20.7731 133.89 21.8758 133.703 22.2912 133.635C23.2243 133.48 24.0318 133.345 24.3644 133.933C24.6028 134.354 24.4258 134.911 23.8223 135.632C23.6343 135.856 23.4343 136.027 23.2567 136.16C23.4039 136.248 23.5355 136.383 23.5889 136.594C23.7146 137.095 23.2842 137.596 22.3102 138.087C22.0683 138.21 21.7426 138.373 21.2863 138.452C21.0713 138.489 20.8778 138.498 20.7122 138.503C20.7087 138.599 20.6863 138.702 20.6279 138.809C20.4569 139.123 20.1008 139.273 19.5642 139.237C18.9737 139.206 18.4874 139.093 18.0585 138.994C17.684 138.909 17.3613 138.836 17.1079 138.853C16.6381 138.891 16.276 139.267 15.8511 139.754L14.7903 140.994Z" fill="#D6A75C"/>
<path d="M15.8638 128.697L13.9243 129.445L13.746 129.382C12.9214 129.093 12.1741 129.031 11.524 129.198C11.4206 129.225 11.3187 129.257 11.2148 129.289C10.803 129.418 10.2912 129.578 9.6164 129.466C9.23994 129.403 8.34878 129.182 8.27752 128.517C8.25649 128.339 8.30144 128.188 8.36814 128.064C8.34118 128.056 8.3141 128.047 8.28485 128.038C7.92868 127.918 7.75706 127.795 7.59178 127.676C7.46468 127.584 7.33367 127.49 7.04866 127.362C6.92367 127.306 6.81602 127.266 6.72551 127.231C6.45152 127.126 6.11987 126.982 6.02476 126.6C5.93729 126.188 6.21811 125.886 6.40392 125.687C6.73527 125.33 6.99184 125.141 7.16206 125.015C7.22431 124.969 7.29424 124.918 7.31419 124.895C7.47275 124.713 7.01263 123.694 6.84165 123.31C6.45445 122.447 6.11939 121.7 6.60427 121.229C6.95096 120.892 7.53425 120.922 8.3849 121.323C8.64969 121.448 8.86539 121.598 9.03973 121.736C9.08732 121.571 9.18416 121.41 9.37518 121.304C9.82766 121.056 10.4221 121.345 11.1439 122.162C11.3239 122.365 11.5648 122.639 11.7567 123.06C11.847 123.258 11.9047 123.443 11.9516 123.602C12.0451 123.581 12.1511 123.577 12.2691 123.606C12.6165 123.692 12.8515 123.998 12.9529 124.526C13.0728 125.105 13.0871 125.604 13.1003 126.044C13.1124 126.428 13.1238 126.758 13.2045 126.999C13.3603 127.444 13.8159 127.699 14.3955 127.986L15.8638 128.697Z" fill="#D6A75C"/>
<path d="M14.7903 122.613L14.5589 120.548L14.6646 120.391C15.1539 119.667 15.4032 118.96 15.4062 118.289C15.4067 118.182 15.4017 118.075 15.3968 117.967C15.3768 117.536 15.3519 117 15.6312 116.376C15.7878 116.028 16.2276 115.222 16.889 115.322C17.067 115.347 17.2017 115.429 17.3039 115.525C17.3189 115.501 17.3343 115.477 17.3508 115.451C17.5568 115.137 17.7198 115.002 17.8769 114.872C17.9976 114.773 18.1223 114.67 18.3178 114.427C18.4036 114.32 18.4704 114.226 18.5268 114.147C18.6979 113.909 18.9213 113.625 19.3153 113.63C19.7362 113.65 19.9566 113.998 20.1028 114.228C20.3636 114.639 20.4818 114.935 20.5601 115.132C20.5885 115.203 20.621 115.284 20.6374 115.309C20.7731 115.509 21.8758 115.322 22.2912 115.254C23.2243 115.099 24.0318 114.964 24.3644 115.552C24.6028 115.973 24.4258 116.53 23.8223 117.251C23.6343 117.475 23.4343 117.646 23.2567 117.779C23.4039 117.867 23.5355 118.002 23.5889 118.213C23.7146 118.714 23.2842 119.215 22.3102 119.706C22.0683 119.829 21.7426 119.992 21.2863 120.071C21.0713 120.108 20.8778 120.117 20.7122 120.122C20.7087 120.218 20.6863 120.321 20.6279 120.428C20.4569 120.742 20.1008 120.892 19.5642 120.856C18.9737 120.825 18.4874 120.712 18.0585 120.613C17.684 120.528 17.3613 120.455 17.1079 120.472C16.6381 120.51 16.276 120.886 15.8511 121.373L14.7903 122.613Z" fill="#D6A75C"/>
<path d="M16.9039 162.702L16.471 162.43L15.9663 162.488C15.9583 162.441 15.9309 162.334 15.8895 162.165C15.6636 161.242 14.9748 158.432 14.4003 154.006C13.9993 150.916 13.7724 147.74 13.7255 144.564C13.6786 141.383 13.8292 138.975 13.9499 137.039C14.0412 135.579 14.1519 134.189 14.2606 132.835C14.5499 129.217 14.8227 125.799 14.6197 122.016C14.5748 121.171 14.4806 119.413 13.4532 117.542C12.8572 116.457 12.0363 115.494 11.0129 114.68L11.6493 113.88C12.7789 114.78 13.6871 115.847 14.3489 117.051C15.488 119.126 15.5908 121.041 15.6401 121.962C15.8466 125.812 15.5708 129.262 15.2785 132.915C15.1708 134.265 15.0601 135.649 14.9693 137.103C14.8496 139.02 14.7005 141.408 14.7469 144.548C14.7928 147.686 15.0172 150.824 15.4127 153.874C15.9803 158.244 16.659 161.012 16.882 161.922C17.0007 162.408 17.0256 162.509 16.9039 162.702Z" fill="#D6A75C"/>
<path d="M9.1397 116.302C9.09781 116.302 9.05541 116.301 9.01253 116.298C8.14274 116.252 7.3373 115.731 6.61813 114.752C6.28099 114.291 6.10843 113.765 5.7643 112.717C5.71094 112.556 5.45159 111.736 5.29399 110.608C5.19075 109.871 5.20373 109.563 5.34986 109.291C5.51194 108.988 5.77428 108.776 6.06952 108.634C6.05656 108.536 6.06702 108.435 6.10942 108.333C6.28348 107.907 6.7463 107.963 6.99666 107.99C7.12334 108.005 7.28144 108.026 7.45201 108.017C7.72032 108.004 7.86446 107.925 8.0829 107.805C8.29187 107.69 8.5517 107.548 8.93722 107.469C9.69729 107.31 10.3342 107.526 10.5441 107.597C11.6488 107.965 12.1934 108.823 12.8238 109.817C12.9495 110.017 13.3809 110.743 13.6657 111.738C13.8711 112.456 13.8422 112.775 13.7804 113.013C13.6547 113.5 13.358 113.779 12.6044 114.396C11.8174 115.041 11.4224 115.364 11.0832 115.56C10.2938 116.016 9.79802 116.302 9.1397 116.302Z" fill="#D6A75C"/>
<path d="M237.018 162.5C237.018 162.776 236.865 163 236.677 163H0.0181885V162H236.677C236.865 162 237.018 162.224 237.018 162.5Z" fill="#E6E6E6"/>
<path d="M168.871 54.0325C168.871 54.0325 156.098 55.5684 158.252 45.4713C160.407 35.3741 172.623 16.7241 172.623 16.7241L179.556 20.6111L171.597 39.4203L175.023 42.1227L168.871 54.0325Z" fill="#A0616A"/>
<path d="M210.73 41.74L208.93 56.5405L163.827 56.3196L172.886 40.58L210.73 41.74Z" fill="#D89EFF"/>
<path d="M183.927 17.5105C186.687 13.6565 186.908 9.08897 184.421 7.3086C181.934 5.52824 177.681 7.20924 174.921 11.0632C172.16 14.9172 171.939 19.4848 174.426 21.2651C176.913 23.0455 181.167 21.3645 183.927 17.5105Z" fill="#A0616A"/>
<path d="M206.393 98.167V162.399H209.163V98.167H206.393Z" fill="#3F3D56"/>
<path d="M193.101 98.167V162.399H195.87V98.167H193.101Z" fill="#3F3D56"/>
<path d="M118.609 57.7453V162.399H121.378V57.7453H118.609Z" fill="#E6E6E6"/>
<path d="M163.193 98.167V162.399H165.963V98.167H163.193Z" fill="#3F3D56"/>
<path d="M152.596 98.167V162.399H155.365V98.167H152.596Z" fill="#3F3D56"/>
<path d="M203.901 96.7827H150.424L140.166 111.33L193.378 114.502L203.901 96.7827Z" fill="#3F3D56"/>
<path d="M105.98 47.0097L106.223 36.4597L73.9475 38.9417L73.7824 46.0906L105.98 47.0097Z" fill="#A0616A"/>
<path d="M84.1361 37.6812L82.5925 41.3942L80.3755 41.465C80.3755 41.465 82.9712 42.2597 83.6923 46.9754L81.5622 47.6137C81.5622 47.6137 79.5166 49.5219 75.6925 49.3368L65.4395 48.4793L65.4001 44.9058L72.4864 44.087C72.4864 44.087 74.0654 43.0485 66.2489 38.7786C66.2489 38.7786 63.6596 37.1955 65.9883 29.3783C66.3084 28.3038 67.2753 27.5322 68.3963 27.5079C69.015 27.4945 69.5947 27.7167 69.8262 28.485C70.4153 30.4407 69.8192 32.3903 71.4381 33.611C73.057 34.8318 84.1361 37.6812 84.1361 37.6812Z" fill="#2F2E41"/>
<path d="M199.899 87.3434C199.899 87.3434 188.763 106.28 163.564 102.867C157.568 102.055 152.292 98.4904 149.286 93.2395C143.477 83.0904 134.655 65.3196 137.515 55.257L94.8965 47.1248L91.5386 36.7769L137.663 30.7867C141.742 30.2568 145.739 32.2404 147.783 35.8098L170.251 75.039L176.95 75.7702L199.899 87.3434Z" fill="#2F2E41"/>
<path d="M106.821 51.3286L106.214 40.7932L74.2435 45.8632L74.6542 53.0022L106.821 51.3286Z" fill="#A0616A"/>
<path d="M84.2976 43.7872L83.0578 47.6123L80.8537 47.8612C80.8537 47.8612 83.5049 48.4445 84.6031 53.0869L82.5313 53.8946C82.5313 53.8946 80.6459 55.961 76.8193 56.0841L66.5305 56.0541L66.2037 52.4953L73.2012 51.1093C73.2012 51.1093 74.6915 49.9471 66.5567 46.3198C66.5567 46.3198 63.8484 44.9501 65.5405 36.9709C65.7731 35.8742 66.6747 35.0272 67.7902 34.9129C68.4058 34.8498 69.0015 35.0246 69.294 35.7718C70.0386 37.6737 69.6013 39.665 71.3132 40.7516C73.0251 41.8382 84.2976 43.7872 84.2976 43.7872Z" fill="#2F2E41"/>
<path d="M203.682 83.9773C203.682 83.9773 194.105 103.748 168.714 102.373C162.671 102.046 157.126 98.9173 153.707 93.9252C147.1 84.2763 136.877 67.2727 138.918 57.0127L95.7831 52.3348L91.6033 42.2905L137.096 32.6098C141.12 31.7535 145.263 33.4091 147.588 36.8025L173.14 74.0974L179.875 74.2875L203.682 83.9773Z" fill="#2F2E41"/>
<path d="M174.491 0.491577L172.275 2.15274L183.906 18.2107L186.121 17.6569L174.491 0.491577Z" fill="#3F3D56"/>
<path d="M204.732 36.1502L217.47 35.5964L223.009 60.5139C223.009 60.5139 211.378 104.258 197.532 102.597C197.532 102.597 188.947 96.2289 188.947 94.0141C188.947 91.7992 177.317 86.262 177.317 86.262L174.547 76.8487L182.855 64.1131C182.855 64.1131 186.178 54.1461 197.255 48.6089L204.732 36.1502Z" fill="#D89EFF"/>
<path d="M131.901 55.5304H18.6395V58.299H74.0241V162.399H76.7934V58.299H131.901V55.5304Z" fill="#E6E6E6"/>
<path d="M211.378 33.9353C219.637 33.9353 226.332 27.2417 226.332 18.9848C226.332 10.7279 219.637 4.0343 211.378 4.0343C203.119 4.0343 196.424 10.7279 196.424 18.9848C196.424 27.2417 203.119 33.9353 211.378 33.9353Z" fill="#A0616A"/>
<path d="M159.238 38.0881L148.793 42.241L169.286 69.3734L176.486 63.8362L159.238 38.0881Z" fill="#D6A75C"/>
<path d="M200.024 90.1379C200.024 90.1379 196.147 102.403 187.84 96.2703C179.532 90.1379 167.589 71.3114 167.589 71.3114L173.993 66.6047L187.84 81.6206L191.717 79.6172L200.024 90.1379Z" fill="#A0616A"/>
<path d="M206.117 46.9478L218.855 54.6999L200.024 95.6752L187.84 79.0636L206.117 46.9478Z" fill="#D89EFF"/>
<path d="M172.47 71.5459C175.119 70.0168 175.345 65.4495 172.974 61.3445C170.604 57.2394 166.535 55.1512 163.886 56.6802C161.237 58.2093 161.011 62.7766 163.382 66.8817C165.752 70.9867 169.821 73.075 172.47 71.5459Z" fill="#A0616A"/>
<path d="M213.013 64.2504C216.851 51.6714 220.97 47.6907 225.3 50.183C228.596 52.08 229.588 56.3981 227.656 59.6734C222.733 68.0219 212.588 87.1502 214.701 99.8281C214.701 99.8281 218.024 117.547 191.44 117.547C164.855 117.547 139.378 111.456 139.378 111.456L153.224 109.241L184.712 111.49C191.906 112.004 197.97 105.849 197.008 98.7029C196.977 98.467 196.939 98.2285 196.895 97.9873C195.317 89.3073 213.013 64.2504 213.013 64.2504Z" fill="#3F3D56"/>
<path d="M205.812 12.7282C204.592 16.1321 207.274 19.6666 210.894 19.4262L210.98 19.4205C213.414 22.4509 213.481 26.7377 211.143 29.8423C210.951 33.8439 211.581 37.8424 212.993 41.5935L216.96 52.1326L223.067 49.2932L225.966 57L243.018 48.2486L232.683 25.0831L229.529 12.5152C227.285 3.57375 218.13 -1.80828 209.188 0.557843L202.328 2.37318C196.908 3.80735 193.789 9.46023 195.478 14.7874L205.812 12.7282Z" fill="#2F2E41"/>
</svg>
