<svg width="113" height="75" viewBox="0 0 113 75" fill="none" xmlns="http://www.w3.org/2000/svg">
<path fill-rule="evenodd" clip-rule="evenodd" d="M53.31 2.79596H70.8054L54.3402 13.9019H31.8448L44.1648 5.59193C46.4541 4.04776 50.5486 2.79596 53.31 2.79596ZM39.1648 5.59193C43.7435 2.50359 51.9323 0 57.4552 0H74.9506H79.9506L75.8054 2.79596L59.3402 13.9019L55.195 16.6979H50.195H27.6996H22.6996L26.8448 13.9019L39.1648 5.59193ZM98.8219 49.9127L91.8764 27.9476L89.0757 19.0901L89.2093 19H89.0472H84.2093H62.7226H57.7221L53.6477 21.796L33.8443 35.3856H33.6996L33.7254 35.4671L33.6996 35.4849H33.731L36.5454 44.3856L43.7949 67.3124C45.46 72.5783 51.0787 75.4973 56.3445 73.8322L92.3021 62.4623C97.5679 60.7972 100.487 55.1786 98.8219 49.9127ZM45.9846 44.3856L52.3761 64.599C52.5426 65.1256 53.1045 65.4175 53.6311 65.251L89.5887 53.8811C90.1152 53.7146 90.4072 53.1527 90.2406 52.6261L84.0965 33.1952L78.0777 37.255C74.8186 39.4532 70.7335 41.1779 66.8852 42.3545C63.0369 43.531 58.6857 44.3856 54.7546 44.3856H45.9846ZM58.6482 21.796L42.7745 32.6889H58.9147C61.6761 32.6889 65.7705 31.4371 68.0599 29.8929L80.0641 21.796H58.6482ZM19.4552 19H51.9506L27.195 35.6979H4.69959C-0.823255 35.6979 -1.58868 33.1943 2.98997 30.1059L19.4552 19ZM107.951 0H85.4552L60.6996 16.6979H93.195L109.66 5.59193C114.239 2.50359 113.473 0 107.951 0Z" fill="url(#paint0_linear_80_87)"/>
<defs>
<linearGradient id="paint0_linear_80_87" x1="39" y1="-23" x2="77" y2="100" gradientUnits="userSpaceOnUse">
<stop stop-color="#9A6AFF"/>
<stop offset="1" stop-color="#EFC017"/>
</linearGradient>
</defs>
</svg>
