<svg width="224" height="258" viewBox="0 0 224 258" fill="none" xmlns="http://www.w3.org/2000/svg">
<path d="M210.908 209.901C210.467 209.157 208.559 209.954 208.209 209.279C207.859 208.606 209.632 207.581 210.644 205.239C210.827 204.816 211.978 202.155 211.126 201.334C209.511 199.777 202.121 206.201 199.535 204.099C198.968 203.638 198.571 202.717 196.853 201.221C196.17 200.626 195.757 200.358 195.357 200.458C194.789 200.6 194.744 201.359 194.136 202.854C193.223 205.094 192.684 204.959 192.152 206.747C191.757 208.074 191.848 208.845 191.383 208.996C190.726 209.208 190.121 207.801 189.288 207.927C188.438 208.055 187.924 209.694 187.762 210.921C187.457 213.224 188.303 214.744 188.771 216.341C189.28 218.078 189.582 220.718 188.407 224.457L176.771 257.26C179.339 250.529 186.778 232.077 189.903 225.22C190.805 223.241 191.802 221.233 193.847 220.441C195.817 219.678 198.521 220.133 201.97 219.302C202.372 219.205 203.49 218.92 203.63 218.263C203.747 217.719 203.089 217.415 203.19 216.906C203.326 216.223 204.618 216.215 206.207 215.427C207.327 214.871 208.025 214.21 208.625 213.642C208.806 213.47 211.495 210.892 210.908 209.901Z" fill="#D6A75C"/>
<path d="M165.129 227.17C164.636 227.172 164.477 228.339 164.044 228.317C163.613 228.294 163.622 227.128 162.765 225.955C162.611 225.743 161.638 224.41 160.989 224.592C159.759 224.935 160.778 230.418 159.001 231.081C158.611 231.227 158.045 231.156 156.816 231.568C156.327 231.732 156.076 231.858 156.009 232.083C155.915 232.402 156.275 232.644 156.832 233.374C157.668 234.468 157.446 234.694 158.169 235.471C158.706 236.048 159.111 236.226 159.051 236.498C158.965 236.882 158.1 236.773 157.922 237.218C157.74 237.673 158.395 238.398 158.951 238.832C159.992 239.646 160.981 239.669 161.9 239.9C162.899 240.151 164.281 240.765 165.776 242.421L178.509 257.6C175.949 254.396 169.044 245.419 166.582 241.906C165.872 240.892 165.174 239.823 165.376 238.59C165.57 237.403 166.573 236.206 167.161 234.273C167.229 234.047 167.412 233.416 167.13 233.157C166.897 232.943 166.558 233.178 166.338 232.982C166.042 232.718 166.411 232.081 166.482 231.073C166.533 230.363 166.41 229.83 166.305 229.371C166.273 229.233 165.784 227.168 165.129 227.17Z" fill="#D6A75C"/>
<path d="M174.948 229.376L174.652 226.727L174.787 226.527C175.414 225.598 175.734 224.691 175.737 223.83C175.738 223.694 175.732 223.557 175.725 223.417C175.7 222.865 175.668 222.178 176.026 221.377C176.226 220.931 176.79 219.897 177.638 220.025C177.866 220.057 178.038 220.162 178.169 220.285C178.189 220.254 178.208 220.224 178.229 220.19C178.493 219.787 178.702 219.615 178.904 219.449C179.058 219.321 179.218 219.189 179.469 218.877C179.579 218.74 179.664 218.62 179.737 218.519C179.956 218.213 180.242 217.849 180.747 217.855C181.286 217.881 181.569 218.327 181.756 218.622C182.09 219.149 182.242 219.529 182.342 219.781C182.379 219.873 182.42 219.977 182.441 220.009C182.615 220.265 184.028 220.025 184.561 219.938C185.756 219.739 186.791 219.566 187.217 220.321C187.523 220.861 187.296 221.574 186.523 222.499C186.282 222.787 186.025 223.005 185.798 223.177C185.986 223.289 186.155 223.462 186.224 223.733C186.385 224.375 185.833 225.019 184.585 225.648C184.275 225.805 183.858 226.015 183.273 226.116C182.997 226.163 182.749 226.175 182.537 226.181C182.533 226.304 182.504 226.437 182.429 226.574C182.21 226.977 181.754 227.169 181.066 227.123C180.309 227.083 179.686 226.938 179.136 226.812C178.656 226.702 178.243 226.608 177.918 226.63C177.316 226.679 176.852 227.161 176.308 227.786L174.948 229.376Z" fill="#D6A75C"/>
<path d="M176.324 213.605L173.838 214.564L173.61 214.484C172.553 214.112 171.596 214.033 170.762 214.248C170.63 214.282 170.499 214.323 170.366 214.364C169.838 214.529 169.183 214.734 168.318 214.591C167.835 214.51 166.693 214.227 166.602 213.374C166.575 213.145 166.633 212.951 166.718 212.793C166.684 212.783 166.649 212.771 166.611 212.759C166.155 212.606 165.935 212.447 165.723 212.295C165.56 212.177 165.392 212.056 165.027 211.893C164.867 211.821 164.729 211.769 164.613 211.725C164.262 211.59 163.837 211.405 163.715 210.915C163.603 210.386 163.963 210 164.201 209.744C164.626 209.286 164.954 209.043 165.173 208.882C165.252 208.824 165.342 208.757 165.368 208.729C165.571 208.496 164.981 207.189 164.762 206.695C164.266 205.589 163.836 204.631 164.458 204.027C164.902 203.594 165.65 203.633 166.74 204.147C167.079 204.307 167.355 204.5 167.579 204.676C167.64 204.465 167.764 204.258 168.009 204.123C168.589 203.805 169.35 204.175 170.275 205.224C170.506 205.484 170.815 205.835 171.061 206.375C171.176 206.63 171.25 206.867 171.31 207.07C171.43 207.044 171.566 207.038 171.717 207.075C172.162 207.185 172.464 207.578 172.594 208.256C172.747 208.998 172.765 209.638 172.782 210.202C172.798 210.694 172.813 211.118 172.916 211.427C173.116 211.997 173.699 212.324 174.442 212.693L176.324 213.605Z" fill="#D6A75C"/>
<path d="M174.948 205.802L174.652 203.153L174.787 202.952C175.414 202.023 175.734 201.117 175.737 200.256C175.738 200.119 175.732 199.982 175.725 199.843C175.7 199.29 175.668 198.603 176.026 197.803C176.226 197.356 176.79 196.323 177.638 196.451C177.866 196.483 178.038 196.588 178.169 196.711C178.189 196.68 178.208 196.649 178.229 196.616C178.493 196.213 178.702 196.04 178.904 195.874C179.058 195.746 179.218 195.614 179.469 195.302C179.579 195.166 179.664 195.045 179.737 194.944C179.956 194.639 180.242 194.274 180.747 194.28C181.286 194.306 181.569 194.752 181.756 195.048C182.09 195.575 182.242 195.955 182.342 196.207C182.379 196.299 182.42 196.402 182.441 196.434C182.615 196.69 184.028 196.451 184.561 196.364C185.756 196.164 186.791 195.992 187.217 196.746C187.523 197.286 187.296 198 186.523 198.925C186.282 199.212 186.025 199.431 185.798 199.602C185.986 199.715 186.155 199.888 186.224 200.159C186.385 200.801 185.833 201.444 184.585 202.073C184.275 202.231 183.858 202.44 183.273 202.542C182.997 202.589 182.749 202.6 182.537 202.607C182.533 202.73 182.504 202.863 182.429 202.999C182.21 203.402 181.754 203.594 181.066 203.548C180.309 203.508 179.686 203.364 179.136 203.237C178.656 203.127 178.243 203.034 177.918 203.056C177.316 203.104 176.852 203.586 176.308 204.212L174.948 205.802Z" fill="#D6A75C"/>
<path d="M177.657 257.217L177.102 256.869L176.455 256.943C176.445 256.883 176.41 256.745 176.357 256.529C176.067 255.345 175.185 251.74 174.448 246.064C173.935 242.102 173.644 238.028 173.584 233.955C173.524 229.875 173.717 226.786 173.871 224.304C173.988 222.431 174.13 220.648 174.269 218.911C174.64 214.271 174.99 209.888 174.73 205.035C174.672 203.952 174.551 201.697 173.235 199.298C172.471 197.906 171.419 196.671 170.107 195.627L170.923 194.601C172.371 195.755 173.534 197.124 174.383 198.669C175.842 201.329 175.974 203.786 176.037 204.966C176.302 209.905 175.948 214.33 175.574 219.015C175.436 220.745 175.294 222.521 175.178 224.385C175.024 226.845 174.833 229.907 174.893 233.934C174.951 237.959 175.239 241.983 175.746 245.896C176.473 251.5 177.343 255.051 177.629 256.217C177.781 256.84 177.813 256.97 177.657 257.217Z" fill="#D6A75C"/>
<path d="M167.707 197.708C167.653 197.708 167.599 197.707 167.544 197.703C166.429 197.643 165.397 196.975 164.475 195.719C164.043 195.128 163.822 194.454 163.381 193.11C163.313 192.903 162.981 191.852 162.779 190.405C162.646 189.46 162.663 189.065 162.85 188.716C163.058 188.327 163.394 188.056 163.772 187.873C163.756 187.747 163.769 187.618 163.824 187.486C164.047 186.94 164.64 187.012 164.961 187.046C165.123 187.067 165.326 187.094 165.544 187.082C165.888 187.066 166.073 186.963 166.353 186.81C166.62 186.663 166.953 186.48 167.447 186.379C168.421 186.175 169.238 186.452 169.507 186.543C170.922 187.014 171.62 188.116 172.428 189.391C172.589 189.647 173.142 190.578 173.507 191.854C173.77 192.775 173.733 193.184 173.654 193.489C173.493 194.114 173.113 194.472 172.147 195.263C171.138 196.09 170.632 196.505 170.198 196.757C169.186 197.341 168.551 197.708 167.707 197.708Z" fill="#D6A75C"/>
<path d="M125.629 73.3864C129.17 71.6151 131.127 68.3511 130 66.0963C128.873 63.8415 125.089 63.4501 121.547 65.2224C120.122 65.911 118.883 66.931 117.933 68.197L103.024 75.8915L106.781 82.8153L121.081 74.4947C122.663 74.494 124.223 74.114 125.629 73.3864Z" fill="#FFB6B6"/>
<path d="M41.154 252.378L48.2511 252.377L51.6272 224.987L41.1526 224.987L41.154 252.378Z" fill="#FFB6B6"/>
<path d="M65.4695 252.217C65.6905 252.589 65.8071 253.791 65.8071 254.224C65.8071 255.555 64.7287 256.635 63.3983 256.635H41.4194C40.5119 256.635 39.7761 255.898 39.7761 254.99V254.075C39.7761 254.075 38.6889 251.323 40.9274 247.931C40.9274 247.931 43.7095 250.587 47.8668 246.427L49.0927 244.205L57.9669 250.699L62.8856 251.305C63.9618 251.437 64.916 251.284 65.4695 252.217Z" fill="#2F2E41"/>
<path d="M52.2986 222.26L58.6014 225.524L74.1855 202.753L64.8833 197.935L52.2986 222.26Z" fill="#FFB6B6"/>
<path d="M73.9658 233.303C73.9909 233.735 73.5422 234.856 73.3432 235.241C72.7316 236.423 71.2781 236.885 70.0967 236.273L50.5785 226.162C49.7726 225.745 49.4574 224.752 49.8747 223.946L50.2954 223.133C50.2954 223.133 50.5943 220.189 54.1407 218.207C54.1407 218.207 55.3911 221.845 60.9942 220.064L63.104 218.654L68.0007 228.503L72.0904 231.304C72.9852 231.917 73.9029 232.22 73.9658 233.303Z" fill="#2F2E41"/>
<path d="M33.9466 34.9685H52.5588L52.1526 41.0407L64.2899 79.751L66.5657 105.558L43.8082 109.353L33.188 61.5344L35.4638 39.5227L33.9466 34.9685Z" fill="#D89EFF"/>
<path d="M35.0845 39.9021L15.3613 49.7694L27.4987 90.7568L25.2229 132.503C25.2229 132.503 56.3248 142.371 54.8076 114.287C53.2905 86.2027 53.2905 81.6485 53.2905 81.6485L35.0845 39.9021Z" fill="#2F2E41"/>
<path d="M66.5657 45.0151C66.5657 45.0151 71.4964 41.4201 73.7722 46.7333C76.0479 52.0465 90.8403 78.9919 90.8403 78.9919L113.977 68.7451L117.77 77.0943C117.77 77.0943 98.8054 95.3109 87.4267 93.0339C76.0479 90.7568 66.945 71.0221 66.945 71.0221L66.5657 45.0151Z" fill="#2F2E41"/>
<path d="M27.4987 124.913C27.4987 124.913 26.7401 137.057 28.2573 146.925C29.7744 156.792 40.0153 240.664 40.0153 240.664L52.9112 239.905L54.0491 141.612L72.255 170.454L56.3248 213.719L67.3242 218.653L90.461 171.214L74.5308 117.323L69.9793 103.66L35.8431 107.455L27.4987 124.913Z" fill="#2F2E41"/>
<path d="M78.3237 127.949C78.3237 127.949 57.842 134.021 53.2905 81.6484L52.261 39.4202L71.4965 44.4562L69.2207 82.4074L78.3237 127.949Z" fill="#2F2E41"/>
<path d="M43.4289 30.0347C50.9701 30.0347 57.0834 23.9179 57.0834 16.3723C57.0834 8.82673 50.9701 2.70984 43.4289 2.70984C35.8877 2.70984 29.7744 8.82673 29.7744 16.3723C29.7744 23.9179 35.8877 30.0347 43.4289 30.0347Z" fill="#FFB6B6"/>
<path d="M34.7052 29.6553C34.7052 29.6553 28.6365 22.824 27.878 19.7879C27.1194 16.7518 27.1194 8.40255 27.878 7.64353C28.6365 6.8845 36.9809 -0.705748 40.0153 0.0532734C43.0496 0.812295 49.0644 4.60742 54.4283 4.60742C55.9455 4.60742 56.7041 12.1977 56.7041 12.1977L50.6354 12.9567C50.6354 12.9567 43.0496 9.16157 43.8082 12.9567C44.5668 16.7518 38.4981 16.7518 38.4981 16.7518L39.2567 19.7879L36.9809 20.547L35.4638 17.5109C35.4638 17.5109 36.2224 24.3421 38.4981 27.3782C40.7739 30.4143 34.7052 29.6553 34.7052 29.6553Z" fill="#2F2E41"/>
<path d="M28.6592 138.941C30.741 142.311 34.1661 143.967 36.309 142.641C38.4518 141.315 38.5009 137.509 36.4179 134.139C35.6042 132.781 34.4775 131.638 33.1319 130.805L24.1309 116.64L17.5775 121.008L27.1466 134.509C27.2898 136.086 27.8085 137.606 28.6592 138.941Z" fill="#FFB6B6"/>
<path d="M18.3957 49.7694H14.6028C14.6028 49.7694 -0.568881 83.9255 0.189698 90.7568C0.189698 90.7568 0.189698 96.829 3.98261 101.383C7.77553 105.937 23.7058 131.744 23.7058 131.744L30.533 126.431L16.8785 94.5519L25.2229 61.1548L18.3957 49.7694Z" fill="#2F2E41"/>
<path d="M141.231 97.6C139.414 97.6 137.683 96.8584 136.437 95.5355C128.417 87.0174 124 75.8868 124 64.1943C124 54.4507 127.026 45.1481 132.75 37.2919C133.881 35.7398 135.636 34.7658 137.566 34.6198C139.526 34.4689 141.443 35.1861 142.824 36.5808L166.082 60.0517C168.41 62.4006 168.648 66.1507 166.636 68.7745L146.537 94.9847C145.342 96.5422 143.532 97.4922 141.569 97.5915C141.456 97.5971 141.343 97.6 141.231 97.6Z" fill="#D89EFF"/>
<path d="M177.733 110.6C170.615 110.6 163.784 109.031 157.431 105.938C155.124 104.814 153.463 102.743 152.875 100.255C152.287 97.7672 152.846 95.1775 154.409 93.1499L171.035 71.5732C174.06 67.6482 173.702 62.0381 170.203 58.5237L153.184 41.4315C150.724 38.9608 149.608 35.5723 150.123 32.1348C150.641 28.6794 152.716 25.7444 155.816 24.0828C162.805 20.3362 170.725 18.44 178.72 18.6105C202.814 19.1103 222.675 38.225 223.934 62.1266C224.607 74.8962 220.119 87.0181 211.298 96.2592C202.471 105.507 190.551 110.6 177.733 110.6ZM177.75 20.1685C170.346 20.1685 172.118 27.1513 165.641 30.623C162.983 32.0477 152.127 29.404 151.683 32.366C151.242 35.3099 152.197 38.2122 154.304 40.3284L171.324 57.4206C175.375 61.4888 175.789 67.9831 172.288 72.5268L155.661 94.1035C154.387 95.7569 153.931 97.8682 154.411 99.8969C154.89 101.925 156.244 103.614 158.125 104.53C164.26 107.517 170.857 97.0091 177.733 97.0091C190.114 97.0091 201.628 104.112 210.154 95.1801C218.674 86.2537 223.009 74.5442 222.359 62.2088C221.143 39.1232 201.96 20.6611 178.687 20.1782C178.375 20.1718 178.062 20.1685 177.75 20.1685Z" fill="#E6E6E6"/>
<path d="M181.315 65.0114C180.438 63.9963 180 62.5106 180 60.5533C180 58.6148 180.438 57.1375 181.315 56.1224C182.191 55.1075 183.405 54.6 184.955 54.6C186.523 54.6 187.751 55.1075 188.637 56.1224C189.523 57.1375 189.965 58.6148 189.965 60.5533C189.965 62.5106 189.523 63.9963 188.637 65.0114C187.751 66.0265 186.523 66.5341 184.955 66.5341C183.405 66.5341 182.191 66.0265 181.315 65.0114ZM186.533 63.4339C186.865 62.8487 187.031 61.8886 187.031 60.5533C187.031 59.2548 186.86 58.3084 186.519 57.7138C186.177 57.1197 185.656 56.8222 184.955 56.8222C184.272 56.8222 183.765 57.1197 183.432 57.7138C183.1 58.3084 182.934 59.2548 182.934 60.5533C182.934 61.87 183.1 62.8261 183.432 63.4203C183.765 64.0149 184.272 64.3118 184.955 64.3118C185.675 64.3118 186.201 64.0196 186.533 63.4339ZM186.286 71.7959L196.166 54.8741C197.53 54.8741 198.381 56.3388 197.697 57.5082L187.806 74.408C186.454 74.408 185.609 72.9562 186.286 71.7959ZM195.349 73.0773C194.473 72.0622 194.035 70.567 194.035 68.5916C194.035 66.6532 194.473 65.1808 195.349 64.1746C196.226 63.169 197.449 62.6659 199.017 62.6659C200.586 62.6659 201.809 63.169 202.685 64.1746C203.561 65.1808 204 66.6623 204 68.6191C204 70.5765 203.561 72.0622 202.685 73.0773C201.809 74.0924 200.586 74.6 199.017 74.6C197.449 74.6 196.226 74.0924 195.349 73.0773ZM200.568 71.4861C200.9 70.892 201.066 69.9362 201.066 68.6191C201.066 67.3207 200.895 66.3743 200.554 65.7797C200.212 65.1856 199.7 64.8881 199.017 64.8881C198.316 64.8881 197.799 65.1856 197.467 65.7797C197.135 66.3743 196.969 67.3207 196.969 68.6191C196.969 69.9362 197.135 70.892 197.467 71.4861C197.799 72.0808 198.316 72.3777 199.017 72.3777C199.719 72.3777 200.235 72.0808 200.568 71.4861Z" fill="#D89EFF"/>
</svg>
