<svg width="257" height="172" viewBox="0 0 257 172" fill="none" xmlns="http://www.w3.org/2000/svg">
<g clip-path="url(#clip0_348_365)" filter="url(#filter0_d_348_365)">
<path d="M38.9153 163.869L38.2327 163.856C38.4967 156.273 39.3065 148.719 40.6558 141.252C43.6076 125.266 48.5158 114.768 55.2441 110.048L55.6361 110.606C39.9186 121.631 38.9233 163.448 38.9153 163.869Z" fill="#2F2E41"/>
<path d="M47.4479 163.706L46.7653 163.693C46.7799 162.937 47.2066 145.138 54.2202 140.218L54.6122 140.776C47.8815 145.498 47.4512 163.524 47.4479 163.706Z" fill="#2F2E41"/>
<path d="M59.5194 110.668C61.4044 110.668 62.9324 109.141 62.9324 107.258C62.9324 105.375 61.4044 103.848 59.5194 103.848C57.6344 103.848 56.1064 105.375 56.1064 107.258C56.1064 109.141 57.6344 110.668 59.5194 110.668Z" fill="#D6A75C"/>
<path d="M57.8292 139.993C59.7142 139.993 61.2422 138.466 61.2422 136.583C61.2422 134.7 59.7142 133.173 57.8292 133.173C55.9443 133.173 54.4162 134.7 54.4162 136.583C54.4162 138.466 55.9443 139.993 57.8292 139.993Z" fill="#D6A75C"/>
<path d="M45.8569 112.712C46.4984 116.805 44.8266 120.466 44.8266 120.466C44.8266 120.466 42.1149 117.491 41.4734 113.398C40.832 109.304 42.5038 105.643 42.5038 105.643C42.5038 105.643 45.2155 108.619 45.8569 112.712Z" fill="#2F2E41"/>
<path d="M57.0131 122.653C53.0906 123.997 49.1909 122.991 49.1909 122.991C49.1909 122.991 51.651 119.804 55.5736 118.46C59.4961 117.116 63.3958 118.123 63.3958 118.123C63.3958 118.123 60.9357 121.309 57.0131 122.653Z" fill="#2F2E41"/>
<path d="M57.1392 148.623C55.3638 149.181 53.4732 149.262 51.6564 148.86C52.81 147.393 54.3636 146.29 56.1301 145.684C57.8967 145.079 59.8007 144.997 61.6129 145.448C60.4257 146.879 58.883 147.975 57.1392 148.623Z" fill="#2F2E41"/>
<path d="M195.058 159.397H190.573L188.44 142.114L195.059 142.114L195.058 159.397Z" fill="#9E616A"/>
<path d="M196.202 163.741L181.741 163.74V163.557C181.741 162.066 182.334 160.636 183.389 159.581C184.445 158.527 185.876 157.934 187.369 157.934L196.202 157.934L196.202 163.741Z" fill="#2F2E41"/>
<path d="M167.378 159.397H162.893L160.759 142.114L167.378 142.114L167.378 159.397Z" fill="#9E616A"/>
<path d="M168.522 163.741L154.06 163.74V163.557C154.061 162.066 154.654 160.636 155.709 159.581C156.765 158.527 158.196 157.934 159.689 157.934H159.689L168.522 157.934L168.522 163.741Z" fill="#2F2E41"/>
<path d="M156.19 62.6115L149.978 61.6526L147.971 64.8797L126.376 70.3794L126.435 70.6768C125.824 70.0397 125.022 69.6188 124.151 69.4776C123.279 69.3364 122.386 69.4827 121.605 69.8944C120.824 70.306 120.198 70.9606 119.823 71.759C119.448 72.5575 119.343 73.4563 119.525 74.3196C119.706 75.1828 120.164 75.9634 120.83 76.5433C121.495 77.1232 122.331 77.4708 123.212 77.5334C124.093 77.5961 124.97 77.3705 125.711 76.8907C126.452 76.4108 127.016 75.703 127.318 74.8742L153.47 69.4248L156.19 62.6115Z" fill="#9E616A"/>
<path d="M218.226 58.7688C217.715 58.7693 217.208 58.8666 216.733 59.0556L216.857 58.8396L189.401 44.6611L185.658 50.7069L214.203 63.3662C214.307 64.1389 214.631 64.8653 215.137 65.4586C215.643 66.0518 216.31 66.4869 217.057 66.7117C217.804 66.9365 218.6 66.9415 219.35 66.7261C220.1 66.5108 220.772 66.0841 221.286 65.4973C221.799 64.9104 222.133 64.1881 222.246 63.4169C222.36 62.6456 222.249 61.858 221.926 61.1483C221.603 60.4385 221.083 59.8366 220.427 59.4147C219.77 58.9927 219.007 58.7685 218.226 58.7688Z" fill="#9E616A"/>
<path d="M174.914 21.7898C175.987 15.1836 171.496 8.95908 164.884 7.88703C158.272 6.81499 152.042 11.3013 150.969 17.9076C149.895 24.5138 154.386 30.7383 160.998 31.8104C167.61 32.8824 173.841 28.3961 174.914 21.7898Z" fill="#2F2E41"/>
<path d="M162.837 31.8623C167.11 31.8623 170.574 28.4012 170.574 24.1318C170.574 19.8623 167.11 16.4012 162.837 16.4012C158.563 16.4012 155.099 19.8623 155.099 24.1318C155.099 28.4012 158.563 31.8623 162.837 31.8623Z" fill="#A0616A"/>
<path d="M162.941 21.5201C167.561 21.5201 171.306 19.2751 171.306 16.5057C171.306 13.7364 167.561 11.4913 162.941 11.4913C158.321 11.4913 154.576 13.7364 154.576 16.5057C154.576 19.2751 158.321 21.5201 162.941 21.5201Z" fill="#2F2E41"/>
<path d="M163.778 12.745C166.549 12.745 168.797 10.5 168.797 7.73059C168.797 4.96121 166.549 2.71619 163.778 2.71619C161.006 2.71619 158.759 4.96121 158.759 7.73059C158.759 10.5 161.006 12.745 163.778 12.745Z" fill="#2F2E41"/>
<path d="M157.086 5.01438C157.086 3.77492 157.545 2.5794 158.375 1.65844C159.206 0.737485 160.348 0.156339 161.582 0.0271134C161.408 0.00909535 161.234 4.47014e-05 161.059 0C159.729 0.00154976 158.454 0.530533 157.514 1.47075C156.574 2.41096 156.046 3.68551 156.046 5.0144C156.046 6.34329 156.574 7.61784 157.514 8.55805C158.454 9.49827 159.729 10.0273 161.059 10.0288C161.234 10.0288 161.408 10.0197 161.582 10.0017C160.348 9.87247 159.206 9.29132 158.375 8.37035C157.545 7.44938 157.086 6.25385 157.086 5.01438Z" fill="#2F2E41"/>
<path d="M158.814 43.3234L159.438 37.3299C159.438 37.3299 167.904 31.7556 170.781 35.0502L187.979 64.448C187.979 64.448 198.669 68.2452 198.292 82.7449L197.78 152.832L185.658 154.16L178.297 99.516L171.646 156.129L157.533 155.688L158.803 118.392L165.533 82.2375L165.468 70.2406L162.504 65.399C162.504 65.399 157.075 63.2199 156.923 57.0618L156.804 48.4055L158.814 43.3234Z" fill="#2F2E41"/>
<path d="M167.691 36.6957L167.858 33.8862C167.858 33.8862 193.467 40.6283 191.435 45.4489C189.403 50.2694 185.594 51.7917 185.594 51.7917L170.865 45.9563L167.691 36.6957Z" fill="#2F2E41"/>
<path d="M160.999 43.6866L159.072 41.6337C159.072 41.6337 143.703 63.1805 148.351 65.588C152.998 67.9954 156.901 66.7315 156.901 66.7315L164.487 52.8338L160.999 43.6866Z" fill="#2F2E41"/>
<path d="M130.236 113.847L226.674 94.6142L218.615 54.2762L122.176 73.5095L130.236 113.847Z" fill="black"/>
<path d="M227.463 95.1404L129.709 114.636L121.387 72.9834L219.141 53.4878L227.463 95.1404ZM130.762 113.059L225.885 94.0883L218.088 55.0648L122.965 74.0356L130.762 113.059Z" fill="#D6A75C"/>
<path d="M212.026 67.1992L133.98 82.7644L134.386 84.7975L212.432 69.2323L212.026 67.1992Z" fill="#E4E4E4"/>
<path d="M213.608 75.1154L135.561 90.6805L135.968 92.7136L214.014 77.1484L213.608 75.1154Z" fill="#E4E4E4"/>
<path d="M215.198 83.0771L137.152 98.6423L137.558 100.675L215.605 85.1102L215.198 83.0771Z" fill="#E4E4E4"/>
<path d="M174.736 79.8328L172.006 80.3772C171.807 80.4167 171.6 80.3756 171.431 80.2629C171.262 80.1502 171.144 79.975 171.104 79.7759L169.814 73.3166C169.774 73.1174 169.815 72.9106 169.928 72.7417C170.041 72.5727 170.216 72.4554 170.415 72.4154L173.145 71.871C173.344 71.8315 173.551 71.8726 173.721 71.9853C173.89 72.098 174.007 72.2732 174.047 72.4723L175.338 78.9315C175.377 79.1308 175.336 79.3375 175.223 79.5065C175.11 79.6755 174.935 79.7928 174.736 79.8328Z" fill="#D89EFF"/>
<path d="M205.828 81.9765L203.098 82.5208C202.899 82.5604 202.692 82.5193 202.523 82.4066C202.354 82.2938 202.236 82.1187 202.196 81.9195L200.906 75.4603C200.866 75.2611 200.907 75.0543 201.02 74.8853C201.133 74.7164 201.308 74.599 201.507 74.5591L204.237 74.0147C204.437 73.9751 204.643 74.0162 204.813 74.129C204.982 74.2417 205.099 74.4168 205.139 74.616L206.43 81.0752C206.469 81.2744 206.428 81.4812 206.315 81.6502C206.202 81.8191 206.027 81.9365 205.828 81.9765Z" fill="#D89EFF"/>
<path d="M188.99 93.5005L186.261 94.0449C186.061 94.0844 185.854 94.0433 185.685 93.9306C185.516 93.8179 185.398 93.6427 185.358 93.4436L184.068 86.9844C184.028 86.7851 184.069 86.5783 184.182 86.4094C184.295 86.2404 184.47 86.1231 184.67 86.0831L187.399 85.5387C187.599 85.4992 187.806 85.5403 187.975 85.653C188.144 85.7658 188.261 85.9409 188.301 86.14L189.592 92.5993C189.632 92.7985 189.59 93.0053 189.478 93.1742C189.365 93.3432 189.189 93.4605 188.99 93.5005Z" fill="#D89EFF"/>
<path d="M235.714 173H21.2855C21.2098 173 21.1372 172.473 21.0836 171.535C21.0301 170.598 21 169.326 21 168C21 166.674 21.0301 165.402 21.0836 164.464C21.1372 163.527 21.2098 163 21.2855 163H235.714C235.79 163 235.863 163.527 235.916 164.464C235.97 165.402 236 166.674 236 168C236 169.326 235.97 170.598 235.916 171.535C235.863 172.473 235.79 173 235.714 173Z" fill="#D6A75C"/>
</g>
<defs>
<filter id="filter0_d_348_365" x="-4" y="0" width="265" height="172" filterUnits="userSpaceOnUse" color-interpolation-filters="sRGB">
<feFlood flood-opacity="0" result="BackgroundImageFix"/>
<feColorMatrix in="SourceAlpha" type="matrix" values="0 0 0 0 0 0 0 0 0 0 0 0 0 0 0 0 0 0 127 0" result="hardAlpha"/>
<feOffset dy="4"/>
<feGaussianBlur stdDeviation="2"/>
<feComposite in2="hardAlpha" operator="out"/>
<feColorMatrix type="matrix" values="0 0 0 0 0 0 0 0 0 0 0 0 0 0 0 0 0 0 0.25 0"/>
<feBlend mode="normal" in2="BackgroundImageFix" result="effect1_dropShadow_348_365"/>
<feBlend mode="normal" in="SourceGraphic" in2="effect1_dropShadow_348_365" result="shape"/>
</filter>
<clipPath id="clip0_348_365">
<rect width="257" height="164" fill="white"/>
</clipPath>
</defs>
</svg>
