<svg width="248" height="177" viewBox="0 0 248 177" fill="none" xmlns="http://www.w3.org/2000/svg">
<g opacity="0.2">
<path d="M170.125 130.677C170.125 130.677 176.956 137.51 173.105 147.649C169.254 157.787 179.715 174.647 179.715 174.647L179.395 174.595C165.365 172.112 158.395 156.069 166.197 144.146C169.092 139.723 171.474 134.522 170.125 130.677Z" fill="#D89EFF"/>
<path opacity="0.1" d="M170.125 130.801C170.125 130.801 176.956 137.634 173.105 147.773C169.254 157.912 179.715 174.772 179.715 174.772L179.395 174.719C165.365 172.236 158.395 156.193 166.197 144.271C169.092 139.835 171.474 134.636 170.125 130.801Z" fill="black"/>
<path d="M170.125 130.677C170.125 130.677 173.982 139.052 170.125 145.885C166.269 152.718 169.465 171.893 179.71 174.647" stroke="#535461" stroke-miterlimit="10"/>
<path d="M157.961 158.321C157.961 158.321 165.755 157.079 166.465 164.066C167.176 171.053 181.453 172.015 181.453 172.015L181.185 172.193C169.395 179.935 158.127 177.124 159.831 166.846C160.459 163.033 160.407 159.193 157.961 158.321Z" fill="#D89EFF"/>
<path d="M157.961 158.321C157.961 158.321 164.012 159.65 163.513 165.152C163.014 170.653 172.497 177.25 181.453 172.022" stroke="#535461" stroke-miterlimit="10"/>
</g>
<g opacity="0.2">
<path d="M89.1073 119.917C89.1073 119.917 94.7837 125.595 91.5904 134.018C88.3972 142.44 97.083 156.451 97.083 156.451L96.8173 156.407C85.1617 154.348 79.3687 141.007 85.8495 131.107C88.2482 127.423 90.2272 123.104 89.1073 119.917Z" fill="#D89EFF"/>
<path opacity="0.1" d="M89.1073 120.012C89.1073 120.012 94.7837 125.69 91.5904 134.112C88.3972 142.535 97.083 156.546 97.083 156.546L96.8049 156.509C85.1493 154.45 79.3562 141.109 85.8371 131.209C88.2482 127.518 90.2272 123.198 89.1073 120.012Z" fill="black"/>
<path d="M89.1073 119.917C89.1073 119.917 92.3105 126.872 89.1073 132.552C85.9041 138.233 88.5586 154.161 97.0706 156.451" stroke="#535461" stroke-miterlimit="10"/>
<path d="M78.9987 142.88C78.9987 142.88 85.482 141.854 86.0655 147.654C86.6491 153.453 98.5182 154.273 98.5182 154.273L98.2947 154.422C88.499 160.855 79.1352 158.52 80.5481 149.979C81.072 146.792 81.0298 143.593 78.9987 142.88Z" fill="#D89EFF"/>
<path d="M78.9987 142.88C78.9987 142.88 84.0244 143.983 83.6122 148.555C83.2001 153.128 91.0764 158.61 98.5108 154.268" stroke="#535461" stroke-miterlimit="10"/>
</g>
<g opacity="0.2">
<path d="M65.2697 84.1504C65.2697 84.1504 70.946 89.8283 67.7528 98.2509C64.5595 106.673 73.2454 120.685 73.2454 120.685L72.9797 120.64C61.3241 118.581 55.531 105.24 62.0119 95.3399C64.4106 91.6564 66.3896 87.3371 65.2697 84.1504Z" fill="#D89EFF"/>
<path opacity="0.1" d="M65.2697 84.2449C65.2697 84.2449 70.946 89.9228 67.7528 98.3454C64.5595 106.768 73.2454 120.779 73.2454 120.779L72.9673 120.742C61.3117 118.683 55.5186 105.342 61.9995 95.4418C64.4106 91.7509 66.3896 87.4316 65.2697 84.2449Z" fill="black"/>
<path d="M65.2697 84.1504C65.2697 84.1504 68.4729 91.105 65.2697 96.7854C62.0665 102.466 64.7209 118.394 73.233 120.685" stroke="#535461" stroke-miterlimit="10"/>
<path d="M55.1611 107.113C55.1611 107.113 61.6444 106.087 62.2279 111.887C62.8114 117.687 74.6806 118.506 74.6806 118.506L74.4571 118.655C64.6613 125.088 55.2976 122.754 56.7105 114.212C57.2344 111.025 57.1922 107.826 55.1611 107.113Z" fill="#D89EFF"/>
<path d="M55.1611 107.113C55.1611 107.113 60.1868 108.216 59.7746 112.788C59.3624 117.361 67.2388 122.843 74.6731 118.501" stroke="#535461" stroke-miterlimit="10"/>
</g>
<path d="M4 142.325V138.93L73.5595 119.415L86 118V121.112L16.7244 146L4 142.325Z" fill="#DFE5EE"/>
<path opacity="0.05" d="M4 142.325V138.93L73.5595 119.415L86 118V121.112L16.7244 146L4 142.325Z" fill="black"/>
<path d="M4 138.404L73.7991 116L86 117.937L16.7682 142L4 138.404Z" fill="#D6A75C"/>
<path d="M19 87H15V140H19V87Z" fill="#DFE5EE"/>
<path d="M73 76H69V121H73V76Z" fill="#DFE5EE"/>
<path d="M85 60.852V75.0779L28.2123 87.7727L21.4941 89.2763L4.83268 93L0 91.5767V75.0779L25.7684 70.1614L32.1811 68.9385L79.0305 60L85 60.852Z" fill="#DFE5EE"/>
<path opacity="0.05" d="M85 60.852V75.0779L28.2123 87.7727L21.4941 89.2763L4.83268 93L0 91.5767V75.0779L25.7684 70.1614L32.1811 68.9385L79.0305 60L85 60.852Z" fill="black"/>
<path opacity="0.05" d="M19 87V89.933L15 91V87H19Z" fill="black"/>
<path opacity="0.05" d="M73 76V78.2079L69 79V76H73Z" fill="black"/>
<path d="M85 61V75.1604L61.9915 80.2913L55.2998 81.7829L28.3308 87.7968L21.6267 89.2934L5 93L5.28486 76.8591L28.3908 72.262L34.8551 70.9774H34.8576L61.2719 65.7218L67.7236 64.4372L85 61Z" fill="#DFE5EE"/>
<path d="M35 70.9049L28.0939 87.5214L21 89L28.1573 72.174L25.5133 70.2026L32.2846 69L34.9974 70.9049H35Z" fill="#D89EFF"/>
<path d="M68 64.9252L62.2987 80.5107L56 82L61.913 66.2078L61.6213 65.9637L59.561 64.2154L65.5845 63L67.6942 64.6811L67.9976 64.9252H68Z" fill="#D89EFF"/>
<path opacity="0.05" d="M16 139L21 138V139L16 140V139Z" fill="black"/>
<path opacity="0.05" d="M70 120L74 119V120L70 121V120Z" fill="black"/>
<path d="M163.724 82.2338C156.555 86.018 149.133 81.7376 149.133 81.7376C149.016 81.9561 148.883 82.1652 148.734 82.3629C148.643 82.2934 148.548 82.2214 148.454 82.1445C145.374 79.6209 141.963 73.6631 141.963 73.6631L135.319 61.1791C134.505 59.6788 133.891 58.0779 133.494 56.4173C132.399 51.658 128.905 51.4545 128.905 51.4545H124.811C122.83 51.4545 119.967 51.8714 117.134 52.4471C117.21 52.3697 117.259 52.2708 117.275 52.1642L117.139 52.1915L118.66 50.7026C118.66 50.7026 123.011 48.9359 123.524 45.1517L125.827 42.8812C125.827 42.8812 125.901 42.6827 126.005 42.3329L126.77 41.3676C130.104 37.1864 130.344 37.1169 130.344 37.1169L140.45 31.1243C140.45 31.1243 144.078 30.6082 142.565 20.4419C141.052 10.2756 142.07 9.02744 142.07 9.02744C142.07 9.02744 144.819 -1.15873 139.549 0.109269C134.279 1.37727 136.661 10.0845 136.661 10.0845L137.028 12.0076C137.487 14.416 137.462 16.8921 136.954 19.2905C136.406 21.8836 135.795 25.0871 135.948 25.8514C136.218 27.1839 133.174 28.8712 133.174 28.8712L131.453 29.8787C129.631 30.9445 127.485 31.3113 125.413 30.9109L125.322 30.772L124.291 29.9978C124.261 30.1039 124.236 30.2116 124.217 30.3204L123.796 29.9978V30.0226C123.796 29.9333 123.796 29.8489 123.816 29.7546C123.937 28.8003 124.16 27.8619 124.482 26.9556C124.509 26.8712 124.544 26.7819 124.574 26.7074C126.499 26.5905 128.308 25.7451 129.635 24.3423C130.962 22.9396 131.707 21.0842 131.721 19.1516C131.721 18.3556 131.594 17.5648 131.344 16.8091C131.539 16.8454 131.739 16.8454 131.934 16.8091C132.86 16.6602 133.843 16.1838 134.324 15.3625C134.578 14.9114 134.694 14.3958 134.66 13.8791C134.625 13.3623 134.44 12.8671 134.128 12.4543C134.01 12.3034 133.877 12.1646 133.732 12.0399C132.853 11.0473 131.381 10.7992 130.213 10.1317C129.101 9.50387 128.256 8.50138 127.221 7.75448C125.265 6.3376 122.763 5.91079 120.376 5.52121C119.351 5.35496 118.308 5.18871 117.278 5.32518C115.975 5.49888 114.777 6.15149 113.756 6.96787C113.395 7.22836 113.092 7.56234 112.867 7.94803C112.488 8.69245 112.654 9.5659 112.588 10.3897C112.424 12.3947 110.854 14.0275 109.12 15.092C108.056 15.7446 106.892 16.2657 105.998 17.1416C105.104 18.0176 104.576 19.3997 105.133 20.5064C105.428 21.092 106.01 21.5809 106.015 22.2434C105.996 22.5348 105.911 22.8181 105.767 23.0722C105.172 24.3166 104.369 25.4496 103.392 26.4221C99.7767 25.5486 95.8738 27.4692 95.8738 27.4692L84.0982 27.9655C84.0982 27.9655 80.7698 26.4519 76.4211 35.7869C72.0724 45.122 70.5321 45.6282 70.5321 45.6282C70.5321 45.6282 62.6073 52.6927 67.7163 54.4595C72.8253 56.2262 75.641 47.6455 75.641 47.6455L78.4766 42.3651C78.4766 42.3651 84.8758 36.308 85.3884 35.0474C85.9011 33.7869 88.9719 33.7869 88.9719 33.7869L101.456 34.2832C101.472 34.3842 101.482 34.4861 101.486 34.5884C101.515 35.9879 100.205 37.0698 98.8877 37.5884C98.0556 37.9209 97.1046 38.1715 96.5969 38.9011C96.0893 39.6306 96.2106 40.6902 96.7208 41.4346C96.8763 41.657 97.0585 41.8595 97.2631 42.0376C97.7985 42.5907 98.4522 43.0149 99.175 43.2783C99.7743 43.5176 100.398 43.6907 101.035 43.7944C100.776 44.8654 100.424 45.9116 99.9823 46.921L100.478 47.1344L100.314 47.5711C99.6158 49.4297 98.1769 53.0972 96.904 55.3156C96.8916 55.3156 94.591 57.2709 92.8055 59.0377C91.4409 60.3826 88.1522 73.3306 97.7757 73.5638L99.9724 75.1866H100.017C101.971 77.9509 108.422 82.4919 108.422 82.4919L97.013 83.1668C96.4439 83.2015 95.8775 83.2703 95.3166 83.3728C95.13 83.4059 94.9435 83.4431 94.7569 83.4845C92.746 83.9262 90.5197 83.7698 89.326 83.6284C88.536 82.1395 84.8684 82.745 84.8684 82.745C84.8684 82.745 84.3557 90.3158 85.116 94.6036C85.8763 98.8915 88.6995 96.1173 88.6995 96.1173C88.1868 92.3332 92.4142 89.549 92.4142 89.549C92.9516 89.2785 93.588 88.951 94.3359 88.5565C96.7084 87.281 107.994 89.2314 111.483 89.8766C112.251 90.0199 113.032 90.0864 113.813 90.0751C123.816 89.9113 121.218 85.0229 121.218 85.0229L119.205 81.0527C118.874 80.3926 118.58 79.715 118.323 79.0229C116.545 74.3082 113.781 71.7127 111.664 70.3231C111.778 70.1792 111.892 70.0353 112.003 69.8839C112.003 69.8839 111.835 69.8442 111.58 69.7673C113.368 68.8516 114.551 68.1196 114.551 68.1196C114.551 68.1196 126.327 61.055 125.817 62.8218C125.307 64.5886 128.378 71.4 134.009 76.1941C134.172 76.3331 134.331 76.4745 134.489 76.6184L134.643 76.7599L134.958 77.0576L135.128 77.2239L135.421 77.5167L135.584 77.6854L135.894 78.0179L136.017 78.1519C136.158 78.3074 136.296 78.4646 136.434 78.6234L136.523 78.7301C136.628 78.8558 136.733 78.9815 136.837 79.1073L136.978 79.2834L137.226 79.6011L137.37 79.7872L137.617 80.1122L137.746 80.2835L138.033 80.683L138.103 80.7773C138.22 80.9427 138.335 81.1081 138.447 81.2735L138.531 81.4001L138.779 81.7748L138.883 81.9361L139.103 82.2835L139.2 82.4373L139.43 82.817L139.497 82.9261C139.697 83.257 139.887 83.5879 140.066 83.9187L140.096 83.9733L140.331 84.4001L140.369 84.4696L140.594 84.8964L140.609 84.9262C141.244 86.1406 141.812 87.389 142.31 88.6656C142.022 88.735 141.73 88.7848 141.436 88.8145C139.901 95.6285 143.997 95.6285 143.997 95.6285C143.997 95.6285 159.103 93.358 164.735 87.554C170.366 81.75 163.724 82.2338 163.724 82.2338Z" fill="url(#paint0_linear_366_122)"/>
<path d="M109.567 69C109.567 69 115.795 70.5925 118.902 78.8234C119.151 79.4893 119.436 80.1416 119.756 80.7774L121.706 84.6315C121.706 84.6315 124.221 89.3625 114.542 89.5164C113.785 89.527 113.03 89.4624 112.287 89.3234C108.91 88.7006 97.9903 86.8126 95.6889 88.0461C94.4027 88.7644 93.0797 89.4165 91.7251 90L89 87.0691L89.9909 83.1612C89.9909 83.1612 93.2635 83.7669 96.0902 83.1441C96.8082 82.9845 97.5381 82.8815 98.2727 82.8364L109.319 82.1891C109.319 82.1891 100.649 76.083 100.649 73.8849C100.649 71.6867 109.567 69 109.567 69Z" fill="#F8BDC5"/>
<path opacity="0.05" d="M90.9505 84.5921C90.9505 84.5921 88.0311 89 94 89.7518C94 89.7518 89.6235 92.4545 90.1543 96.14C90.1543 96.14 87.2349 98.8427 86.4387 94.6658C85.6425 90.4889 86.1733 83.1179 86.1733 83.1179C86.1733 83.1179 90.9505 82.3808 90.9505 84.5921Z" fill="black"/>
<path opacity="0.05" d="M109.567 69C109.567 69 115.795 70.5925 118.902 78.8234C119.151 79.4893 119.436 80.1416 119.756 80.7774L121.706 84.6315C121.706 84.6315 124.221 89.3625 114.542 89.5164C113.785 89.527 113.03 89.4624 112.287 89.3234C108.91 88.7006 97.9903 86.8126 95.6889 88.0461C94.4027 88.7644 93.0797 89.4165 91.7251 90L89 87.0691L89.9909 83.1612C89.9909 83.1612 93.2635 83.7669 96.0902 83.1441C96.8082 82.9845 97.5381 82.8815 98.2727 82.8364L109.319 82.1891C109.319 82.1891 100.649 76.083 100.649 73.8849C100.649 71.6867 109.567 69 109.567 69Z" fill="black"/>
<path opacity="0.05" d="M90.2438 87.5581L91.2409 83.6512C91.2409 83.6512 94.5336 84.2567 97.3777 83.6341C98.1002 83.4745 98.8346 83.3716 99.5738 83.3264L110.683 82.6744C110.683 82.6744 101.959 76.5698 101.959 74.3721C101.959 72.1744 110.933 69.4884 110.933 69.4884L111 69.5079C110.578 69.3017 110.138 69.1318 109.686 69C109.686 69 100.713 71.686 100.713 73.8837C100.713 76.0814 109.437 82.186 109.437 82.186L98.3299 82.838C97.5907 82.8832 96.8564 82.9861 96.1339 83.1457C93.2898 83.7684 89.9971 83.1628 89.9971 83.1628L89 87.0698L91.7419 90C91.7419 90 91.9263 89.9267 92.3052 89.7558L90.2438 87.5581Z" fill="black"/>
<path d="M90.9505 84.5921C90.9505 84.5921 88.0311 89 94 89.7518C94 89.7518 89.6235 92.4545 90.1543 96.14C90.1543 96.14 87.2349 98.8427 86.4387 94.6658C85.6425 90.4889 86.1733 83.1179 86.1733 83.1179C86.1733 83.1179 90.9505 82.3808 90.9505 84.5921Z" fill="#FFD97B"/>
<path d="M83 156.325V152.93L152.56 133.415L165 132V135.112L95.7244 160L83 156.325Z" fill="#DFE5EE"/>
<path opacity="0.05" d="M83 156.325V152.93L152.56 133.415L165 132V135.112L95.7244 160L83 156.325Z" fill="black"/>
<path d="M83 152.404L152.799 130L165 131.937L95.7682 156L83 152.404Z" fill="#D6A75C"/>
<path d="M98 101H94V153H98V101Z" fill="#DFE5EE"/>
<path d="M153 89H148V135H153V89Z" fill="#DFE5EE"/>
<path d="M164 73.8778V88.5348L107.88 101.614L101.241 103.163L84.7758 107L80 105.534V88.5348L105.463 83.4693L111.803 82.2094L158.101 73L164 73.8778Z" fill="#DFE5EE"/>
<path opacity="0.05" d="M164 73.8778V88.5348L107.88 101.614L101.241 103.163L84.7758 107L80 105.534V88.5348L105.463 83.4693L111.803 82.2094L158.101 73L164 73.8778Z" fill="black"/>
<path opacity="0.05" d="M98 101V103.933L94 105V101H98Z" fill="black"/>
<path opacity="0.05" d="M153 89V91.9439L148 93V89H153Z" fill="black"/>
<path d="M164 75V89.1604L140.992 94.2913L134.3 95.7829L107.331 101.797L100.627 103.293L84 107L84.2849 90.8591L107.391 86.262L113.855 84.9774H113.858L140.272 79.7218L146.724 78.4372L164 75Z" fill="#DFE5EE"/>
<path d="M114 84.9049L107.587 101.521L101 103L107.646 86.174L105.188 84.2026L111.479 83L113.998 84.9049H114Z" fill="#D89EFF"/>
<path d="M147 77.9252L141.299 93.5107L135 95L140.913 79.2078L140.621 78.9637L138.561 77.2154L144.584 76L146.694 77.6811L146.998 77.9252H147Z" fill="#D89EFF"/>
<path opacity="0.05" d="M95 153L100 152V153L95 154V153Z" fill="black"/>
<path opacity="0.05" d="M149 134.001L153 133V134.001L149 135V134.001Z" fill="black"/>
<path d="M139.699 32.0089L130.372 37.9804C130.372 37.9804 130.15 38.0508 127.065 42.2171L125.957 43.7257C123.613 46.9314 118.742 48 118.742 48L115.652 42.9412L115 36.7962L115.685 34.3145L116.228 32.3483L120.982 33.0725L122.895 34.1712L125.258 31.6569C125.442 31.7097 125.628 31.7575 125.815 31.7952C127.727 32.1965 129.711 31.834 131.388 30.7769L132.976 29.7712C132.976 29.7712 135.782 28.0891 135.534 26.754C135.392 25.9997 135.957 22.8015 136.463 20.2167C136.932 17.8261 136.955 15.3606 136.531 12.9604L136.193 11.0445C136.193 11.0445 133.999 2.36507 138.858 1.1079C143.717 -0.149256 141.185 9.99352 141.185 9.99352C141.185 9.99352 140.254 11.2356 141.657 21.3658C143.061 31.496 139.699 32.0089 139.699 32.0089Z" fill="#F8BDC5"/>
<path d="M123.518 30.5333C123.238 33.0698 124.506 33.4102 124.506 33.4102L125.257 36.2871V39.4038L123.005 43H117.503L112.75 40.8423V30.773L112 28.3756C112.42 28.3497 112.838 28.2977 113.251 28.2197C115.664 27.757 117.032 26.472 117.803 25.0767C119.003 22.8926 118.753 20.4544 118.753 20.4544C118.753 20.4544 128.758 17.8172 125.257 25.2493C124.791 26.2394 124.436 27.1097 124.169 27.8865C123.855 28.7443 123.637 29.6315 123.518 30.5333Z" fill="#F8BDC5"/>
<path d="M117.99 52.3735C117.973 52.4827 117.922 52.5837 117.843 52.6615C117.714 52.8102 117.606 52.9759 117.523 53.1538C116.362 55.3274 114.121 63 114.121 63L101.963 58.5692L101.786 58.5249L97 57.3385C98.3573 56.376 100.625 50.6037 101.548 48.1274C101.796 47.4357 101.963 47 101.963 47L114.866 48.2308C114.866 48.2308 118.21 51.1354 117.99 52.3735Z" fill="#F8BDC5"/>
<path d="M112 27.511C112 27.511 108.328 28.9976 104.655 27.511C100.983 26.0244 96.5762 28.2543 96.5762 28.2543L85.3144 28.7498C85.3144 28.7498 82.1317 27.2632 77.9697 36.4304C73.8077 45.5976 72.3388 46.0931 72.3388 46.0931C72.3388 46.0931 64.7493 53.0304 69.6457 54.7647C74.5422 56.4991 77.2352 48.0752 77.2352 48.0752L79.9283 42.8722C79.9283 42.8722 86.0488 36.9259 86.5385 35.6871C87.0281 34.4483 89.966 34.4483 89.966 34.4483L102.207 34.9438L102.131 38.5661L105.879 41.8812L109.307 38.908L112 33.4573V27.511Z" fill="#F8BDC5"/>
<path opacity="0.1" d="M125.275 25.3248C124.821 26.3292 124.474 27.212 124.213 28C124.081 28 123.945 28 123.81 28C122.686 28.0012 121.577 27.7437 120.569 27.2476C119.562 26.7516 118.682 26.0303 118 25.14C119.174 22.9342 118.93 20.4609 118.93 20.4609C118.93 20.4609 128.691 17.7858 125.275 25.3248Z" fill="black"/>
<path d="M124.5 28C128.642 28 132 24.6421 132 20.5C132 16.3579 128.642 13 124.5 13C120.358 13 117 16.3579 117 20.5C117 24.6421 120.358 28 124.5 28Z" fill="#F8BDC5"/>
<path opacity="0.1" d="M117.989 52.238C117.972 52.3446 117.919 52.4432 117.838 52.5192C117.705 52.6644 117.593 52.8262 117.507 53C112.946 52.8125 102.964 48.887 101 48.101C101.256 47.4255 101.428 47 101.428 47L114.761 48.2019C114.761 48.2019 118.217 51.0288 117.989 52.238Z" fill="black"/>
<path opacity="0.1" d="M126.599 42.292L125.533 43.781C123.28 46.9453 118.597 48 118.597 48L115.627 43.0067L115 36.9413L115.2 31C115.833 34.2263 117.605 40.9568 120.31 41.5474C124.832 42.5401 124.507 35.4597 124.284 32.4891C124.25 32.0303 124.289 31.5686 124.398 31.1241L125.306 31.8686L125.388 32.0051C127.552 35.6781 127.066 40.0509 126.599 42.292Z" fill="black"/>
<path d="M113.943 27H111.454C111.454 27 113.943 42.534 102.244 38.165C102.244 38.165 103.24 41.8058 101 46.9029C101 46.9029 112.947 52 117.676 52L119.17 50.5437C119.17 50.5437 123.401 48.8447 123.899 45.2039L126.139 43.0194C126.139 43.0194 128.628 36.466 125.143 31.3689L124.148 30.6408C124.028 31.0755 123.986 31.5271 124.023 31.9757C124.272 34.8883 124.623 41.801 119.667 40.835C113.445 39.6214 113.943 27 113.943 27Z" fill="#EB6576"/>
<path d="M97 72.4737L100.81 75.7259C100.81 75.7259 107 77.8941 112 70.0345C112 70.0345 108.905 69.2214 109.381 67.3243C109.857 65.4271 97 72.4737 97 72.4737Z" fill="#5E52AD"/>
<path opacity="0.05" d="M97 72.4737L100.81 75.7259C100.81 75.7259 107 77.8941 112 70.0345C112 70.0345 108.905 69.2214 109.381 67.3243C109.857 65.4271 97 72.4737 97 72.4737Z" fill="black"/>
<path opacity="0.1" d="M118 52C117.983 52.113 117.929 52.2175 117.846 52.2981C116.805 53.3174 113.941 63 113.941 63L101.185 58.4135L101 58.3676C101.988 57.7563 103.035 57.2392 104.124 56.8235C105.012 56.4871 105.905 56.1304 106.678 55.789C107.305 55.5266 107.906 55.2112 108.477 54.8462C109.568 54.0818 113.757 52.8587 118 52Z" fill="black"/>
<path d="M145.791 88.0067L142.103 89C142.103 89 142.019 88.7517 141.857 88.3196C141.07 86.2983 138.449 80.2218 133.988 76.3356C128.579 71.6174 125.628 64.9128 126.12 63.1745C126.612 61.4362 115.301 68.3893 115.301 68.3893C115.301 68.3893 107.1 73.5419 101.681 73.5494C100.871 73.5726 100.066 73.4219 99.3179 73.1074C97.2279 72.1563 96.382 70.4901 96.0992 68.8859C95.9318 67.8705 95.9766 66.831 96.2307 65.8341C96.4848 64.8373 96.9425 63.9051 97.5746 63.0975C99.4483 60.6513 101.948 58.7683 104.804 57.6518C105.642 57.324 106.486 56.9764 107.216 56.6436C107.808 56.3879 108.376 56.0805 108.915 55.7248C110.636 54.4832 120.472 52 125.144 52H129.078C129.078 52 132.432 52.1987 133.484 56.882C133.864 58.5111 134.45 60.0837 135.23 61.5604L141.611 73.8523C141.611 73.8523 144.886 79.7152 147.844 82.1985C148.687 82.9087 149.506 83.3432 150.217 83.2886C153.413 83.0403 145.791 88.0067 145.791 88.0067Z" fill="#F8BDC5"/>
<path opacity="0.1" d="M134.659 16.7285C134.912 16.2802 135.028 15.77 134.994 15.2587C134.96 14.7474 134.776 14.2566 134.465 13.8449C133.608 12.751 132.058 12.5007 130.836 11.8148C129.726 11.1915 128.886 10.1978 127.855 9.45682C125.905 8.05255 123.419 7.62701 121.033 7.24403C120.012 7.07882 118.971 6.91361 117.945 7.05129C116.646 7.224 115.451 7.87232 114.433 8.68084C114.072 8.94016 113.77 9.27105 113.548 9.65207C113.17 10.383 113.336 11.2591 113.269 12.0751C113.106 14.0651 111.539 15.6847 109.811 16.7385C108.75 17.3868 107.581 17.9025 106.698 18.7711C105.815 19.6397 105.281 21.0114 105.837 22.1078C106.134 22.6885 106.713 23.1741 106.715 23.8249C106.699 24.1135 106.617 24.3948 106.476 24.6485C105.871 25.9093 105.047 27.0571 104.041 28.0403C103.137 28.9214 102.058 29.7124 101.588 30.8763C101.136 31.9952 101.333 33.2719 101.749 34.4058C101.943 34.9465 102.185 35.4871 102.196 36.0579C102.224 37.4471 100.919 38.5135 99.6051 39.0341C98.7757 39.362 97.8186 39.6123 97.3209 40.3358C96.8233 41.0592 96.9356 42.1105 97.4434 42.8389C97.9513 43.5673 98.7706 44.0555 99.6128 44.3884C101.176 45.0343 102.909 45.1729 104.559 44.7839C105.377 44.5834 106.144 44.2175 106.809 43.7098C107.475 43.202 108.026 42.5635 108.425 41.8352C109.191 40.3733 109.242 38.581 110.304 37.3044C112.175 35.0741 116.12 35.6373 118.073 33.4721C119.64 31.7324 119.213 29.0966 119.093 26.7787C119.024 25.4874 119.079 24.1925 119.257 22.9113C119.384 22.0001 119.619 21.0214 120.349 20.4457C120.939 19.9801 121.735 19.875 122.485 19.7848C124.052 19.5921 125.857 19.2191 126.569 17.8349C126.865 17.2592 126.954 16.5332 127.488 16.1578C128.225 15.6371 129.259 16.1578 129.902 16.7836C130.611 17.4769 131.206 18.3305 132.286 18.1578C133.202 18.0176 134.182 17.5445 134.659 16.7285Z" fill="black"/>
<path d="M133.669 16.4725C133.915 16.0358 134.028 15.5389 133.994 15.041C133.96 14.5432 133.781 14.0654 133.478 13.6647C132.643 12.5996 131.135 12.3559 129.944 11.6881C128.863 11.0812 128.046 10.1136 127.042 9.39217C125.143 8.02485 122.723 7.61051 120.4 7.23761C119.406 7.07675 118.392 6.91589 117.393 7.04994C116.128 7.21811 114.965 7.84937 113.974 8.63661C113.622 8.8891 113.328 9.21128 113.111 9.58227C112.744 10.294 112.905 11.147 112.841 11.9416C112.682 13.8792 111.156 15.4561 109.474 16.4822C108.44 17.1135 107.302 17.6156 106.442 18.4613C105.582 19.307 105.063 20.6427 105.605 21.7102C105.893 22.2756 106.457 22.7485 106.459 23.3822C106.443 23.6631 106.363 23.937 106.226 24.184C105.637 25.4117 104.835 26.5293 103.855 27.4866C102.976 28.3445 101.924 29.1147 101.467 30.248C101.027 31.3375 101.219 32.5805 101.624 33.6846C101.813 34.211 102.049 34.7375 102.059 35.2932C102.086 36.6459 100.816 37.6842 99.5365 38.1911C98.7289 38.5104 97.797 38.7541 97.3125 39.4585C96.8279 40.1629 96.9373 41.1865 97.4317 41.8958C97.9262 42.605 98.7239 43.0803 99.5439 43.4045C101.066 44.0334 102.754 44.1683 104.36 43.7896C105.156 43.5943 105.903 43.2381 106.551 42.7437C107.199 42.2493 107.735 41.6276 108.124 40.9184C108.87 39.4951 108.919 37.75 109.953 36.507C111.775 34.3353 115.616 34.8837 117.517 32.7755C119.043 31.0816 118.628 28.5151 118.511 26.2582C118.444 25.0009 118.497 23.7401 118.67 22.4926C118.794 21.6054 119.023 20.6524 119.734 20.0918C120.308 19.6385 121.083 19.5361 121.814 19.4484C123.339 19.2607 125.096 18.8976 125.789 17.5498C126.078 16.9892 126.165 16.2824 126.684 15.9168C127.402 15.4098 128.409 15.9168 129.035 16.5261C129.726 17.2012 130.305 18.0323 131.356 17.8642C132.248 17.7252 133.204 17.2646 133.669 16.4725Z" fill="#6E464E"/>
<path opacity="0.1" d="M108 45C108 45 111.08 48.3426 115 47.9712Z" fill="black"/>
<path opacity="0.05" d="M150.813 83.405C149.402 84.7878 146.284 86.7934 146.284 86.7934L142.596 87.7741C142.596 87.7741 139.892 79.9284 134.482 75.27C129.073 70.6115 126.123 63.9917 126.614 62.2754C127.106 60.5592 115.796 67.4242 115.796 67.4242C115.796 67.4242 107.596 72.5117 102.177 72.519C101.367 72.5419 100.562 72.3932 99.8139 72.0826C97.7239 71.1436 96.8781 69.4984 96.5953 67.9146C96.4045 66.8261 96.4736 65.7081 96.797 64.6512C96.0831 66.0329 95.8397 67.6087 96.1036 69.1405C96.3863 70.7243 97.2322 72.3695 99.3221 73.3085C100.07 73.6191 100.875 73.7678 101.685 73.7449C107.094 73.7449 115.304 68.6501 115.304 68.6501C115.304 68.6501 126.614 61.7851 126.123 63.5013C125.631 65.2176 128.581 71.8374 133.991 76.4959C139.4 81.1543 142.104 89 142.104 89L145.793 88.0193C145.793 88.0193 152.158 83.9223 150.813 83.405Z" fill="black"/>
<path opacity="0.1" d="M107 56.0749L106.598 56.2721C103.662 57.695 101.257 60.1065 99.7603 63.1281C96.59 69.6396 100.78 72.5732 101.466 72.9977C100.687 73.021 99.912 72.8695 99.1925 72.5533C97.1814 71.597 96.3676 69.9217 96.0955 68.3088C95.9344 67.2879 95.9775 66.2428 96.222 65.2405C96.4664 64.2382 96.9069 63.3009 97.515 62.489C99.3179 60.0295 101.723 58.1363 104.471 57.0137C105.278 56.6841 106.089 56.3346 106.792 56L107 56.0749Z" fill="black"/>
<path d="M107 57.1064C107 57.1064 101.52 55.3776 97.8674 56.242C97.8674 56.242 95.519 58.0334 93.6925 59.6556C92.2052 60.9766 88.4739 74.4872 100.999 72.865C100.999 72.865 95.2163 70.2185 99.0155 63.6532C100.666 60.8485 103.318 58.61 106.556 57.2895L107 57.1064Z" fill="#5E52AD"/>
<path opacity="0.1" d="M145.873 87.9777L142.242 89C142.242 89 142.16 88.7444 142 88.2997C142.845 88.0646 143.936 87.533 143.936 86.4443C143.936 86.4443 146.708 83.7123 147.894 82C148.724 82.7309 149.53 83.1782 150.229 83.1219C153.376 82.8664 145.873 87.9777 145.873 87.9777Z" fill="black"/>
<path d="M144.297 86.7273C144.297 86.7273 148.004 83.4182 148.745 82C148.745 82 155.91 86.0182 162.828 82.4727C162.828 82.4727 169.252 82 163.816 87.4364C158.381 92.8727 143.803 95 143.803 95C143.803 95 139.85 95 141.333 88.6182C141.333 88.6182 144.297 88.3818 144.297 86.7273Z" fill="#FFD97B"/>
<path d="M167 173.325V169.93L235.711 150.415L248 149V152.112L179.569 177L167 173.325Z" fill="#DFE5EE"/>
<path opacity="0.05" d="M167 173.325V169.93L235.711 150.415L248 149V152.112L179.569 177L167 173.325Z" fill="black"/>
<path d="M167 169.404L235.948 147L248 148.937L179.613 173L167 169.404Z" fill="#D6A75C"/>
<path d="M181 118H177V171H181V118Z" fill="#DFE5EE"/>
<path d="M236 107H231V153H236V107Z" fill="#DFE5EE"/>
<path d="M247 91.852V106.078L190.88 118.773L184.241 120.276L167.776 124L163 122.577V106.078L188.463 101.161L194.803 99.9385L241.101 91L247 91.852Z" fill="#DFE5EE"/>
<path opacity="0.05" d="M247 91.852V106.078L190.88 118.773L184.241 120.276L167.776 124L163 122.577V106.078L188.463 101.161L194.803 99.9385L241.101 91L247 91.852Z" fill="black"/>
<path opacity="0.05" d="M181 118V120.933L177 122V118H181Z" fill="black"/>
<path opacity="0.05" d="M236 107V109.208L231 110V107H236Z" fill="black"/>
<path d="M247 92V106.16L223.992 111.291L217.3 112.783L190.331 118.797L183.627 120.293L167 124L167.285 107.859L190.391 103.262L196.855 101.977H196.858L223.272 96.7218L229.724 95.4372L247 92Z" fill="#DFE5EE"/>
<path d="M197 101.905L190.587 118.521L184 120L190.646 103.174L188.188 101.203L194.479 100L196.998 101.905H197Z" fill="#D89EFF"/>
<path d="M230 95.9252L224.299 111.511L218 113L223.913 97.2078L223.621 96.9637L221.561 95.2154L227.584 94L229.694 95.6811L229.998 95.9252H230Z" fill="#D89EFF"/>
<path opacity="0.05" d="M178 170L183 169V170L178 171V170Z" fill="black"/>
<path opacity="0.05" d="M232 151.502L236 150V151.502L232 153V151.502Z" fill="black"/>
<defs>
<linearGradient id="paint0_linear_366_122" x1="116.505" y1="96.9957" x2="116.505" y2="-0.00984093" gradientUnits="userSpaceOnUse">
<stop stop-color="#808080" stop-opacity="0.25"/>
<stop offset="0.54" stop-color="#808080" stop-opacity="0.12"/>
<stop offset="1" stop-color="#808080" stop-opacity="0.1"/>
</linearGradient>
</defs>
</svg>
