<svg width="280" height="202" viewBox="0 0 280 202" fill="none" xmlns="http://www.w3.org/2000/svg">
<path d="M206.535 191.652L222.924 167.363L206.569 194.265L206.603 196.998C205.407 197.007 204.222 196.987 203.049 196.938L203.862 161.807L203.839 161.536L203.869 161.483L203.947 158.163L186 132.195L203.926 155.679L203.989 156.38L204.603 129.837L189.102 102.913L204.648 125.174L204.485 70.183L204.486 70L204.491 70.18L205.52 113.52L219.648 95.9155L205.566 117.254L205.875 140.997L218.875 117.825L205.922 144.487L206.094 157.689L225 125.411L206.151 162.295L206.535 191.652Z" fill="#D6A75C"/>
<path d="M261.535 191.694L277.924 167.597L261.569 194.286L261.603 196.998C260.407 197.007 259.222 196.987 258.049 196.939L258.862 162.084L258.839 161.815L258.869 161.763L258.947 158.469L241 132.705L258.926 156.004L258.989 156.7L259.603 130.366L244.102 103.654L259.648 125.74L259.485 71.1816L259.486 71L259.491 71.1786L260.52 114.178L274.648 96.7114L260.566 117.882L260.875 141.437L273.875 118.448L260.922 144.901L261.094 157.999L280 125.975L261.151 162.568L261.535 191.694Z" fill="#D6A75C"/>
<path d="M97 0H0V131H97V0Z" fill="#D6A75C"/>
<path d="M94 4H3V126H94V4Z" fill="black"/>
<path d="M81.9809 26H16.0138C15.4795 25.9993 14.9673 25.7883 14.5897 25.4133C14.2121 25.0383 14 24.53 14 24C14 23.47 14.2121 22.9617 14.5897 22.5867C14.9673 22.2117 15.4795 22.0007 16.0138 22H81.9809C82.2459 21.9997 82.5084 22.0511 82.7534 22.1515C82.9983 22.2518 83.2209 22.3991 83.4085 22.5849C83.596 22.7706 83.7447 22.9912 83.8463 23.234C83.9478 23.4769 84 23.7371 84 24C84 24.2629 83.9478 24.5231 83.8463 24.766C83.7447 25.0088 83.596 25.2294 83.4085 25.4151C83.2209 25.6009 82.9983 25.7482 82.7534 25.8485C82.5084 25.9489 82.2459 26.0003 81.9809 26Z" fill="#E6E6E6"/>
<path d="M81.9809 47H16.0138C15.4795 46.9991 14.9673 46.7353 14.5897 46.2666C14.2121 45.7979 14 45.1625 14 44.5C14 43.8375 14.2121 43.2021 14.5897 42.7334C14.9673 42.2646 15.4795 42.0009 16.0138 42H81.9809C82.2459 41.9996 82.5084 42.0639 82.7534 42.1894C82.9983 42.3148 83.2209 42.4989 83.4085 42.7311C83.596 42.9633 83.7447 43.239 83.8463 43.5425C83.9478 43.846 84 44.1714 84 44.5C84 44.8286 83.9478 45.1539 83.8463 45.4575C83.7447 45.761 83.596 46.0367 83.4085 46.2689C83.2209 46.5011 82.9983 46.6852 82.7534 46.8106C82.5084 46.9361 82.2459 47.0004 81.9809 47Z" fill="#E6E6E6"/>
<path d="M81.9809 67H16.0138C15.4795 66.9993 14.9673 66.7883 14.5897 66.4133C14.2121 66.0383 14 65.53 14 65C14 64.47 14.2121 63.9617 14.5897 63.5867C14.9673 63.2117 15.4795 63.0007 16.0138 63H81.9809C82.2459 62.9997 82.5084 63.0511 82.7534 63.1515C82.9983 63.2518 83.2209 63.3991 83.4085 63.5849C83.596 63.7706 83.7447 63.9912 83.8463 64.234C83.9478 64.4769 84 64.7371 84 65C84 65.2629 83.9478 65.5232 83.8463 65.766C83.7447 66.0088 83.596 66.2294 83.4085 66.4151C83.2209 66.6009 82.9983 66.7482 82.7534 66.8485C82.5084 66.9489 82.2459 67.0003 81.9809 67Z" fill="#E6E6E6"/>
<path d="M81.9809 88H16.0138C15.4795 87.9993 14.9673 87.7883 14.5897 87.4133C14.2121 87.0383 14 86.53 14 86C14 85.47 14.2121 84.9617 14.5897 84.5867C14.9673 84.2117 15.4795 84.0007 16.0138 84H81.9809C82.2459 83.9997 82.5084 84.0511 82.7534 84.1515C82.9983 84.2518 83.2209 84.3991 83.4085 84.5849C83.596 84.7706 83.7447 84.9912 83.8463 85.234C83.9478 85.4769 84 85.7371 84 86C84 86.2629 83.9478 86.5231 83.8463 86.766C83.7447 87.0088 83.596 87.2294 83.4085 87.4151C83.2209 87.6009 82.9983 87.7482 82.7534 87.8485C82.5084 87.9489 82.2459 88.0003 81.9809 88Z" fill="#E6E6E6"/>
<path d="M81.9809 109H16.0138C15.4795 108.999 14.9673 108.788 14.5897 108.413C14.2121 108.038 14 107.53 14 107C14 106.47 14.2121 105.962 14.5897 105.587C14.9673 105.212 15.4795 105.001 16.0138 105H81.9809C82.2459 105 82.5084 105.051 82.7534 105.151C82.9983 105.252 83.2209 105.399 83.4085 105.585C83.596 105.771 83.7447 105.991 83.8463 106.234C83.9478 106.477 84 106.737 84 107C84 107.263 83.9478 107.523 83.8463 107.766C83.7447 108.009 83.596 108.229 83.4085 108.415C83.2209 108.601 82.9983 108.748 82.7534 108.849C82.5084 108.949 82.2459 109 81.9809 109Z" fill="#E6E6E6"/>
<path d="M69.9782 26H15.0272C14.7611 26.0003 14.4975 25.9489 14.2516 25.8485C14.0057 25.7482 13.7822 25.6009 13.5939 25.4151C13.4056 25.2294 13.2563 25.0088 13.1544 24.766C13.0525 24.5231 13 24.2629 13 24C13 23.7371 13.0525 23.4769 13.1544 23.234C13.2563 22.9912 13.4056 22.7706 13.5939 22.5849C13.7822 22.3991 14.0057 22.2518 14.2516 22.1515C14.4975 22.0511 14.7611 21.9997 15.0272 22H69.9782C70.5146 22.0007 71.0289 22.2117 71.408 22.5867C71.7871 22.9617 72 23.47 72 24C72 24.53 71.7871 25.0383 71.408 25.4133C71.0289 25.7883 70.5146 25.9993 69.9782 26Z" fill="#D89EFF"/>
<path d="M52.9699 47H15.0275C14.4897 47 13.974 46.7366 13.5938 46.2678C13.2136 45.7989 13 45.163 13 44.5C13 43.837 13.2136 43.2011 13.5938 42.7322C13.974 42.2634 14.4897 42 15.0275 42H52.9699C53.2363 41.9996 53.5003 42.0639 53.7466 42.1894C53.9929 42.3148 54.2167 42.4989 54.4052 42.7311C54.5938 42.9633 54.7434 43.239 54.8454 43.5425C54.9475 43.846 55 44.1714 55 44.5C55 44.8286 54.9475 45.1539 54.8454 45.4575C54.7434 45.761 54.5938 46.0367 54.4052 46.2689C54.2167 46.5011 53.9929 46.6852 53.7466 46.8106C53.5003 46.9361 53.2363 47.0004 52.9699 47Z" fill="#D89EFF"/>
<path d="M31.9889 67H15.0163C14.7517 67.0003 14.4895 66.9489 14.2449 66.8485C14.0003 66.7482 13.778 66.6009 13.5907 66.4151C13.4035 66.2294 13.2549 66.0088 13.1535 65.766C13.0522 65.5232 13 65.2629 13 65C13 64.7371 13.0522 64.4769 13.1535 64.234C13.2549 63.9912 13.4035 63.7706 13.5907 63.5849C13.778 63.3991 14.0003 63.2518 14.2449 63.1515C14.4895 63.0511 14.7517 62.9997 15.0163 63H31.9889C32.5226 63.0007 33.0341 63.2117 33.4111 63.5867C33.7882 63.9617 34 64.47 34 65C34 65.53 33.7882 66.0383 33.4111 66.4133C33.0341 66.7883 32.5226 66.9993 31.9889 67Z" fill="#D89EFF"/>
<path d="M75.9504 88H15.0495C14.506 88 13.9847 87.7893 13.6003 87.4142C13.2159 87.0391 13 86.5304 13 86C13 85.4696 13.2159 84.9609 13.6003 84.5858C13.9847 84.2107 14.506 84 15.0495 84H75.9504C76.494 84 77.0153 84.2107 77.3997 84.5858C77.7841 84.9609 78 85.4696 78 86C78 86.5304 77.7841 87.0391 77.3997 87.4142C77.0153 87.7893 76.494 88 75.9504 88Z" fill="#D89EFF"/>
<path d="M61.9691 109H15.0309C14.7643 109 14.5003 108.949 14.2539 108.849C14.0075 108.748 13.7836 108.601 13.595 108.415C13.4064 108.229 13.2567 108.009 13.1546 107.766C13.0525 107.523 13 107.263 13 107C13 106.737 13.0525 106.477 13.1546 106.234C13.2567 105.991 13.4064 105.771 13.595 105.585C13.7836 105.399 14.0075 105.252 14.2539 105.151C14.5003 105.051 14.7643 105 15.0309 105H61.9691C62.2357 105 62.4997 105.051 62.7461 105.151C62.9925 105.252 63.2164 105.399 63.405 105.585C63.5936 105.771 63.7433 105.991 63.8454 106.234C63.9475 106.477 64 106.737 64 107C64 107.263 63.9475 107.523 63.8454 107.766C63.7433 108.009 63.5936 108.229 63.405 108.415C63.2164 108.601 62.9925 108.748 62.7461 108.849C62.4997 108.949 62.2357 109 61.9691 109Z" fill="#D89EFF"/>
<path d="M145 94.1479C145 94.1479 142.652 78.4611 138.739 82.7393C134.826 87.0175 138.739 93.4348 138.739 93.4348L141.87 97L145 94.8609V94.1479Z" fill="#9F616A"/>
<path d="M153.694 99.4815C153.694 99.4815 146.005 91.768 144.468 93.1704C142.93 94.5729 138.317 95.2741 139.086 98.0791C139.855 100.884 156 110 156 110L153.694 99.4815Z" fill="#D89EFF"/>
<path d="M194.957 99V104.751C194.957 104.751 195.638 117.69 191.553 116.971C187.468 116.252 189.511 105.47 189.511 105.47L190.191 99L194.957 99Z" fill="#9F616A"/>
<path d="M192.818 141C192.818 141 199.364 151.328 201.545 152.066C203.727 152.803 215.364 159.443 216.818 166.082L227 179.361L221.909 186C221.909 186 198.636 160.918 192.091 158.705C185.545 156.492 179 145.426 179 145.426L192.818 141Z" fill="#9F616A"/>
<path d="M140.913 124C140.913 124 127.045 126.2 129.234 135C131.424 143.8 152.592 162.133 152.592 162.133L153.321 166.533L161.35 168L165 164.333L164.27 162.133C164.27 162.133 155.511 154.067 154.781 151.133C154.051 148.2 146.022 136.467 142.373 135.733L147.482 132.8L140.913 124Z" fill="#9F616A"/>
<path d="M224.919 178.812C224.919 178.812 221.892 174.338 226.432 175.084C230.973 175.829 234 176.575 234 179.557C234 182.539 230.216 203.415 225.676 201.924C221.135 200.433 224.919 193.723 224.919 193.723C224.919 193.723 222.649 187.758 221.135 187.013C219.622 186.267 219.622 182.539 221.135 182.539C222.649 182.539 225.676 180.303 224.919 178.812Z" fill="#2F2E41"/>
<path d="M163.116 162.698C163.116 162.698 163.116 158.877 165.993 162.698C168.87 166.52 170.309 169.576 167.432 171.869C164.554 174.162 154.483 179.512 154.483 179.512C154.483 179.512 143.693 181.804 145.132 176.455C145.132 176.455 152.325 172.633 152.325 169.576C152.325 166.52 152.325 161.17 154.483 162.698C156.641 164.227 163.116 164.991 163.116 162.698Z" fill="#2F2E41"/>
<path d="M177.147 108C177.147 108 187.488 109.487 186.75 124.361C186.75 124.361 200.045 137.748 196.352 142.21C192.659 146.672 184.534 154.853 181.579 152.622C178.625 150.391 169.761 133.286 169.761 133.286C169.761 133.286 149.079 140.723 145.386 137.004C141.693 133.286 138 124.361 138 124.361L156.466 114.693L177.147 108Z" fill="#2F2E41"/>
<path d="M148.5 66C153.194 66 157 62.1944 157 57.5C157 52.8056 153.194 49 148.5 49C143.806 49 140 52.8056 140 57.5C140 62.1944 143.806 66 148.5 66Z" fill="#9F616A"/>
<path d="M155.302 58C155.302 58 160.413 66.1304 161.874 66.8696C163.334 67.6087 151.651 75 151.651 75C151.651 75 151.651 65.3913 148 63.1739L155.302 58Z" fill="#9F616A"/>
<path d="M155.883 66.1376C155.883 66.1376 167.348 62.4519 169.498 68.349C171.648 74.2461 176.664 85.3031 175.947 92.6745C175.231 100.046 173.797 98.5716 175.947 100.783C178.097 102.994 179.53 101.52 178.814 104.469C178.097 107.417 177.38 107.417 178.097 108.891C178.814 110.366 169.498 115.526 161.615 116.263L153.733 117C153.733 117 153.733 103.732 152.3 100.783C150.866 97.8344 148 91.9373 148 89.7259V83.8747C148 79.9802 148.988 76.1532 150.866 72.7718C150.866 72.7718 155.166 66.1376 155.883 66.1376Z" fill="#D89EFF"/>
<path d="M164.492 69C164.492 69 191.933 71.2557 194.9 78.7747C197.866 86.2937 199.35 101.332 196.383 101.332C193.416 101.332 189.708 102.835 188.966 101.332C188.225 99.8279 185.258 84.7899 184.516 84.7899C183.775 84.7899 161.525 82.5342 161.525 82.5342C161.525 82.5342 151.883 70.5038 164.492 69Z" fill="#D89EFF"/>
<path d="M148.01 55.6278C148.01 55.6278 145.724 51.6728 142.866 55.1081C140.009 58.5433 135.36 52.2304 136.073 50.8834C136.787 49.5364 139.307 50.944 143.626 49.5385C147.945 48.133 156.265 45.2698 157.658 54.6098C159.052 63.9497 155.733 62.9706 155.733 62.9706C155.733 62.9706 154.212 54.6944 152.837 57.0717L151.463 59.4489L150.27 59.7411L148.01 55.6278Z" fill="#2F2E41"/>
</svg>
